<svg width="21" height="15" viewBox="0 0 21 15" fill="none" xmlns="http://www.w3.org/2000/svg">
<path d="M13.8581 5.41374C13.8581 7.31471 12.3544 8.8558 10.4994 8.8558C8.64444 8.8558 7.14062 7.31471 7.14062 5.41374C7.14062 3.51277 8.64448 1.97168 10.4994 1.97168C12.3544 1.97168 13.8581 3.51277 13.8581 5.41374Z" fill="#B6C2D0"/>
<path d="M15.9198 12.3922C15.9198 13.8324 13.4938 14.9999 10.5009 14.9999C7.50813 14.9999 5.08203 13.8324 5.08203 12.3922C5.08203 10.9519 7.50813 9.78442 10.5009 9.78442C13.4938 9.78442 15.9198 10.9519 15.9198 12.3922Z" fill="#B6C2D0"/>
<path d="M6.25314 6.88432C6.26593 6.88432 6.27856 6.88229 6.29166 6.88229C6.13776 6.42123 6.05247 5.92791 6.05247 5.414C6.05247 3.51739 7.18914 1.88868 8.80041 1.20253C8.18435 0.467692 7.27285 0.000244141 6.25333 0.000244141C4.39834 0.000244141 2.89453 1.5415 2.89453 3.4423C2.89438 5.34327 4.39822 6.88437 6.25321 6.88437L6.25314 6.88432Z" fill="#B6C2D0"/>
<path d="M14.9489 5.41381C14.9489 5.92788 14.8636 6.42103 14.7097 6.88209C14.7225 6.88241 14.7352 6.88412 14.7483 6.88412C16.6032 6.88412 18.107 5.34287 18.107 3.44206C18.107 1.54093 16.6032 0 14.7483 0C13.7287 0 12.817 0.467129 12.2012 1.20229C13.8123 1.88848 14.9489 3.51722 14.9489 5.41376L14.9489 5.41381Z" fill="#B6C2D0"/>
<path d="M14.7475 7.8129C14.5866 7.8129 14.4282 7.81789 14.2706 7.82428C13.9996 8.26662 13.6575 8.65907 13.2598 8.9829C15.5339 9.54451 17.0081 10.8086 17.0081 12.3922C17.0081 12.5291 16.9968 12.6638 16.9752 12.7957C18.8555 12.3868 20.1662 11.4781 20.1662 10.4205C20.1663 8.98055 17.7403 7.81287 14.7477 7.81287L14.7475 7.8129Z" fill="#B6C2D0"/>
<path d="M7.7387 8.98287C7.3408 8.65903 6.99887 8.26675 6.72789 7.82425C6.57057 7.81754 6.41184 7.81287 6.25094 7.81287C3.25821 7.81287 0.832031 8.98055 0.832031 10.4206C0.832031 11.4782 2.14269 12.3868 4.02306 12.7959C4.00155 12.664 3.99017 12.5293 3.99017 12.3924C3.99032 10.8089 5.46484 9.54451 7.73862 8.9829L7.7387 8.98287Z" fill="#B6C2D0"/>
</svg>
