<svg width="21" height="28" viewBox="0 0 21 28" fill="none" xmlns="http://www.w3.org/2000/svg">
<path d="M16.7078 10.7646V12.1572C16.7096 13.0933 16.5455 14.0188 16.2266 14.8697L16.9465 15.2727C17.3127 14.2953 17.5012 13.2323 17.4993 12.1572V10.7646C17.4996 10.1388 17.4359 9.51546 17.3097 8.90909L16.5428 9.15127C16.6523 9.67846 16.7078 10.2205 16.7078 10.7646V10.7646Z" fill="#5E7085"/>
<path d="M9.81253 4.63122C10.9707 4.6294 12.1066 4.90944 13.0938 5.44011C14.0807 5.9708 14.8798 6.73105 15.4018 7.63636L16.2287 7.26684C15.3197 5.69732 13.702 4.53267 11.7675 4.05481C9.83328 3.57695 7.75867 3.82958 6.04688 4.75155L6.5336 5.44267H6.53339C7.51949 4.91142 8.65487 4.63052 9.81258 4.63121L9.81253 4.63122Z" fill="#5E7085"/>
<path d="M4.30223 10.7669C4.30547 8.89139 4.93525 7.10151 6.04155 5.82362L5.49291 5.09091C4.22272 6.55838 3.49969 8.61368 3.49609 10.7669V11.4545H4.30223V10.7669Z" fill="#5E7085"/>
<path d="M13.6797 17.942L13.9518 19.0909C14.85 18.438 15.6341 17.3819 16.2251 16.0292L15.6614 15.2727C15.146 16.4516 14.4626 17.3722 13.6797 17.942H13.6797Z" fill="#5E7085"/>
<path d="M4.76882 14.9438C4.33242 14.2855 4.10017 13.5149 4.101 12.7273H3.4961C3.49515 13.6319 3.76182 14.5168 4.26315 15.2727L4.76882 14.9438Z" fill="#5E7085"/>
<path d="M5.73456 8.90909C6.12844 7.63532 7.24464 6.60746 8.71667 6.16312C10.1887 5.7186 11.8263 5.9151 13.0923 6.68779L13.6784 6.00837H13.6786C12.1454 5.07363 10.1631 4.83631 8.38113 5.37407C6.59937 5.91188 5.24771 7.15549 4.76953 8.69718L5.73456 8.90909Z" fill="#5E7085"/>
<path d="M10.7959 7.63637C9.87341 7.63713 8.98882 7.90546 8.33662 8.38272C7.68421 8.85985 7.31741 9.50695 7.31641 10.1818H8.24426C8.24467 9.64531 8.56051 9.1347 9.11161 8.78045C9.66255 8.42636 10.3953 8.26271 11.1227 8.33137C11.85 8.40015 12.502 8.69455 12.9119 9.13955L13.68 8.7591C13.0335 8.05743 11.9525 7.63665 10.7959 7.63638V7.63637Z" fill="#5E7085"/>
<path d="M16.2251 12.1562V10.921C16.2241 9.72232 15.8598 8.56142 15.1948 7.63637L14.5902 8.20832C15.1397 8.97197 15.4404 9.93096 15.4413 10.921V12.1563C15.4439 13.6336 14.777 15.0066 13.6797 15.7818L14.094 16.5455C15.4218 15.6065 16.2288 13.9445 16.2251 12.1563V12.1562Z" fill="#5E7085"/>
<path d="M5.86742 10.8364V10.1818H4.76954V11.4909C4.76733 12.9005 5.39518 14.256 6.52125 15.2727L7.31498 14.6143C6.38449 13.7748 5.86566 12.6553 5.86742 11.4909V10.8364Z" fill="#5E7085"/>
<path d="M13.6789 11.6958V10.1818H12.8123V11.6958C12.8131 12.2972 12.6717 12.8851 12.4062 13.3833L13.1251 14V13.9997C13.4869 13.3194 13.6797 12.517 13.679 11.6958L13.6789 11.6958Z" fill="#5E7085"/>
<path d="M7.31641 11.4545C7.31602 12.3595 7.50456 13.2449 7.85821 14L8.58913 13.3212C8.32908 12.7678 8.19074 12.1184 8.19172 11.4545H7.31641Z" fill="#5E7085"/>
<path d="M2.35 28H18.6472C19.0176 28 19.3731 27.8522 19.6349 27.5891C19.8968 27.326 20.044 26.9689 20.044 26.5969V1.4031C20.044 1.03102 19.8969 0.67417 19.6349 0.410916C19.373 0.147828 19.0175 0 18.6472 0H2.35C1.97957 0 1.62409 0.147828 1.36222 0.410916C1.1003 0.674213 0.953125 1.03107 0.953125 1.4031V26.5969C0.953125 26.969 1.1003 27.326 1.36222 27.5891C1.62414 27.8521 1.97962 28 2.35 28ZM3.7469 27.0646V18.2791L9.46647 16.5822C9.66436 16.5235 9.8003 16.341 9.8003 16.1337V10.5212C9.8003 10.1337 10.1129 9.81962 10.4988 9.81962C10.8846 9.81962 11.1972 10.1337 11.1972 10.5212V22.8554C11.1972 23.1136 11.4057 23.3231 11.6628 23.3231C11.92 23.3231 12.1285 23.1136 12.1285 22.8554V21.608L13.2926 20.0491H13.5254V23.635L10.9644 27.0647L3.7469 27.0646ZM1.88436 1.40308C1.88436 1.14479 2.09286 0.935366 2.35 0.935366H18.6472C18.7706 0.935366 18.8891 0.984643 18.9764 1.07234C19.0637 1.16003 19.1128 1.27905 19.1128 1.40308V26.5969C19.1128 26.7209 19.0637 26.8399 18.9764 26.9276C18.8891 27.0153 18.7706 27.0646 18.6472 27.0646H12.1283L14.2236 24.2583H18.1815V23.3229H14.4565V19.5812C14.4565 19.4572 14.4074 19.3382 14.3201 19.2505C14.2328 19.1628 14.1143 19.1135 13.9908 19.1135H13.0596C12.913 19.1135 12.775 19.1828 12.687 19.3006L12.1283 20.0489V10.5194C12.1283 9.93458 11.8177 9.39418 11.3135 9.10168C10.8092 8.80936 10.1881 8.80936 9.68374 9.10168C9.17944 9.39421 8.86891 9.93458 8.86891 10.5194V15.7845L3.14934 17.4812C2.95145 17.5398 2.8155 17.7225 2.8155 17.9299V27.0644H2.34987C2.09273 27.0644 1.88424 26.855 1.88424 26.5967L1.88436 1.40308Z" fill="#5E7085"/>
</svg>
