<svg width="19" height="19" viewBox="0 0 19 19" fill="none" xmlns="http://www.w3.org/2000/svg">
<path fillRule="evenodd" clip-rule="evenodd" d="M0.00018281 11.2952C-0.00909217 10.3214 0.334082 9.45793 1.13946 9.17566L1.15956 9.13892C1.1831 9.08893 1.21448 9.04372 1.25231 9.0053C1.30105 8.96665 1.35612 8.93831 1.41462 8.92179L1.45945 8.90342C5.36421 7.35346 7.12491 5.02685 8.13743 3.44683C8.13743 4.99846 8.49761 7.02109 9.1314 8.97857C9.78219 10.9828 10.7221 12.9386 11.8691 14.2832C10.6741 13.9157 9.17468 13.4481 6.73536 13.8072C6.63321 14.0761 6.57465 14.3619 6.56223 14.6523C6.55419 14.7428 6.56379 14.8342 6.59041 14.9205C6.61703 15.0068 6.66009 15.0861 6.71681 15.1534L6.75391 15.1901C6.9085 15.3421 6.98424 15.4172 7.01825 15.5525C7.04099 15.7317 7.03418 15.9138 6.99815 16.0903L6.98424 16.2022C6.92705 16.6916 7.14655 16.7918 7.36452 16.892C7.58248 16.9923 7.75252 17.0724 7.84063 17.3413C7.84683 17.3631 7.84683 17.3864 7.84063 17.4081C7.75097 17.9092 7.45417 18.1831 7.15583 18.4587C7.08318 18.5272 7.00898 18.5957 6.9456 18.6608H6.93632C6.33036 19.1852 5.92071 19.0449 5.61 18.6241C5.36576 18.29 5.19572 17.7889 5.03804 17.3196L4.97003 17.1159C4.71468 16.2907 4.50815 15.4489 4.35169 14.5955L4.29914 14.345C4.16465 14.3851 4.02398 14.4302 3.87712 14.4769C3.69162 14.5354 3.50612 14.5988 3.32217 14.6623L3.26343 14.6857C3.23291 14.7074 3.19717 14.719 3.16063 14.719C3.12409 14.719 3.08836 14.7074 3.05783 14.6857C2.08242 15.0364 1.26776 14.5354 0.723631 13.7003C0.493918 13.3478 0.316102 12.9591 0.196503 12.5478C0.0740055 12.1431 0.00784308 11.7209 0.00018281 11.2952ZM13.5741 2.70358C13.5253 2.74384 13.4695 2.77321 13.41 2.78998C13.3506 2.80675 13.2886 2.81058 13.2278 2.80125C13.1669 2.79193 13.1084 2.76964 13.0556 2.73566C13.0028 2.70169 12.9568 2.65673 12.9202 2.60337L12.9094 2.58834C12.8386 2.48079 12.8091 2.34772 12.8273 2.21718C12.8454 2.08663 12.9098 1.9688 13.0068 1.88852C13.7581 1.28891 14.5062 0.684297 15.2575 0.0980522C15.3566 0.0205466 15.4794 -0.0129311 15.6007 0.00452025C15.7244 0.0250261 15.8356 0.0977 15.9099 0.206616V0.214967C15.9812 0.322753 16.0101 0.456672 15.9902 0.587425C15.9813 0.653795 15.9602 0.71756 15.9281 0.774939C15.8959 0.832319 15.8535 0.882146 15.8032 0.921467L13.5741 2.70358ZM16.015 12.3407C15.9538 12.3393 15.8935 12.3249 15.8375 12.2983C15.7816 12.2716 15.731 12.2332 15.6888 12.1854C15.6462 12.1381 15.6127 12.0822 15.5901 12.0208C15.5676 11.9595 15.5564 11.8939 15.5574 11.828V11.8163C15.5574 11.7495 15.5697 11.6833 15.5937 11.6218C15.6177 11.5602 15.6528 11.5044 15.697 11.4578C15.7413 11.4111 15.7937 11.3744 15.8512 11.3499C15.9087 11.3255 15.9702 11.3136 16.032 11.3152C16.8621 11.3152 17.7061 11.3486 18.5362 11.3653C18.661 11.3684 18.7797 11.4244 18.8665 11.5214C18.9533 11.6183 19.0012 11.7482 19 11.8831C18.9975 12.0185 18.9459 12.1475 18.8562 12.2422C18.8122 12.2889 18.76 12.3257 18.7027 12.3504C18.6453 12.375 18.584 12.3871 18.5223 12.3858L16.0196 12.334L16.015 12.3407ZM16.0876 9.71681C16.0263 9.72251 15.9646 9.71497 15.906 9.69464C15.8474 9.6743 15.7932 9.64157 15.7464 9.59836C15.6997 9.55514 15.6613 9.50231 15.6337 9.44293C15.606 9.38355 15.5895 9.31881 15.5852 9.25249V9.2408C15.5783 9.10853 15.619 8.97848 15.6988 8.87791C15.7786 8.77734 15.8914 8.71405 16.0134 8.70132C16.7863 8.63451 17.5732 8.56269 18.3476 8.50924C18.4714 8.50094 18.5932 8.54547 18.6869 8.63324C18.7806 8.72102 18.8386 8.84503 18.8485 8.97857C18.8534 9.04512 18.8459 9.11205 18.8265 9.17544C18.8072 9.23883 18.7763 9.29739 18.7356 9.34769C18.6541 9.45001 18.5386 9.51359 18.4141 9.52473C17.6644 9.60491 16.8405 9.67171 16.0876 9.71514V9.71681ZM15.7537 7.27997C15.694 7.29831 15.6314 7.30374 15.5697 7.29595C15.508 7.28816 15.4483 7.26731 15.394 7.23458C15.3397 7.20185 15.292 7.15789 15.2534 7.10521C15.2149 7.05253 15.1863 6.99216 15.1694 6.92755C15.1525 6.86373 15.1474 6.7969 15.1546 6.73095C15.1618 6.665 15.181 6.60125 15.2111 6.5434C15.2723 6.4253 15.3739 6.33776 15.494 6.29955C16.2994 6.07073 17.1017 5.79014 17.9071 5.55631C17.9661 5.538 18.028 5.53255 18.089 5.5403C18.1501 5.54804 18.2091 5.56881 18.2626 5.6014C18.3706 5.66638 18.451 5.77419 18.4868 5.90204C18.5207 6.03226 18.5056 6.17169 18.4448 6.28994C18.384 6.4082 18.2824 6.4957 18.1621 6.53338L15.7522 7.27663L15.7537 7.27997ZM14.7799 4.88822C14.7244 4.91805 14.6641 4.9358 14.6024 4.94044C14.5406 4.94509 14.4786 4.93654 14.4199 4.91529C14.3612 4.89404 14.3069 4.86051 14.2602 4.8166C14.2135 4.7727 14.1752 4.71928 14.1476 4.6594C14.1194 4.59973 14.1025 4.53455 14.098 4.4677C14.0935 4.40086 14.1014 4.33371 14.1213 4.27024C14.1613 4.14202 14.2462 4.03586 14.3578 3.97462L16.6766 2.72363C16.7318 2.69265 16.7922 2.67399 16.8542 2.66876C16.9163 2.66353 16.9786 2.67183 17.0376 2.69318C17.0966 2.71453 17.151 2.74849 17.1976 2.79303C17.2442 2.83757 17.282 2.89178 17.3088 2.95245C17.3368 3.01223 17.3534 3.07748 17.3577 3.14432C17.3619 3.21116 17.3537 3.27825 17.3336 3.34161C17.2936 3.46939 17.2086 3.575 17.0971 3.63556L14.7783 4.88822H14.7799ZM9.08193 2.00878C9.10203 1.98372 9.12367 1.96034 9.14377 1.93863C9.2072 1.86023 9.28513 1.79708 9.37255 1.75323C9.47233 1.71711 9.57958 1.71247 9.68172 1.73987C10.0295 1.8 10.4021 2.07391 10.7808 2.49314C11.7083 3.527 12.6853 5.49952 13.3809 7.57226C14.0765 9.64499 14.4939 11.8079 14.2852 13.2126C14.2064 13.7353 14.0425 14.1579 13.7735 14.4368L13.7596 14.4485C13.6465 14.5363 13.5156 14.5936 13.3778 14.6155C13.3656 14.6035 13.3527 14.5923 13.3391 14.5821C12.4132 13.8673 11.5939 12.6814 10.9045 11.2868C11.0807 11.3236 11.3064 11.1816 11.5228 10.9394C12.6049 9.70679 12.0731 7.55221 10.7236 7.05282C10.1733 6.85239 9.62606 6.85239 9.40965 6.96764L9.38646 6.981C8.8918 4.91829 8.75113 3.0109 9.08193 2.00878Z" fill="#B6C2D0"/>
</svg>
