<svg width="12" height="19" viewBox="0 0 12 19" fill="none" xmlns="http://www.w3.org/2000/svg">
<path d="M9.81736 0H1.58385C0.863996 0 0.28125 0.58271 0.28125 1.3026V2.26952H11.1197L11.1199 1.3026C11.1199 0.582746 10.5372 0 9.81729 0H9.81736ZM6.07453 1.7712C5.97534 1.87039 5.84016 1.92745 5.70093 1.92745C5.56156 1.92745 5.42651 1.87039 5.32732 1.7712C5.23022 1.6741 5.17317 1.53683 5.17317 1.39745C5.17317 1.25808 5.23023 1.12304 5.32732 1.02596C5.52361 0.829669 5.87628 0.829669 6.07467 1.02386C6.17177 1.12305 6.22883 1.26033 6.22883 1.39747C6.22869 1.53684 6.17163 1.67411 6.07453 1.77122L6.07453 1.7712Z" fill="#B6C2D0"/>
<path d="M0.28125 3.32495H11.1197V14.7777H0.28125V3.32495Z" fill="#B6C2D0"/>
<path d="M0.28125 17.6973C0.28125 18.4172 0.86396 18.9999 1.58385 18.9999H9.81736C10.5372 18.9999 11.12 18.4172 11.12 17.6973L11.1198 15.8333H0.281325L0.28125 17.6973ZM4.34515 16.625H7.05577C7.34706 16.625 7.58352 16.8614 7.58352 17.1527C7.58352 17.444 7.34705 17.6805 7.05577 17.6805H4.34515C4.05386 17.6805 3.8174 17.444 3.8174 17.1527C3.8174 16.8614 4.05387 16.625 4.34515 16.625Z" fill="#B6C2D0"/>
</svg>
