<svg width="35" height="32" viewBox="0 0 35 32" fill="none" xmlns="http://www.w3.org/2000/svg">
<path d="M34.1673 15.9978L30.809 18.083V15.4225L32.6508 14.281V14.2813C32.9212 14.1076 33.0079 13.7458 32.8462 13.4644L30.7444 9.93059C30.5775 9.65078 30.2207 9.5614 29.9461 9.73088L25.6476 12.395H19.9257L27.6573 7.59477C27.928 7.42131 28.0144 7.05955 27.8525 6.77844L26.6447 4.7471C26.4778 4.46729 26.1207 4.37817 25.8464 4.54818L13.2086 12.395H5.2637L24.8107 0.258446C25.2059 0.0136436 25.6803 -0.061145 26.1296 0.0507765C26.5788 0.162698 26.966 0.452062 27.2068 0.855492L34.7518 13.5488C34.9882 13.9538 35.0593 14.4376 34.9498 14.8957C34.8405 15.3537 34.5592 15.7497 34.1668 15.9976L34.1673 15.9978ZM29.6464 15.8541V30.2177C29.6459 30.6903 29.4619 31.1433 29.1352 31.4775C28.8082 31.8114 28.3649 31.9995 27.9025 32H1.74392C1.28148 31.9995 0.838224 31.8114 0.511233 31.4775C0.184509 31.1433 0.000518189 30.6903 0 30.2177V15.3652C0.000518986 14.8926 0.184509 14.4396 0.511233 14.1054C0.838217 13.7715 1.28147 13.5834 1.74392 13.5829H27.9025C28.2918 13.5882 28.6683 13.7245 28.974 13.9709C29.2795 14.2176 29.4969 14.5602 29.5924 14.9458C29.6459 15.245 29.664 15.55 29.6464 15.8537L29.6464 15.8541ZM14.5326 26.059C14.8453 26.0471 15.0926 25.7845 15.0926 25.4649C15.0926 25.1453 14.8453 24.8827 14.5326 24.8708C14.2199 24.8827 13.9726 25.1453 13.9726 25.4649C13.9726 25.7845 14.2199 26.0471 14.5326 26.059ZM12.7887 26.059C13.1014 26.0471 13.3487 25.7845 13.3487 25.4649C13.3487 25.1453 13.1014 24.8827 12.7887 24.8708C12.476 24.8827 12.2286 25.1453 12.2286 25.4649C12.2286 25.7845 12.476 26.0471 12.7887 26.059ZM8.71956 26.059C9.03227 26.0471 9.27958 25.7845 9.27958 25.4649C9.27958 25.1453 9.03227 24.8827 8.71956 24.8708C8.40685 24.8827 8.15954 25.1453 8.15954 25.4649C8.15954 25.7845 8.40685 26.0471 8.71956 26.059ZM6.39435 25.4649C6.40603 25.7845 6.66295 26.0372 6.97566 26.0372C7.28836 26.0372 7.54528 25.7845 7.55696 25.4649C7.54528 25.1453 7.28836 24.8925 6.97566 24.8925C6.66295 24.8925 6.40603 25.1453 6.39435 25.4649ZM2.90655 22.4944H6.39435C6.5485 22.4944 6.69643 22.4318 6.80542 22.3204C6.91441 22.209 6.97566 22.0578 6.97566 21.9003V18.3357C6.97566 18.1782 6.91441 18.027 6.80542 17.9156C6.69642 17.8042 6.5485 17.7416 6.39435 17.7416H2.90655C2.59021 17.753 2.33641 18.0124 2.32525 18.3357V21.9003C2.33407 22.2241 2.58865 22.4846 2.90525 22.4944H2.90655ZM4.65045 25.4649C4.66213 25.7845 4.91904 26.0372 5.23175 26.0372C5.54446 26.0372 5.80137 25.7845 5.81305 25.4649C5.80138 25.1453 5.54446 24.8925 5.23175 24.8925C4.91904 24.8925 4.66213 25.1453 4.65045 25.4649ZM26.1586 27.8413C26.1586 27.6837 26.0974 27.5326 25.9884 27.4212C25.8794 27.3098 25.7314 27.2472 25.5773 27.2472H4.06915C3.74814 27.2472 3.48785 27.5132 3.48785 27.8413C3.48785 28.1694 3.74814 28.4354 4.06915 28.4354H25.5773C25.7314 28.4354 25.8794 28.3728 25.9884 28.2614C26.0974 28.15 26.1586 27.9988 26.1586 27.8413ZM16.8578 25.4649C16.8461 25.1453 16.5892 24.8925 16.2765 24.8925C15.9638 24.8925 15.7069 25.1453 15.6952 25.4649C15.7069 25.7845 15.9638 26.0372 16.2765 26.0372C16.5892 26.0372 16.8461 25.7845 16.8578 25.4649ZM18.6017 25.4649C18.59 25.1453 18.3331 24.8925 18.0204 24.8925C17.7077 24.8925 17.4508 25.1453 17.4391 25.4649C17.4508 25.7845 17.7077 26.0372 18.0204 26.0372C18.3331 26.0372 18.59 25.7845 18.6017 25.4649ZM20.3456 25.4649C20.3339 25.1453 20.077 24.8925 19.7643 24.8925C19.4516 24.8925 19.1947 25.1453 19.183 25.4649C19.1947 25.7845 19.4516 26.0372 19.7643 26.0372C20.077 26.0372 20.3339 25.7845 20.3456 25.4649ZM22.0895 25.4649C22.0778 25.1453 21.8209 24.8925 21.5082 24.8925C21.1955 24.8925 20.9386 25.1453 20.9269 25.4649C20.9386 25.7845 21.1955 26.0372 21.5082 26.0372C21.8209 26.0372 22.0778 25.7845 22.0895 25.4649ZM23.8334 25.4649C23.8217 25.1453 23.5648 24.8925 23.2521 24.8925C22.9394 24.8925 22.6825 25.1453 22.6708 25.4649C22.6825 25.7845 22.9394 26.0372 23.2521 26.0372C23.5648 26.0372 23.8217 25.7845 23.8334 25.4649ZM25.5773 25.4649C25.5656 25.1453 25.3087 24.8925 24.996 24.8925C24.6833 24.8925 24.4264 25.1453 24.4147 25.4649C24.4264 25.7845 24.6833 26.0372 24.996 26.0372C25.3087 26.0372 25.5656 25.7845 25.5773 25.4649ZM25.5773 18.3357H15.1139C14.8007 18.3468 14.5523 18.6094 14.5523 18.9298C14.5523 19.2502 14.8007 19.5128 15.1139 19.5239H25.5773C25.8905 19.5128 26.1389 19.2502 26.1389 18.9298C26.1389 18.6094 25.8905 18.3468 25.5773 18.3357ZM25.5773 16.5534H18.0204C17.7072 16.5645 17.4588 16.8271 17.4588 17.1475C17.4588 17.4679 17.7072 17.7305 18.0204 17.7416H25.5773C25.8905 17.7305 26.1389 17.4679 26.1389 17.1475C26.1389 16.8271 25.8905 16.5645 25.5773 16.5534ZM4.62919 21.3062H5.81332V20.7121H4.94788C4.87574 20.9272 4.76778 21.1282 4.6292 21.3062H4.62919ZM3.48811 20.8169C3.69702 20.6697 3.83741 20.4408 3.87556 20.1843C3.83586 19.9117 3.69754 19.6639 3.48811 19.4902V20.8169ZM4.90556 19.5239H5.81332V18.9298H4.55884C4.70182 19.1096 4.81861 19.3099 4.90555 19.5239H4.90556Z" fill="#b6c2d0"/>
</svg>
