<svg width="20" height="20" viewBox="0 0 20 20" fill="none" xmlns="http://www.w3.org/2000/svg">
<path d="M19.9002 12.2732C19.9092 12.2642 19.9184 12.2528 19.9252 12.2438C19.932 12.2324 19.9388 12.2188 19.9456 12.2076C19.9524 12.194 19.9614 12.1804 19.966 12.1668C19.9728 12.1532 19.975 12.1374 19.9796 12.1215C19.9842 12.1079 19.9886 12.0965 19.991 12.0829C19.9978 12.0535 20 12.0239 20 11.9945L19.9998 8.14583C19.9998 7.8965 19.7959 7.69256 19.5466 7.69256H16.1535V4.29955C16.1535 4.05022 15.9496 3.84628 15.7003 3.84628H12.3072V0.453268C12.3072 0.20394 12.1033 0 11.854 0H8.00768C7.97827 0 7.94649 0.0022134 7.9193 0.00901193C7.90349 0.0112253 7.88752 0.0180239 7.87171 0.0248219C7.85795 0.0271934 7.84673 0.0294067 7.83535 0.0339916C7.81716 0.04079 7.80357 0.0498016 7.78554 0.0589718C7.77653 0.0635567 7.76515 0.0679838 7.75613 0.0747818C7.74254 0.0837937 7.72894 0.095177 7.71534 0.10656C7.70633 0.113359 7.69495 0.120157 7.68815 0.129169C7.67234 0.144979 7.65874 0.16316 7.64515 0.178972C7.64056 0.18577 7.63614 0.190355 7.63155 0.197153C7.61574 0.222134 7.59977 0.249328 7.58855 0.276519L1.69308 14.4606L0.795529 15.3582C-0.265176 16.4189 -0.265176 18.1437 0.795529 19.2044C1.32594 19.7349 2.02177 20 2.71757 20C3.41336 20 4.11154 19.7349 4.64183 19.2044L5.53938 18.3069L19.7211 12.4115C19.7483 12.4001 19.7755 12.3865 19.8005 12.3685C19.8119 12.3617 19.8209 12.3503 19.8323 12.3413C19.8436 12.3322 19.8572 12.3231 19.8663 12.3119C19.8798 12.3005 19.8889 12.2869 19.9002 12.2733L19.9002 12.2732ZM19.0933 8.59912V11.6906L11.5027 14.8457L9.79826 13.1412L15.852 8.59925L19.0933 8.59912ZM5.38993 17.3864L4.85272 16.8492L9.06648 13.6897L10.5986 15.2219L5.38993 17.3864ZM4.77792 9.40375L6.31007 10.9359L3.15058 15.1472L2.61337 14.61L4.77792 9.40375ZM6.95831 11.5819L8.41788 13.0415L4.20453 16.2009L3.79885 15.7953L6.95831 11.5819ZM15.247 4.75272V7.919L9.14998 12.493L7.50665 10.8496L12.0806 4.75264L15.247 4.75272ZM11.4007 4.14752L6.86072 10.2036L5.15624 8.49915L8.31132 0.90624H11.4029V4.14731L11.4007 4.14752ZM4.00042 18.5627C3.29321 19.2699 2.14415 19.2699 1.43695 18.5627C0.729741 17.8555 0.729741 16.7041 1.43695 15.9993L2.07838 15.3578L4.64185 17.9213L4.00042 18.5627Z" fill="#B6C2D0"/>
</svg>
