<svg width="37" height="38" viewBox="0 0 37 38" fill="none" xmlns="http://www.w3.org/2000/svg">
<path d="M21.8359 28.3415H26.2943V33.4368H21.8359V28.3415Z" fill="#B6C2D0"/>
<path d="M21.8359 14.3291H26.2943V20.6981H21.8359V14.3291Z" fill="#B6C2D0"/>
<path d="M18.0137 14.3291H20.5613V33.4367H18.0137V14.3291Z" fill="#B6C2D0"/>
<path d="M27.5684 14.3291H30.116V33.4367H27.5684V14.3291Z" fill="#B6C2D0"/>
<path d="M4.24744 13.0368C4.25929 13.0486 4.27501 13.0551 4.29176 13.0551H4.41931L19.288 1.41937L34.156 13.0551H34.2836C34.3003 13.0551 34.3161 13.0486 34.3279 13.0368L35.1919 12.1728C35.2038 12.1609 35.2102 12.1452 35.2102 12.1284C35.2102 12.1089 35.2009 12.0903 35.1855 12.0785L20.0463 0.572695C19.8296 0.407781 19.5604 0.317078 19.288 0.317078C19.0156 0.317078 18.7461 0.407781 18.5294 0.572695L3.39023 12.0785C3.37451 12.0903 3.36523 12.1089 3.36523 12.1284C3.36523 12.1452 3.37168 12.1609 3.38353 12.1728L4.24744 13.0368Z" fill="#B6C2D0"/>
<path d="M19.2864 3.03682L6.48438 13.0557H32.0877L19.2864 3.03682ZM19.2864 11.1447C17.8794 11.1447 16.7387 10.0039 16.7387 8.59701C16.7387 7.19009 17.8794 6.04935 19.2864 6.04935C20.6933 6.04935 21.834 7.19009 21.834 8.59701C21.8338 10.0042 20.6933 11.1447 19.2864 11.1447Z" fill="#B6C2D0"/>
<path d="M16.7384 21.9725H13.2888C13.4612 22.5801 13.5537 23.2212 13.5537 23.8832C13.5537 25.0291 13.2772 26.1119 12.7871 27.0678L16.7383 27.0676L16.7384 21.9725Z" fill="#B6C2D0"/>
<path d="M21.8359 21.9725H26.2943V27.0678H21.8359V21.9725Z" fill="#B6C2D0"/>
<path d="M8.45898 33.4367H11.0067V29.2834C10.2689 29.8936 9.40414 30.3559 8.45898 30.6241V33.4367Z" fill="#B6C2D0"/>
<path d="M5.91211 34.7105V37.2582H32.6626H32.6633L32.6628 34.7105H5.91211Z" fill="#B6C2D0"/>
<path d="M12.2808 23.8829C12.2808 20.7222 9.70946 18.1506 6.54851 18.1506C3.38782 18.1506 0.816406 20.7222 0.816406 23.8829C0.816406 27.0436 3.38775 29.6152 6.5487 29.6152C9.70913 29.6149 12.2808 27.0436 12.2808 23.8829ZM4.638 25.1566H5.91174C5.91174 25.5078 6.1975 25.7936 6.54872 25.7936H7.1857V25.1566C7.1857 24.8054 6.89993 24.5196 6.54872 24.5196C5.49505 24.5196 4.63802 23.6623 4.63802 22.6089V20.6982H5.91175V19.4245H7.18548V20.808C7.92681 21.0711 8.45922 21.779 8.45922 22.6092L7.18575 22.6089C7.18575 22.2577 6.89998 21.972 6.54877 21.972H5.91179V22.6089C5.91179 22.9602 6.19755 23.2459 6.54877 23.2459C7.60244 23.2459 8.45947 24.1032 8.45947 25.1566V27.0673H7.18574V28.3411L5.9118 28.3413V26.9578C5.17074 26.695 4.63807 25.9869 4.63807 25.1566H4.638Z" fill="#B6C2D0"/>
<path d="M36.9664 24.4997L33.9363 20.1712V21.9721H31.3887V27.0672H33.9363V28.3955L36.9664 24.4997Z" fill="#B6C2D0"/>
<path d="M11.0067 18.4829V14.3297H8.45898V17.1422C9.40441 17.4105 10.269 17.8727 11.0067 18.4829Z" fill="#B6C2D0"/>
<path d="M12.2812 28.3415H16.7396V33.4368H12.2812V28.3415Z" fill="#B6C2D0"/>
<path d="M16.7396 14.3291H12.2812V19.8591C12.4691 20.1258 12.6389 20.4059 12.7886 20.6981H16.7396L16.7396 14.3291Z" fill="#B6C2D0"/>
<path d="M19.9241 8.59728C19.9241 8.94926 19.6391 9.23426 19.2874 9.23426C18.9354 9.23426 18.6504 8.94926 18.6504 8.59728C18.6504 8.24555 18.9354 7.96056 19.2874 7.96056C19.6391 7.96056 19.9241 8.24555 19.9241 8.59728Z" fill="#B6C2D0"/>
</svg>
