<svg width="21" height="21" viewBox="0 0 21 21" fill="none" xmlns="http://www.w3.org/2000/svg">
<path d="M14.9508 0.991249C14.9199 0.971798 14.8868 0.956648 14.8518 0.945239C13.5254 0.338892 12.0516 0 10.5 0C4.70992 0 0 4.70997 0 10.5C0 16.29 4.70997 21 10.5 21C16.29 21 21 16.29 21 10.5C21 6.30062 18.5215 2.66977 14.9509 0.991587L14.9508 0.991249ZM18.3128 4.91101C17.1947 4.80739 16.1358 4.56594 15.1466 4.19095C15.2324 3.4808 15.2607 2.79124 15.2289 2.13701C16.447 2.82844 17.4996 3.77784 18.3128 4.91106L18.3128 4.91101ZM14.3014 1.67463C14.3721 2.35395 14.3669 3.0766 14.2904 3.82548C12.8587 3.14152 11.5928 2.15645 10.5289 0.890797C11.868 0.894351 13.1432 1.17415 14.3014 1.67463H14.3014ZM9.44212 0.948971C9.45315 0.968796 9.46512 0.988809 9.4799 1.0077C10.7614 2.67621 12.343 3.93358 14.1631 4.74997C14.0307 5.51193 13.8291 6.29332 13.5629 7.07831C11.7091 6.0702 9.57192 5.50522 7.30746 5.50522C5.40965 5.50522 3.39818 5.94568 1.66197 6.72802C2.99848 3.60819 5.93954 1.33438 9.44193 0.948952L9.44212 0.948971ZM11.7515 10.7188C8.44335 8.82943 6.71413 9.97256 5.04265 11.0781C3.87951 11.8468 2.77977 12.5732 1.07367 12.3669C0.953786 11.7626 0.890384 11.1389 0.890384 10.5C0.890384 9.60823 1.01289 8.74453 1.24125 7.92498C1.2607 7.91768 1.27996 7.90983 1.29885 7.89936C3.06892 6.94363 5.25903 6.39526 7.30775 6.39526C9.4653 6.39526 11.4993 6.94569 13.2525 7.92444C12.8717 8.88486 12.3974 9.8426 11.8365 10.7692C11.8081 10.7525 11.7798 10.7351 11.7516 10.7189L11.7515 10.7188ZM1.30134 13.2819C3.14844 13.3971 4.41088 12.5629 5.53327 11.8208C7.1133 10.776 8.47749 9.87416 11.31 11.492C11.3272 11.5019 11.344 11.5118 11.3608 11.5219C9.20251 14.7942 6.56472 16.9926 4.0453 17.5954C4.04006 17.5965 4.03538 17.5986 4.03071 17.5995C2.76602 16.4465 1.80972 14.9604 1.30119 13.2819L1.30134 13.2819ZM4.8734 18.2853C7.4374 17.4505 9.963 15.2625 12.0946 12.0274C13.0698 12.8156 13.7064 13.8697 13.9176 15.0689C14.2019 16.6865 13.6636 18.3957 12.4021 19.8827C12.3901 19.8969 12.3791 19.912 12.3692 19.9272C11.7643 20.0471 11.1396 20.1105 10.5002 20.1105C8.40057 20.1099 6.45603 19.4323 4.87337 18.2855L4.8734 18.2853ZM13.7618 19.5395C14.7018 18.0746 15.0669 16.4655 14.7945 14.9148C14.5437 13.4889 13.7503 12.2026 12.5726 11.2731C13.1455 10.332 13.632 9.371 14.0274 8.39751C16.4017 9.97437 18.156 12.3859 18.834 15.2812C17.7066 17.2371 15.9113 18.7611 13.7616 19.5393L13.7618 19.5395ZM19.4197 14.0745C18.5263 11.3309 16.7112 9.05815 14.3488 7.54372C14.5137 7.07128 14.6583 6.59642 14.7803 6.1204C14.8687 5.77477 14.9441 5.43117 15.0069 5.0908C16.2172 5.52695 17.5206 5.78151 18.9026 5.84433C19.6703 7.22479 20.1086 8.8121 20.1086 10.5004C20.1093 11.7631 19.8643 12.9691 19.4195 14.0745L19.4197 14.0745Z" fill="#B6C2D0"/>
</svg>
