<svg width="12" height="14" viewBox="0 0 12 14" fill="none" xmlns="http://www.w3.org/2000/svg">
<path d="M11 5.8H1M8.22222 1V3.4M3.77778 1V3.4M3.66667 13H8.33333C9.26675 13 9.73346 13 10.09 12.8038C10.4036 12.6312 10.6586 12.3559 10.8183 12.0172C11 11.6321 11 11.1281 11 10.12V5.08C11 4.07191 11 3.56786 10.8183 3.18282C10.6586 2.84413 10.4036 2.56876 10.09 2.39619C9.73346 2.2 9.26675 2.2 8.33333 2.2H3.66667C2.73325 2.2 2.26654 2.2 1.91002 2.39619C1.59641 2.56876 1.34144 2.84413 1.18166 3.18282C1 3.56786 1 4.07191 1 5.08V10.12C1 11.1281 1 11.6321 1.18166 12.0172C1.34144 12.3559 1.59641 12.6312 1.91002 12.8038C2.26654 13 2.73325 13 3.66667 13Z" stroke="#6B7B8D" stroke-linecap="round" stroke-linejoin="round"/>
</svg>
