<svg width="27" height="25" viewBox="0 0 27 25" fill="none" xmlns="http://www.w3.org/2000/svg">
<path d="M13.5596 25H1.68258C0.7547 25 0 24.2453 0 23.3174V7.16467C0 6.23679 0.7547 5.48209 1.68258 5.48209H13.5596C14.487 5.48209 15.2417 6.23679 15.2417 7.16467V23.3174C15.2422 24.2448 14.487 25 13.5596 25ZM1.68258 6.47127C1.3006 6.47127 0.989753 6.78212 0.989753 7.1641V23.3169C0.989753 23.6988 1.3006 24.0097 1.68258 24.0097H13.5596C13.9412 24.0097 14.252 23.6988 14.252 23.3169V7.1641C14.252 6.78212 13.9411 6.47127 13.5596 6.47127H1.68258Z" fill="#B6C2D0"/>
<path d="M18.7295 22.8763C18.5063 22.8763 18.2841 22.8312 18.0722 22.7422L14.5542 21.2487C14.3023 21.1418 14.185 20.8508 14.292 20.5994C14.3993 20.3476 14.6899 20.2312 14.9412 20.3372L18.4593 21.8307C18.63 21.9033 18.8189 21.9045 18.9893 21.8355C19.1609 21.7661 19.295 21.6347 19.3673 21.4639L25.6791 6.59558C25.8284 6.24364 25.6638 5.83647 25.3119 5.68648L14.3788 1.04612C14.208 0.973435 14.0205 0.971891 13.8488 1.04126C13.6771 1.11064 13.543 1.24209 13.4708 1.41286L12.2911 4.19011C12.1846 4.44196 11.8932 4.55839 11.6422 4.45235C11.3903 4.34542 11.273 4.05445 11.3804 3.80307L12.5597 1.02582C12.7349 0.612026 13.0614 0.291482 13.4776 0.123111C13.8943 -0.0454575 14.3516 -0.0405936 14.7658 0.135705L25.6984 4.77561C26.552 5.13837 26.9519 6.12812 26.5901 6.98225L20.2783 21.8506C20.1031 22.2644 19.7765 22.5849 19.3599 22.7533C19.156 22.8353 18.9421 22.8764 18.7294 22.8764L18.7295 22.8763Z" fill="#B6C2D0"/>
<path d="M11.5469 14.5595C11.2738 14.5595 11.052 14.3384 11.052 14.0646C11.052 13.1977 10.4745 12.6379 9.9337 12.4028C9.39531 12.1693 8.59358 12.1291 7.95906 12.7209C7.75912 12.9074 7.44695 12.8961 7.25985 12.6966C7.07338 12.4967 7.08465 12.1834 7.28415 11.997C8.10711 11.229 9.27406 11.0368 10.3281 11.4952C11.3856 11.955 12.0418 12.9392 12.0418 14.0646C12.0418 14.3384 11.8204 14.5595 11.5469 14.5595L11.5469 14.5595Z" fill="#B6C2D0"/>
<path d="M3.69556 14.5595C3.4225 14.5595 3.20068 14.3384 3.20068 14.0647C3.20068 12.9397 3.85596 11.9555 4.91041 11.4972C5.96798 11.0386 7.13537 11.2295 7.95874 11.997C8.15868 12.1834 8.1695 12.4967 7.98304 12.6966C7.79657 12.8961 7.4833 12.9074 7.28382 12.7209C6.64998 12.1295 5.84625 12.1702 5.30522 12.4052C4.76638 12.6394 4.19019 13.1986 4.19019 14.0651C4.19041 14.3384 3.96927 14.5595 3.69554 14.5595L3.69556 14.5595Z" fill="#B6C2D0"/>
<path d="M7.62043 19.2453C7.55017 19.2453 7.47948 19.2305 7.41209 19.1987C6.14662 18.6097 3.20367 16.9302 3.19971 14.0648C3.19971 13.7917 3.42086 13.5699 3.69458 13.5695C3.96831 13.5695 4.18946 13.7906 4.18946 14.0639C4.19233 16.3607 6.73606 17.7923 7.8292 18.3015C8.07664 18.4164 8.18401 18.7114 8.06869 18.9588C7.98562 19.1395 7.80645 19.2453 7.62043 19.2453V19.2453Z" fill="#B6C2D0"/>
<path d="M7.62099 19.2453C7.43452 19.2453 7.2558 19.1394 7.17206 18.9592C7.05674 18.7113 7.16411 18.4168 7.41199 18.3015C8.50513 17.7938 11.0473 16.3639 11.0513 14.0638C11.0522 13.7908 11.2736 13.5699 11.5462 13.5699H11.5471C11.8208 13.5703 12.042 13.7921 12.0411 14.0656C12.0362 16.935 9.09418 18.6121 7.8291 19.1995C7.7626 19.2309 7.6908 19.2452 7.62099 19.2452L7.62099 19.2453Z" fill="#B6C2D0"/>
<path d="M12.7678 23.0205C12.4948 23.0205 12.2729 22.7993 12.2729 22.5256V21.041C12.2729 20.7673 12.4948 20.5461 12.7678 20.5461C13.0409 20.5461 13.2627 20.7673 13.2627 21.041V22.5256C13.2627 22.7993 13.0409 23.0205 12.7678 23.0205Z" fill="#B6C2D0"/>
<path d="M2.47437 9.93538C2.20064 9.93538 1.97949 9.71423 1.97949 9.4405V7.95587C1.97949 7.68215 2.20064 7.461 2.47437 7.461C2.74809 7.461 2.96924 7.68215 2.96924 7.95587V9.4405C2.96924 9.71423 2.74809 9.93538 2.47437 9.93538Z" fill="#B6C2D0"/>
<path d="M18.3098 20.6502C18.245 20.6502 18.1797 20.6378 18.1162 20.6111C17.8644 20.5041 17.7471 20.2136 17.854 19.9618L18.4339 18.5949C18.5413 18.343 18.8314 18.2273 19.0832 18.3327C19.3351 18.4396 19.4524 18.7301 19.3455 18.9819L18.7655 20.3488C18.6853 20.5368 18.5022 20.6502 18.3098 20.6502H18.3098Z" fill="#B6C2D0"/>
<path d="M13.9475 4.58339C13.8827 4.58339 13.8169 4.57102 13.7539 4.54429C13.5025 4.43736 13.3848 4.14684 13.4921 3.89501L14.0721 2.52813C14.179 2.27628 14.4695 2.15985 14.721 2.2659C14.9728 2.37282 15.0901 2.66334 14.9832 2.91517L14.4033 4.28205C14.3226 4.47006 14.1395 4.58339 13.9475 4.58339L13.9475 4.58339Z" fill="#B6C2D0"/>
<path d="M14.8847 15.547C14.8189 15.547 14.753 15.5342 14.6912 15.5079C14.556 15.4505 14.4537 15.3356 14.411 15.1951L14.2734 14.7393C14.1943 14.4779 14.3421 14.2013 14.6039 14.1227C14.8257 14.054 15.0617 14.1539 15.1739 14.3463L18.8344 12.4638L17.6492 8.53594L14.9724 9.91209C14.7279 10.0374 14.4305 9.94081 14.3059 9.69779C14.1813 9.45477 14.2767 9.1563 14.5202 9.03126L17.7254 7.38335C17.8555 7.31663 18.0095 7.31111 18.1452 7.36811C18.2804 7.42555 18.3831 7.54043 18.4253 7.68094L19.9011 12.5722C19.9705 12.8009 19.8664 13.0463 19.6537 13.1557L15.1103 15.492C15.0405 15.5287 14.9623 15.547 14.8847 15.547L14.8847 15.547Z" fill="#B6C2D0"/>
</svg>
