<svg width="42" height="38" viewBox="0 0 42 38" fill="none" xmlns="http://www.w3.org/2000/svg">
<path d="M40.7474 25.7218L28.0803 3.87753C26.6584 1.46483 24.1594 0 21.359 0C18.5586 0 16.0596 1.46483 14.6378 3.87753L1.97066 25.7218C0.548842 28.1345 0.548842 31.0645 1.97066 33.4772C3.39248 35.9332 5.89151 37.3547 8.69191 37.3547H34.0692C36.8696 37.3547 39.4119 35.8899 40.7904 33.4772C42.1693 31.0642 42.1693 28.1775 40.7475 25.7218H40.7474ZM38.5069 32.2276C37.559 33.865 35.9216 34.8129 34.0261 34.8129H8.69191C6.83939 34.8129 5.15875 33.865 4.21118 32.2276C3.2633 30.5903 3.2633 28.6945 4.21118 27.0575L16.8783 5.17009C17.8262 3.57601 19.4636 2.58482 21.359 2.58482C23.2548 2.58482 24.8922 3.53269 25.8397 5.17009L38.5069 27.0575C39.4547 28.6516 39.4547 30.5903 38.5069 32.2276Z" fill="#7E91A6"/>
<path d="M23.943 6.24723C22.7796 4.26515 19.9362 4.26515 18.7728 6.24723L6.10573 28.1346C4.94235 30.1167 6.40747 32.6153 8.69101 32.6153H34.0683C36.3518 32.6153 37.8167 30.1164 36.6536 28.1346L23.943 6.24723ZM21.2715 10.5988C22.2624 10.5558 23.0811 11.2882 23.124 12.2791V12.4513L22.693 21.8439C22.65 22.5763 22.0469 23.1366 21.3141 23.1366C20.6247 23.0936 20.0648 22.5334 20.0215 21.8439L19.5905 12.4513C19.5481 11.4607 20.2806 10.642 21.2715 10.5988L21.2715 10.5988ZM21.3577 29.0393C20.2376 29.0393 19.3327 28.1344 19.3327 27.0143C19.3327 25.8942 20.2377 24.9893 21.3577 24.9893C22.4778 24.9893 23.3828 25.8942 23.3828 27.0143C23.3828 28.1347 22.4778 29.0393 21.3577 29.0393Z" fill="#7E91A6"/>
</svg>
