<svg width="16" height="15" viewBox="0 0 16 15" fill="none" xmlns="http://www.w3.org/2000/svg">
<path d="M7.6262 9.17546C7.6262 9.3295 7.56602 9.47731 7.45894 9.58622C7.35186 9.69513 7.20665 9.75633 7.05508 9.75633H0.571109C0.367011 9.75633 0.178474 9.6456 0.0764889 9.4659C-0.0254963 9.28619 -0.0254963 9.06473 0.0764889 8.88503C0.178474 8.70532 0.367018 8.59459 0.571109 8.59459H7.05508C7.20665 8.59459 7.35186 8.65579 7.45894 8.76471C7.56602 8.87362 7.6262 9.02143 7.6262 9.17546ZM7.05508 10.9181H2.28446C2.08036 10.9181 1.89182 11.0288 1.78984 11.2085C1.68785 11.3882 1.68785 11.6097 1.78984 11.7894C1.89182 11.9691 2.08037 12.0798 2.28446 12.0798H7.05508C7.25918 12.0798 7.44771 11.9691 7.5497 11.7894C7.65181 11.6097 7.65181 11.3882 7.5497 11.2085C7.44771 11.0288 7.25917 10.9181 7.05508 10.9181ZM7.05508 13.2415H3.99794C3.79384 13.2415 3.60531 13.3523 3.50332 13.532C3.40134 13.7117 3.40134 13.9331 3.50332 14.1128C3.60531 14.2925 3.79385 14.4033 3.99794 14.4033H7.05508C7.25918 14.4033 7.44771 14.2926 7.5497 14.1128C7.65181 13.9331 7.65181 13.7117 7.5497 13.532C7.44771 13.3523 7.25917 13.2415 7.05508 13.2415ZM10.082 9.02079L12.3791 6.68745C12.5192 6.5399 12.5724 6.32818 12.5191 6.13032C12.4658 5.93246 12.3138 5.77791 12.1193 5.72371C11.9248 5.66951 11.7166 5.72358 11.5715 5.86608L9.27568 8.19771C9.16541 8.30598 9.10269 8.4547 9.10129 8.61043C9.10001 8.76628 9.16018 8.91616 9.26854 9.02623C9.3769 9.13644 9.52414 9.19777 9.67737 9.19634C9.8306 9.19505 9.97682 9.13113 10.0832 9.0191L10.082 9.02079ZM10.2494 2.24554V1.16174H10.7897C10.9938 1.16174 11.1823 1.05101 11.2843 0.871302C11.3863 0.691595 11.3863 0.470138 11.2843 0.290434C11.1823 0.110727 10.9937 0 10.7897 0H8.56805C8.36395 0 8.17541 0.110727 8.07343 0.290434C7.97144 0.470142 7.97144 0.691598 8.07343 0.871302C8.17541 1.05101 8.36396 1.16174 8.56805 1.16174H9.10832V2.24438C7.78493 2.3634 6.53308 2.90733 5.53378 3.79768L4.7833 3.03439C4.63899 2.88749 4.42866 2.83005 4.23144 2.8836C4.03423 2.93715 3.88009 3.09377 3.82706 3.29422C3.77415 3.4948 3.83037 3.70886 3.97455 3.85577L4.74899 4.6428C4.27718 5.24959 3.91744 5.93847 3.68733 6.67584C3.63277 6.87175 3.683 7.08231 3.81978 7.23091C3.95644 7.3795 4.15965 7.44459 4.35546 7.40232C4.55114 7.36006 4.71089 7.21665 4.77639 7.02436C5.10375 5.96452 5.75558 5.03892 6.63686 4.38257C7.51814 3.72636 8.58261 3.37382 9.67488 3.37654H9.68405C11.5215 3.37719 13.2188 4.37464 14.1371 5.99344C15.0553 7.6121 15.0546 9.6061 14.1353 11.2242C13.2162 12.8424 11.518 13.8388 9.68064 13.8381C9.5812 13.8381 9.48126 13.833 9.36601 13.8271C9.21584 13.8217 9.06975 13.8767 8.95921 13.98C8.84869 14.0835 8.78265 14.227 8.77539 14.3795C8.76978 14.5343 8.82447 14.6851 8.9276 14.799C9.03074 14.913 9.1739 14.981 9.32598 14.9882C9.44416 14.9941 9.56297 14.9999 9.68063 14.9999C11.3037 15.0096 12.8675 14.3801 14.0443 13.2431C15.2212 12.1063 15.9197 10.5501 15.9935 8.90091C16.0673 7.25167 15.5107 5.63769 14.4404 4.39669C13.37 3.15559 11.8689 2.38413 10.2516 2.24386L10.2494 2.24554Z" fill="#7E91A6"/>
</svg>
