<svg width="27" height="31" viewBox="0 0 27 31" fill="none" xmlns="http://www.w3.org/2000/svg">
<path d="M18.0914 13.2103L17.8317 14.1483H12.8711L13.1308 13.2103H18.0914ZM15.6906 19.0135L13.0248 15.8708L13.0195 15.0811H14.2861C14.6147 15.0811 14.885 15.0228 15.097 14.9062C15.3125 14.7861 15.4733 14.6253 15.5793 14.4239C15.6853 14.219 15.7383 13.9911 15.7383 13.7402C15.7383 13.4682 15.6888 13.2279 15.5899 13.0195C15.491 12.811 15.3337 12.6485 15.1182 12.5319C14.9027 12.4153 14.6183 12.357 14.2649 12.357H12.8764L13.1626 11.297H14.2649C14.8903 11.297 15.4097 11.3907 15.8231 11.5779C16.2365 11.7652 16.5456 12.0372 16.7506 12.3941C16.959 12.7509 17.0632 13.182 17.0632 13.6872C17.0632 14.1289 16.9873 14.5193 16.8354 14.8585C16.6834 15.1942 16.4379 15.4662 16.0987 15.6747C15.7595 15.8796 15.309 16.0068 14.7472 16.0563L17.1851 18.9447V19.0135H15.6906ZM18.0967 11.297L17.8317 12.2351H13.7774L14.0371 11.297H18.0967Z" fill="#5E7085"/>
<path d="M24.5887 21.9157L22.1768 22.5173C25.5791 19.609 26.7837 14.6823 24.7906 10.4393C23.4971 7.68338 21.0134 5.64224 18.078 4.893L19.8547 0.619034C19.9167 0.468129 19.8925 0.295765 19.7905 0.16909C19.6892 0.0407975 19.5265 -0.0210422 19.3659 0.00641918L15.5626 0.650867L11.7593 0.00641918C11.6001 -0.0210387 11.4361 0.0414916 11.3348 0.16909C11.2335 0.296689 11.2079 0.469512 11.2713 0.619034L13.0515 4.90547C7.84022 6.22921 4.50415 11.4226 5.56209 16.7566C5.95619 18.7407 6.93823 20.5511 8.3559 21.9713H8.18353C7.63783 21.9713 7.10368 22.1229 6.63851 22.4083L3.55538 24.3075H1.13536C0.888011 24.3075 0.6875 24.508 0.6875 24.7547V29.8688C0.6875 30.1161 0.888011 30.3167 1.13536 30.3167H12.003C12.7637 30.3167 13.5275 30.1429 14.213 29.8136L25.4888 24.4081C26.1496 24.0903 26.4295 23.2931 26.1131 22.6314C25.8395 22.0642 25.2008 21.7631 24.5888 21.9154L24.5887 21.9157ZM15.4891 1.54619C15.5373 1.55519 15.5897 1.55519 15.6386 1.54619L18.7155 1.02379L17.1622 4.76454H13.9653L12.4112 1.02379L15.4891 1.54619ZM6.44199 16.5823C5.4475 11.564 8.70996 6.67342 13.7205 5.65919H17.4163C20.2846 6.24296 22.7358 8.16893 23.9795 10.8194C26.1538 15.4497 24.1648 20.9829 19.5449 23.172L16.6373 23.897C16.6567 23.7964 16.6669 23.6923 16.6669 23.5862C16.6669 22.6951 15.9419 21.9701 15.0508 21.9701H9.68307C8.01413 20.6067 6.86204 18.701 6.44164 16.5819L6.44199 16.5823ZM25.0991 23.6015L13.8239 29.0071C13.2588 29.2787 12.6289 29.4227 12.0011 29.4227H1.58123V25.2045H3.68304C3.76634 25.2045 3.84709 25.1817 3.91862 25.1383L7.10932 23.1722C7.43328 22.973 7.80545 22.8676 8.18503 22.8676H15.053C15.4499 22.8676 15.7731 23.1909 15.7731 23.5877C15.7731 23.9839 15.4499 24.3078 15.053 24.3078H11.6196C11.3723 24.3078 11.1718 24.5083 11.1718 24.755C11.1718 25.0017 11.3723 25.2022 11.6196 25.2022H15.053C15.3052 25.2022 15.5443 25.1443 15.7566 25.0409L24.8042 22.7854C25.0047 22.7358 25.2136 22.8336 25.3031 23.0196C25.4069 23.2362 25.3146 23.4974 25.0989 23.6015L25.0991 23.6015Z" fill="#5E7085"/>
</svg>
