<svg width="16" height="15" viewBox="0 0 16 15" fill="none" xmlns="http://www.w3.org/2000/svg">
<path fillRule="evenodd" clip-rule="evenodd" d="M2.77552 8.7749C2.48326 8.46813 2.06456 8.27578 1.60003 8.27578C0.716814 8.27578 0 8.97095 0 9.82749V13.4482C0 14.3047 0.716814 14.9999 1.60003 14.9999C2.17598 14.9999 2.68114 14.7045 2.96268 14.2613L3.70186 14.7393C3.96485 14.9095 4.27367 15 4.58987 15H9.59995C9.70924 15 9.8159 14.9674 9.90554 14.9069L15.4325 11.1607C15.4527 11.1467 15.472 11.1317 15.4901 11.1152C16.1366 10.5322 16.1734 9.54948 15.5717 8.92256C14.9871 8.31272 14.0132 8.26203 13.3652 8.79579C13.3668 8.79428 8.39933 11.3794 8.39933 11.3794H6.1331C5.98596 11.3794 5.86643 11.2635 5.86643 11.1208C5.86643 10.9972 5.9806 10.8622 6.1331 10.8622H7.99981C8.88303 10.8622 9.59984 10.167 9.59984 9.31048C9.59984 8.45394 8.88303 7.75877 7.99981 7.75877H4.76988C4.26427 7.75877 3.43283 8.08563 2.7752 8.77513L2.77552 8.7749ZM2.13338 9.82335C2.13123 9.53991 1.8929 9.31028 1.60003 9.31028C1.30562 9.31028 1.06669 9.542 1.06669 9.82752V13.4482C1.06669 13.7337 1.30562 13.9654 1.60003 13.9654C1.89444 13.9654 2.13338 13.7337 2.13338 13.4482V9.83314V9.82332V9.82335ZM3.20006 13.1715L4.29391 13.8786C4.38141 13.9355 4.48427 13.9655 4.58986 13.9655H9.43202C9.43202 13.9655 14.7856 10.3366 14.7868 10.3354C14.9799 10.1393 14.9842 9.82795 14.7911 9.6267C14.5906 9.41772 14.2524 9.40583 14.0369 9.60037C14.0033 9.63039 13.9659 9.65625 13.9259 9.6775L8.78573 12.3521C8.70787 12.3924 8.62144 12.4137 8.53346 12.4137H6.13341C5.39685 12.4137 4.80005 11.8349 4.80005 11.1206C4.80005 10.5014 5.37018 9.82747 6.13341 9.82747H8.00012C8.29453 9.82747 8.53346 9.59575 8.53346 9.31023C8.53346 9.02471 8.29453 8.79299 8.00012 8.79299H4.77019C4.34933 8.79299 3.62993 9.20471 3.20002 9.95527V13.1716L3.20006 13.1715ZM10.1335 4.13787C9.25032 4.13787 8.5335 4.83304 8.5335 5.68959C8.5335 6.54613 9.25032 7.2413 10.1335 7.2413C11.0168 7.2413 11.7336 6.54613 11.7336 5.68959C11.7336 4.83304 11.0168 4.13787 10.1335 4.13787ZM10.1335 5.17235C10.4279 5.17235 10.6669 5.40407 10.6669 5.68959C10.6669 5.97511 10.4279 6.20683 10.1335 6.20683C9.83912 6.20683 9.60019 5.97511 9.60019 5.68959C9.60019 5.40407 9.83912 5.17235 10.1335 5.17235ZM9.75651 1.18607L5.48976 5.32398C5.28178 5.52567 5.28178 5.85369 5.48976 6.05538C5.69774 6.25708 6.03596 6.25708 6.24394 6.05538L10.5107 1.91748C10.7187 1.71578 10.7187 1.38776 10.5107 1.18607C10.3027 0.984372 9.96448 0.984372 9.75651 1.18607ZM5.86675 0C4.98354 0 4.26672 0.695168 4.26672 1.55171C4.26672 2.40826 4.98354 3.10343 5.86675 3.10343C6.74997 3.10343 7.46679 2.40826 7.46679 1.55171C7.46679 0.695168 6.74997 0 5.86675 0ZM5.86675 1.03448C6.16117 1.03448 6.4001 1.26619 6.4001 1.55171C6.4001 1.83724 6.16117 2.06895 5.86675 2.06895C5.57234 2.06895 5.33341 1.83724 5.33341 1.55171C5.33341 1.26619 5.57234 1.03448 5.86675 1.03448Z" fill="#7E91A6"/>
</svg>
