<svg width="14" height="16" viewBox="0 0 14 16" fill="none" xmlns="http://www.w3.org/2000/svg">
<path d="M3.5471 1.00285V2.00574L9.97926 2.00574C10.4281 2.00574 10.8587 2.18184 11.1762 2.49522C11.4936 2.80877 11.6719 3.23396 11.6719 3.67721L11.6719 12.7032H12.6875C12.9569 12.7032 13.2153 12.5975 13.4057 12.4095C13.5961 12.2215 13.7031 11.9662 13.7031 11.7003L13.7031 1.00287C13.7031 0.736925 13.5961 0.481711 13.4057 0.293703C13.2153 0.105695 12.9568 0 12.6875 0L4.56271 0C4.29339 0 4.03494 0.10566 3.84455 0.293703C3.65415 0.481745 3.54712 0.73696 3.54712 1.00287L3.5471 1.00285Z" fill="#B6C2D0"/>
<path d="M9.97658 2.67433L1.85175 2.67433C1.2909 2.67433 0.836143 3.22815 0.836143 3.67722L0.836143 14.3747C0.836143 14.9285 1.2909 15.3776 1.85175 15.3776L9.97658 15.3776C10.5374 15.3776 10.9922 14.8237 10.9922 14.3747L10.9922 3.67722C10.9922 3.1234 10.5374 2.67433 9.97658 2.67433Z" fill="#B6C2D0"/>
</svg>
