<svg width="20" height="20" viewBox="0 0 20 20" fill="none" xmlns="http://www.w3.org/2000/svg">
<path fillRule="evenodd" clip-rule="evenodd" d="M9.99982 20C7.43831 19.9996 4.87701 19.0236 2.92631 17.0727C-0.975438 13.1713 -0.975438 6.82885 2.92631 2.9271C6.82806 -0.974302 13.1719 -0.976444 17.0737 2.92514C20.9754 6.82654 20.9754 13.1729 17.0737 17.0743C15.1228 19.0253 12.5616 20.0004 9.99982 19.9999V20ZM9.99926 18.758C10.9962 18.758 11.9928 18.5876 12.9432 18.2483L12.4316 17.7362C12.3144 17.619 12.2486 17.46 12.2486 17.2942C12.2486 17.1285 12.3144 16.9696 12.4316 16.8524C12.5488 16.7352 12.7077 16.6694 12.8734 16.6694C13.0392 16.6694 13.1982 16.7352 13.3154 16.8524L14.165 17.702C14.3537 17.5996 14.5393 17.4897 14.7216 17.3724L2.62529 5.2796C2.50839 5.46137 2.39887 5.64638 2.29689 5.83441L3.14649 6.68401C3.26354 6.8012 3.32925 6.95996 3.32925 7.12555C3.32925 7.29113 3.26354 7.45004 3.14649 7.56722C3.02596 7.68887 2.86064 7.7557 2.68932 7.75207C2.5286 7.74761 2.37585 7.68134 2.26271 7.56722L1.75115 7.05565C0.649443 10.1409 1.33387 13.716 3.8082 16.1902C5.52026 17.9021 7.75995 18.758 9.99922 18.758L9.99926 18.758ZM15.7306 16.615C15.887 16.4792 16.0409 16.3389 16.1896 16.1902C16.3385 16.0413 16.478 15.887 16.6139 15.7306L4.26828 3.38431C4.11161 3.52047 3.95704 3.66081 3.80803 3.8098C3.65946 3.95838 3.51953 4.11198 3.38379 4.26809L15.7306 16.615ZM11.5317 16.5942C11.3713 16.5904 11.2186 16.525 11.105 16.4117L10.6619 15.9687C10.5449 15.8515 10.4792 15.6926 10.4792 15.5271C10.4792 15.3615 10.5449 15.2026 10.6619 15.0855C10.7791 14.9683 10.9382 14.9024 11.1039 14.9024C11.2696 14.9024 11.4285 14.9683 11.5457 15.0855L11.9888 15.5262H11.9889C12.1067 15.6435 12.1728 15.8028 12.1728 15.9689C12.1728 16.1351 12.1067 16.2944 11.9889 16.4117C11.8678 16.5325 11.7027 16.5985 11.5317 16.5942H11.5317ZM9.76473 14.8248C9.60346 14.8216 9.44972 14.7562 9.33559 14.6423L8.89488 14.1993C8.77783 14.0821 8.71212 13.9232 8.71212 13.7576C8.71212 13.592 8.77783 13.4332 8.89488 13.3161C9.01206 13.1989 9.17097 13.133 9.3367 13.133C9.50257 13.133 9.66147 13.1989 9.77866 13.3161L10.2212 13.7591C10.3382 13.8763 10.4039 14.0352 10.4039 14.2008C10.4039 14.3664 10.3382 14.5252 10.2212 14.6423C10.1004 14.763 9.93534 14.8289 9.76473 14.8248ZM17.3725 14.7205C17.4898 14.538 17.5998 14.3526 17.7022 14.1638L16.8543 13.3161C16.7371 13.1989 16.6712 13.0398 16.6712 12.8741C16.6712 12.7084 16.7371 12.5495 16.8543 12.4323C16.9714 12.3152 17.1302 12.2495 17.2958 12.2495C17.4614 12.2495 17.6203 12.3152 17.7375 12.4323L18.2478 12.9426C19.3486 9.8578 18.6634 6.28372 16.1896 3.80981C13.7157 1.33604 10.1415 0.65094 7.05649 1.75164L7.56862 2.26378H7.56848C7.68567 2.38097 7.75138 2.53987 7.75138 2.7056C7.75138 2.87133 7.68567 3.03038 7.56848 3.14756C7.44739 3.26796 7.28249 3.33366 7.11188 3.32948C6.95075 3.32641 6.79701 3.26126 6.68274 3.14756L5.83314 2.29796C5.64509 2.39994 5.46011 2.50946 5.27833 2.62636L17.3725 14.7205ZM7.9951 13.0578C7.83439 13.0533 7.68163 12.9871 7.5685 12.873L7.12529 12.4322C7.00754 12.3149 6.94142 12.1556 6.94142 11.9895C6.94142 11.8233 7.00755 11.6639 7.12529 11.5467C7.24247 11.4295 7.40152 11.3636 7.56725 11.3636C7.73298 11.3636 7.89188 11.4295 8.00907 11.5467L8.45228 11.9898C8.56918 12.1069 8.63503 12.2657 8.63503 12.4313C8.63503 12.5969 8.56918 12.7558 8.45228 12.873C8.3316 12.9946 8.16643 13.0614 7.9951 13.0578ZM15.9765 12.1722C15.9692 12.1722 15.9618 12.1719 15.9546 12.1716C15.794 12.1682 15.6411 12.103 15.5272 11.9897L15.0847 11.5467C14.9675 11.4295 14.9017 11.2704 14.9017 11.1047C14.9017 10.939 14.9675 10.7801 15.0847 10.6629C15.2019 10.5458 15.3608 10.4801 15.5264 10.4801C15.692 10.4801 15.8507 10.5458 15.9679 10.6629L16.411 11.1059H16.4111C16.5283 11.2231 16.5942 11.382 16.5942 11.5479C16.5942 11.7136 16.5283 11.8725 16.4111 11.9897C16.2956 12.105 16.1396 12.1704 15.9764 12.1722L15.9765 12.1722ZM6.22583 11.2884C6.06554 11.2847 5.91278 11.2192 5.79923 11.106L5.35602 10.6629C5.23911 10.5457 5.1734 10.3868 5.1734 10.2212C5.1734 10.0556 5.23911 9.89685 5.35602 9.77968C5.47335 9.66179 5.6328 9.59538 5.79923 9.59538C5.96552 9.59538 6.12498 9.66179 6.2423 9.77968L6.68301 10.2204C6.80075 10.3376 6.86702 10.497 6.86702 10.6632C6.86702 10.8293 6.80075 10.9886 6.68301 11.106C6.56206 11.2268 6.39674 11.2928 6.22583 11.2884ZM14.185 10.4046C14.0242 10.4005 13.8712 10.3345 13.7577 10.2204L13.3152 9.77965C13.1975 9.66232 13.1313 9.503 13.1313 9.33686C13.1313 9.17071 13.1975 9.01139 13.3152 8.89408C13.4324 8.77704 13.5913 8.71133 13.7569 8.71133C13.9225 8.71133 14.0812 8.77703 14.1984 8.89408L14.6415 9.33661C14.7587 9.4538 14.8245 9.6127 14.8245 9.77843C14.8245 9.94416 14.7587 10.1032 14.6415 10.2204C14.5209 10.3416 14.356 10.4083 14.185 10.4047L14.185 10.4046ZM4.45871 9.51905C4.29744 9.51584 4.1437 9.45041 4.02957 9.33657L3.58886 8.89404C3.47167 8.77685 3.40582 8.61781 3.40582 8.45208C3.40582 8.28634 3.47167 8.12745 3.58886 8.01026C3.70604 7.89307 3.86508 7.82723 4.03082 7.82723C4.19655 7.82723 4.35545 7.89307 4.47263 8.01026L4.91584 8.45333C5.03289 8.57051 5.0986 8.72928 5.0986 8.89486C5.0986 9.06046 5.03289 9.21935 4.91584 9.33654C4.79475 9.45735 4.62958 9.5232 4.45867 9.51901L4.45871 9.51905ZM12.4376 8.63584C12.4302 8.63584 12.4229 8.63556 12.4155 8.63528C12.2554 8.63152 12.1026 8.56651 11.9889 8.45336L11.5482 8.01029C11.431 7.89311 11.3652 7.73407 11.3652 7.56833C11.3652 7.4026 11.431 7.2437 11.5482 7.12652C11.6654 7.00947 11.8243 6.94376 11.9899 6.94376C12.1555 6.94376 12.3142 7.00947 12.4314 7.12652L12.8721 7.56723V7.56709C12.99 7.68441 13.0564 7.84387 13.0564 8.0103C13.0564 8.17659 12.99 8.33605 12.8721 8.45337C12.7566 8.5686 12.6006 8.63403 12.4376 8.63584L12.4376 8.63584ZM10.6704 6.86646C10.6632 6.86632 10.6559 6.86618 10.6485 6.86576C10.4881 6.86228 10.3351 6.79713 10.2214 6.68399L9.77883 6.24092L9.77869 6.24078C9.66178 6.12359 9.59593 5.96483 9.59593 5.79925C9.59593 5.63366 9.66178 5.47489 9.77869 5.35771C9.89587 5.24067 10.0548 5.17496 10.2204 5.17496C10.386 5.17496 10.5447 5.24067 10.6619 5.35771L11.105 5.80025H11.1051C11.2223 5.91743 11.288 6.07633 11.288 6.24207C11.288 6.4078 11.2223 6.56684 11.1051 6.68403C10.9896 6.79926 10.8336 6.86469 10.6704 6.8665L10.6704 6.86646ZM8.87902 5.0989C8.71845 5.09458 8.56569 5.02859 8.45242 4.91461L8.00921 4.4739C7.89203 4.35672 7.82631 4.19768 7.82631 4.03194C7.82631 3.86621 7.89202 3.70731 8.00921 3.59012C8.12654 3.47238 8.28585 3.40611 8.45213 3.40611C8.61829 3.40611 8.77761 3.47238 8.89492 3.59012L9.33563 4.03083C9.45281 4.14802 9.51866 4.30692 9.51866 4.47265C9.51866 4.63838 9.45281 4.79729 9.33563 4.91461C9.21509 5.03584 9.05005 5.10253 8.87902 5.0989Z" fill="#B6C2D0"/>
</svg>
