<svg width="37" height="37" viewBox="0 0 37 37" fill="none" xmlns="http://www.w3.org/2000/svg">
<path d="M29.4315 15.1364C33.6045 15.1364 36.9996 11.7417 36.9996 7.56818C36.9996 3.39468 33.605 0 29.4315 0C25.258 0 21.8633 3.39468 21.8633 7.56818C21.8633 11.7417 25.258 15.1364 29.4315 15.1364ZM23.6799 10.2397V4.89732C23.6799 4.56785 23.8591 4.26351 24.1467 4.10348L28.9901 1.41282C29.2669 1.25903 29.5955 1.25903 29.8723 1.41282L34.7157 4.10348C35.0038 4.26322 35.1825 4.56782 35.1825 4.89732V10.2391C35.1825 10.5686 35.0033 10.8729 34.7157 11.033L29.8723 13.7236C29.7336 13.8004 29.5823 13.8388 29.4309 13.8388C29.2796 13.8388 29.1282 13.8006 28.9896 13.7236L24.1461 11.033C23.858 10.8732 23.6794 10.5686 23.6794 10.2391L23.6799 10.2397Z" fill="#b6c2d0"/>
<path d="M10.0437 13.6664C10.1211 13.7519 10.1979 13.7885 10.2812 13.7909C10.3615 13.7919 10.4437 13.7628 10.5031 13.7035L13.8442 10.6742C13.9646 10.5527 13.9167 10.4015 13.8988 10.3582C13.8808 10.3152 13.8078 10.1733 13.6217 10.1733H12.4224C11.9267 10.1733 11.523 9.77045 11.523 9.27567V7.21454C11.523 4.55635 13.6894 2.39372 16.3535 2.39372H20.2177C20.3826 2.39372 20.5175 2.25961 20.5175 2.09451V0.299215C20.5175 0.13411 20.3826 0 20.2177 0H15.4206C11.9486 0 9.12448 2.8185 9.12448 6.28352V9.27567C9.12448 9.77045 8.7208 10.1733 8.22503 10.1733H7.02686C6.84751 10.1733 6.77256 10.308 6.75408 10.3486C6.73561 10.3892 6.68342 10.5348 6.80146 10.6694L10.043 13.6658L10.0437 13.6664Z" fill="#b6c2d0"/>
<path d="M0.00665792 27.3638C-0.0281882 27.5253 0.0774374 27.6918 0.237241 27.7256L5.71818 28.9273L0.255501 26.2364L0.00667866 27.364L0.00665792 27.3638Z" fill="#b6c2d0"/>
<path d="M2.92151 15.815C2.75436 15.7828 2.5844 15.8847 2.54388 16.0462L1.3457 21.1909L4.03661 16.0467L2.92092 15.815L2.92151 15.815Z" fill="#b6c2d0"/>
<path d="M27.6839 21.291L14.8008 18.5L27.2574 24.5545L27.9111 21.6372C27.9291 21.561 27.916 21.4854 27.8738 21.421C27.8306 21.3543 27.7628 21.3081 27.6839 21.291L27.6839 21.291Z" fill="#b6c2d0"/>
<path d="M23.2136 28.3693H25.749L26.5721 26.6955L6.08305 16.4818L2.01758 24.7736L22.5066 34.9818L23.9671 32.0023H23.2132C22.7164 32.0023 22.312 31.5947 22.312 31.094V29.2773C22.312 28.7766 22.7164 28.3689 23.2132 28.3689L23.2136 28.3693ZM17.1361 27.1489C16.7606 27.9143 16.1123 28.486 15.3104 28.7591C14.977 28.8729 14.6334 28.9292 14.292 28.9292C13.8108 28.9292 13.3326 28.8172 12.8893 28.5961C12.1299 28.2176 11.5627 27.5642 11.2918 26.7558C11.0204 25.9475 11.078 25.0803 11.4535 24.316C11.8285 23.5506 12.4773 22.9789 13.2792 22.7053C14.0812 22.4323 14.941 22.4904 15.6998 22.8683C17.2666 23.6488 17.9111 25.569 17.1369 27.1492L17.1361 27.1489Z" fill="#b6c2d0"/>
<path d="M15.414 23.4715C15.0613 23.297 14.6812 23.2091 14.2985 23.2091C14.0266 23.2091 13.7536 23.2538 13.4884 23.3436C12.8503 23.5594 12.3344 24.011 12.0362 24.6145C11.7372 25.2177 11.6919 25.902 11.9078 26.54C12.1236 27.178 12.5753 27.6938 13.1783 27.992C13.7807 28.2902 14.4648 28.3363 15.1044 28.1205C15.7425 27.9046 16.2583 27.453 16.5566 26.8501C16.8548 26.2463 16.9003 25.562 16.685 24.924C16.4692 24.2861 16.0175 23.7702 15.414 23.472V23.4715Z" fill="#b6c2d0"/>
<path d="M36.9246 20.5827L33.5854 17.6191C33.5037 17.5315 33.4259 17.4948 33.3398 17.4924C33.252 17.4828 33.1733 17.5205 33.1125 17.58L29.7074 20.5785C29.5841 20.6995 29.6337 20.852 29.6521 20.8954C29.6704 20.9385 29.7453 21.0807 29.9358 21.0807H31.1641C31.6719 21.0807 32.0854 21.4847 32.0854 21.9808V24.3367C32.0854 26.843 29.9991 28.8816 27.4337 28.8816H23.1801C23.0112 28.8816 22.873 29.0166 22.873 29.1816V30.9818C22.873 31.1468 23.0112 31.2818 23.1801 31.2818H28.0934C31.6494 31.2818 34.542 28.4556 34.542 24.9812V21.9808C34.542 21.4847 34.9555 21.0807 35.4632 21.0807H36.6927C36.8764 21.0807 36.9531 20.9457 36.9721 20.9042C36.991 20.8635 37.0444 20.7175 36.9241 20.5825L36.9246 20.5827Z" fill="#b6c2d0"/>
<path d="M23.0091 35.6653C22.9733 35.7373 22.9106 35.7915 22.8342 35.8174C22.8027 35.8282 22.7699 35.833 22.7371 35.833C22.691 35.833 22.6449 35.8223 22.6023 35.8018L1.34226 25.3497C1.1923 25.2761 1.1302 25.0949 1.2045 24.9449L5.58397 16.1313C5.61977 16.0593 5.68241 16.0051 5.75888 15.9792C5.83481 15.9533 5.9186 15.9592 5.99101 15.9943L27.2511 26.4518C27.3235 26.4874 27.3785 26.5498 27.404 26.6258C27.43 26.7019 27.4241 26.7852 27.3888 26.8567L26.5555 28.5296H27.5293L28.557 26.4624C28.5947 26.3868 28.6015 26.303 28.5747 26.2261C28.5492 26.1525 28.4958 26.0926 28.4247 26.0594L5.59434 14.832C5.44682 14.7565 5.26324 14.8193 5.18541 14.9704L0.0301002 25.3402C-0.00515228 25.4109 -0.00949133 25.4923 0.017355 25.5687C0.0433877 25.6431 0.0976193 25.7035 0.168671 25.7367L22.9997 36.9703C23.1472 37.0423 23.3314 36.9787 23.4073 36.8285L25.7296 32.1547H24.7547L23.0103 35.666L23.0091 35.6653Z" fill="#b6c2d0"/>
<path fillRule="evenodd" clip-rule="evenodd" d="M29.1186 13.0805L24.37 10.4443V10.4438C24.2756 10.3916 24.2168 10.2918 24.2168 10.1845V4.95092C24.2168 4.84341 24.2756 4.74384 24.37 4.69168L29.1186 2.05553C29.1637 2.03063 29.213 2.01819 29.2623 2.01819C29.3115 2.01819 29.3608 2.03063 29.4059 2.05553L34.1545 4.69168C34.2489 4.74384 34.3077 4.84368 34.3077 4.95092V10.1851C34.3077 10.2926 34.2489 10.3921 34.1545 10.4443L29.4059 13.0805C29.3158 13.1308 29.2087 13.1308 29.1186 13.0805ZM32.8236 5.4919C32.6598 5.4919 32.5268 5.62483 32.5268 5.78848V8.16113C32.5268 8.32478 32.6598 8.45771 32.8236 8.45771C32.9874 8.45771 33.1204 8.32478 33.1204 8.16113V5.78848C33.1204 5.62483 32.9874 5.4919 32.8236 5.4919ZM26.8557 6.04801V8.94617C26.8697 9.16714 26.8149 9.29041 26.6547 9.26599H26.1559L26 10.0219H27.118V11H27.7501V10.0219H28.2457V11H28.8778V10.0091C29.1982 9.99751 29.525 9.9789 29.6583 9.96378C31.2353 9.78352 31.5116 7.46453 30.0066 7.26217C30.2098 7.16564 30.3635 7.0319 30.4678 6.8435C30.5731 6.65509 30.6247 6.51786 30.6247 6.2841C30.6247 6.105 30.5871 5.92358 30.5161 5.75611C30.2603 5.14903 29.8604 5.04785 29.2852 5.0118C29.1584 5.00365 29.0186 4.99668 28.8789 4.99203V4H28.2468V4.9804H27.7512V4H27.1191V4.9804H26.0011V5.76192H26.5203C26.7375 5.75378 26.8718 5.82588 26.8557 6.04801ZM28.8778 5.8945V7.0319C29.6303 6.83535 29.5809 6.105 28.8778 5.8945ZM28.8778 9.13923V7.73085C28.967 7.74132 29.0444 7.75527 29.1111 7.77156C30.0227 7.9902 29.8464 8.95431 29.0842 9.10899C29.0262 9.12062 28.9574 9.13108 28.8778 9.13923ZM28.2457 7.70527V9.16481H27.9866V7.70527H28.2457ZM28.2457 5.83751V7.08191H27.9866V5.83751H28.2457Z" fill="#b6c2d0"/>
</svg>
