<svg width="21" height="20" viewBox="0 0 21 20" fill="none" xmlns="http://www.w3.org/2000/svg">
<path d="M13.8193 12.8266C13.8193 13.1641 13.9515 13.4877 14.1866 13.7262C14.4217 13.9647 14.7407 14.0988 15.0733 14.0988H17.9994V11.5544H15.0733C14.7407 11.5544 14.4217 11.6885 14.1866 11.9272C13.9515 12.1657 13.8193 12.4893 13.8193 12.8266Z" fill="#5E7085"/>
<path d="M4.73406 6.6244C5.1161 6.8828 5.56199 7.03364 6.00788 7.01199L10.1688 6.81819C10.3598 6.81819 10.5297 6.73211 10.657 6.58128C10.7844 6.43045 10.8481 6.25829 10.8269 6.06435C10.8057 5.74136 10.5722 5.46132 10.2537 5.39675L10.0838 5.35364C9.19218 5.18132 8.30059 5.07361 7.38766 5.05213L6.55972 5.03064C6.43237 5.03064 6.3262 4.96605 6.22002 4.87981C6.13517 4.79373 6.09267 4.66438 6.09267 4.53519C6.09267 4.40599 6.15635 4.29828 6.24135 4.19057C6.3262 4.10448 6.4537 4.06137 6.58105 4.06137L7.36649 4.08285C8.36426 4.10433 9.34072 4.21205 10.3173 4.42747L10.4235 4.44896C11.1453 4.59979 11.6973 5.20282 11.7397 5.9565V6.15029L14.3296 6.94712C14.6268 7.0332 14.9666 6.94712 15.1787 6.7102C15.3486 6.53789 15.4123 6.30097 15.3911 6.06406C15.3699 5.82715 15.2637 5.61171 15.0727 5.46103L9.95649 1.49864C9.46825 1.13253 8.87384 0.960219 8.27946 1.02483L5.13743 1.36945C4.9464 1.39094 4.75538 1.32634 4.6067 1.21862L3.65142 0.464756C3.43907 0.292443 3.14189 0.313926 2.95086 0.507872L0.721763 2.76943C0.488235 3.00634 0.530735 3.37246 0.785439 3.58787L4.73406 6.6244Z" fill="#5E7085"/>
<path d="M3.62992 8.6487V13.7529H4.62769L4.62754 10.3286C5.3281 10.1994 5.85883 9.66101 5.98621 8.95026H14.1807C14.308 9.66097 14.8387 10.1994 15.5393 10.3286V13.7529H16.5371V8.6487C16.5371 8.26112 16.2187 7.93799 15.8365 7.93799H4.33033C3.94828 7.93799 3.62988 8.26098 3.62988 8.6487H3.62992Z" fill="#5E7085"/>
<path d="M7.64258 12.0515C7.64258 12.6977 7.89728 13.3007 8.30064 13.7529H11.8671C12.2705 13.3005 12.5251 12.7191 12.5251 12.0515C12.5251 10.6732 11.4212 9.55322 10.0839 9.55322C8.72519 9.57471 7.64258 10.6947 7.64258 12.0515Z" fill="#5E7085"/>
<path d="M19.6582 10.307H17.3442V11.9008H18.0023C18.3207 11.9008 18.5967 12.1592 18.5967 12.5038V14.0545C18.5967 14.3775 18.342 14.6575 18.0023 14.6575L2.14411 14.6574C1.82573 14.6574 1.54969 14.399 1.54969 14.0543V12.5037C1.54969 12.1807 1.80439 11.9006 2.14411 11.9006H2.80217V10.3069L0.509538 10.307C0.233513 10.307 0 10.5439 0 10.824V19.2018C0 19.4818 0.233528 19.7187 0.509538 19.7187H19.6795C19.9555 19.7187 20.189 19.4818 20.189 19.2018L20.1889 10.8024C20.1677 10.5224 19.9342 10.3071 19.6581 10.3071L19.6582 10.307Z" fill="#5E7085"/>
<path d="M14.0105 11.3623C13.6284 11.3623 13.3311 11.6638 13.3311 12.0516C13.3311 12.4391 13.6283 12.7408 14.0105 12.7408C14.3925 12.7408 14.6899 12.4393 14.6899 12.0516C14.6897 11.6638 14.3925 11.3623 14.0105 11.3623Z" fill="#5E7085"/>
<path d="M5.47656 12.0516C5.47656 12.4391 5.77376 12.7408 6.15597 12.7408C6.53802 12.7408 6.83538 12.4393 6.83538 12.0516C6.83538 11.664 6.53818 11.3623 6.15597 11.3623C5.77377 11.3623 5.47656 11.6638 5.47656 12.0516Z" fill="#5E7085"/>
</svg>
