<svg xmlns="http://www.w3.org/2000/svg" width="21" height="21" viewBox="0 0 21 21" fill="none">
    <path fill-rule="evenodd" clip-rule="evenodd" d="M5.557 5.78673C5.8675 6.06657 6.16801 6.31215 6.44773 6.51902C6.50769 6.56337 6.5667 6.60593 6.62464 6.64668C7.42568 7.20992 8.02383 7.42476 8.13803 7.17496C8.2592 6.90988 8.2718 6.56456 8.23025 6.22579C8.2196 6.13892 8.20539 6.05248 8.18853 5.96793C8.10451 5.54648 7.95484 5.17211 7.85322 5.02615C7.79965 4.94921 7.75944 4.93574 7.74923 5.01228C7.70407 5.35102 7.49101 5.43782 7.12969 5.58502C7.10563 5.59482 7.08091 5.60489 7.05554 5.61532C7.05194 5.6168 7.04834 5.61828 7.04471 5.61978C6.34605 5.15596 5.82185 4.73897 5.43237 4.36949C4.99863 3.95803 4.73196 3.60548 4.57746 3.31277C4.2965 2.78046 4.3865 2.44606 4.5173 2.31515C4.78459 2.04761 6.17048 0.90577 7.31257 0.93007C8.04861 0.94573 8.48171 1.33482 8.91778 1.72659C9.15834 1.94271 9.39981 2.15965 9.69354 2.31515C10.4151 2.69714 11.8604 2.87514 12.571 2.96266C12.6741 2.97535 12.7617 2.98614 12.8294 2.99538C12.8652 3.00026 12.9031 3.00525 12.9428 3.01049C13.4957 3.08332 14.4002 3.20249 14.967 3.72394C15.5745 4.28283 17.0811 5.25482 18.3935 5.44956C18.6052 5.48097 18.8353 5.51128 19.0677 5.54191C19.988 5.66316 20.9453 5.78929 20.9453 6.00792C20.9453 6.72317 20.0911 7.35034 18.6595 8.26844C17.216 9.19415 15.7723 9.09036 14.1443 8.97331C13.1554 8.9022 12.0984 8.82621 10.9322 8.97314C7.84612 9.36193 6.72833 13.3471 6.72833 17.0892C6.72833 20.8005 6.53713 20.855 6.03621 20.9979L6.02364 21.0015C4.03106 20.6856 1.3824 17.5752 0.945312 16.7004C1.12322 12.2331 3.10208 7.95825 4.18729 5.98296C4.38382 5.62524 4.55104 5.34294 4.67295 5.14856C4.7054 5.09683 4.73464 5.05132 4.76037 5.01228C5.02869 5.2928 5.29637 5.55183 5.557 5.78673ZM5.00709 6.75304C3.98327 8.67099 2.28538 12.4679 2.04813 16.4272C2.31219 16.8196 2.8949 17.5472 3.65421 18.2755C4.10495 18.7078 4.58343 19.1063 5.04592 19.4084C5.23428 19.5315 5.40927 19.6314 5.56952 19.71C5.61356 19.2334 5.64046 18.4347 5.64046 17.0892C5.64046 15.132 5.92974 13.0353 6.67715 11.3358C7.42823 9.62782 8.73162 8.1539 10.7962 7.8938C12.0808 7.73196 13.2894 7.81948 14.294 7.89224C14.5931 7.91389 14.874 7.93424 15.1336 7.94631C16.312 8.00114 17.1967 7.9142 18.0722 7.35271C18.4997 7.07853 18.8465 6.84826 19.1231 6.64653C19.0707 6.63961 19.0178 6.63269 18.9644 6.62571C18.7304 6.59508 18.4877 6.56332 18.2339 6.52565C17.4002 6.40195 16.5676 6.04614 15.894 5.67779C15.2161 5.30708 14.6116 4.87516 14.2305 4.52454C14.113 4.41648 13.9068 4.31186 13.5938 4.2294C13.3262 4.15893 13.0668 4.12447 12.8083 4.09014C12.7663 4.08456 12.7244 4.07899 12.6824 4.07327C12.6309 4.06625 12.5568 4.05713 12.4653 4.04587C12.164 4.0088 11.6745 3.94858 11.1853 3.86388C10.5724 3.75779 9.76632 3.5846 9.18454 3.2766C8.87377 3.11208 8.62222 2.9126 8.42446 2.74263C8.30384 2.63895 8.22883 2.57083 8.16329 2.5113C8.09004 2.44478 8.02862 2.389 7.92855 2.30631C7.67407 2.09603 7.51638 2.02252 7.28943 2.0177C7.03872 2.01236 6.62914 2.15439 6.14957 2.44422C5.91851 2.58386 5.71587 2.73027 5.56394 2.8491C5.72105 3.12166 6.10495 3.58856 6.96326 4.2327C6.97981 4.21469 6.99729 4.19684 7.01577 4.17925C7.1979 4.00586 7.4479 3.88674 7.73208 3.87438C7.98986 3.86317 8.18967 3.9432 8.30519 4.00441C8.5163 4.11627 8.64233 4.26959 8.68539 4.32332C8.74576 4.39866 8.79255 4.47296 8.82636 4.53129C8.95474 4.75279 9.06799 5.0448 9.15216 5.3339C9.23929 5.63318 9.31458 5.9954 9.33447 6.36916C9.35359 6.72837 9.32691 7.19087 9.12742 7.62725C8.92812 8.06323 8.54446 8.27658 8.20663 8.3409C7.91639 8.39616 7.65333 8.3489 7.48135 8.30433C7.12501 8.21199 6.75053 8.01969 6.40521 7.80576C5.9809 7.54291 5.50316 7.18582 5.00709 6.75304ZM5.47501 2.65182C5.47574 2.65214 5.47799 2.65922 5.47955 2.6721C5.47506 2.65794 5.47428 2.6515 5.47501 2.65182ZM20.3621 6.86362C20.362 6.86365 20.3596 6.86276 20.3551 6.86086C20.36 6.86264 20.3623 6.86359 20.3621 6.86362ZM19.8632 5.96007C19.8637 5.95851 19.864 5.95772 19.8641 5.95771C19.8641 5.95771 19.8639 5.95849 19.8632 5.96007ZM5.48677 20.2238C5.48675 20.2238 5.4872 20.2225 5.48818 20.2202C5.48728 20.2227 5.48679 20.2238 5.48677 20.2238ZM8.82288 5.18899C8.82534 5.17425 8.8266 5.16388 8.82723 5.15871C8.82737 5.15757 8.82748 5.15668 8.82756 5.15606C8.8261 5.167 8.82455 5.17798 8.82288 5.18899Z" fill="#B6C2D0"/>
</svg>