<svg width="10" height="12" viewBox="0 0 10 12" fill="none" xmlns="http://www.w3.org/2000/svg">
<path d="M0.703578 9.1219L3.80532 8.27253C3.87101 8.25376 3.93202 8.21856 3.98129 8.16929L8.98131 3.16927C9.45291 2.69767 9.45291 1.93276 8.98131 1.46116L7.87385 0.3537C7.40225 -0.1179 6.63734 -0.1179 6.16574 0.3537L1.16572 5.35372C1.11645 5.40299 1.08125 5.464 1.06248 5.52969L0.213114 8.63379C0.175573 8.77222 0.21546 8.92005 0.316351 9.02094C0.391433 9.09602 0.49467 9.13825 0.597908 9.13825C0.633102 9.13591 0.668296 9.13121 0.703492 9.12183L0.703578 9.1219ZM2.01751 5.63295L5.45712 2.19334L7.14412 3.88035L3.70451 7.31995L2.01751 5.63295ZM6.73115 0.916953C6.8907 0.757404 7.15114 0.757404 7.3107 0.916953L8.41815 2.02441C8.5777 2.18396 8.5777 2.4444 8.41815 2.60396L7.70721 3.3149L6.02021 1.62789L6.73115 0.916953ZM1.65369 6.39793L2.93947 7.68371L1.16801 8.16941L1.65369 6.39793Z" fill="#1FBF75"/>
<path d="M9.60112 10.504H0.398878C0.17833 10.504 0 10.6823 0 10.9029C0 11.1235 0.178319 11.3018 0.398878 11.3018H9.60112C9.82167 11.3018 10 11.1235 10 10.9029C10 10.6823 9.82168 10.504 9.60112 10.504Z" fill="#1FBF75"/>
</svg>
