<svg width="19" height="17" viewBox="0 0 19 17" fill="none" xmlns="http://www.w3.org/2000/svg">
<path d="M18.2294 16.9701L15.6151 16.1032C15.4678 16.0555 15.3074 16.0687 15.1702 16.14C13.8524 16.8072 12.3516 17.0278 10.896 16.7685C9.44047 16.5091 8.11002 15.7839 7.10705 14.7031C7.52842 14.6945 7.94862 14.6539 8.36379 14.5819C9.94336 14.2957 11.3992 13.5414 12.5401 12.4176C13.6809 11.2938 14.4536 9.85325 14.7568 8.28481C15.0482 6.74538 14.8823 5.15486 14.2794 3.70778C16.1519 4.33827 17.6553 5.74929 18.3968 7.57221C19.1385 9.39495 19.0448 11.4489 18.1402 13.1976C18.0673 13.3346 18.0535 13.4952 18.1018 13.6426L18.9701 16.2334H18.9699C19.0401 16.4427 18.9854 16.6734 18.8285 16.8295C18.6717 16.9854 18.4396 17.0398 18.2294 16.9701L18.2294 16.9701ZM8.15117 13.4012L8.151 13.401C6.6813 13.6719 5.16295 13.4541 3.82985 12.7812C3.69262 12.7099 3.53221 12.6966 3.38497 12.7444L0.770762 13.6112C0.56033 13.681 0.328402 13.6264 0.171486 13.4705C0.0147455 13.3144 -0.0401109 13.0837 0.030087 12.8744L0.898331 10.2837H0.898163C0.946519 10.1362 0.932679 9.97566 0.859812 9.83867C-0.0134253 8.1428 -0.126331 6.15904 0.548832 4.37587C1.22379 2.59279 2.62429 1.17612 4.4053 0.474637C6.18614 -0.226842 8.18207 -0.147862 9.90119 0.692257C11.6205 1.53221 12.9032 3.05521 13.4338 4.8861C13.9643 6.71696 13.6931 8.68552 12.6872 10.3069C11.6812 11.9282 10.0339 13.052 8.15087 13.401L8.15117 13.4012ZM6.06136 5.08536C6.06136 4.89345 6.1324 4.70834 6.26096 4.56537C6.38935 4.42222 6.56626 4.33116 6.75787 4.30927C6.94946 4.28754 7.14238 4.33664 7.29995 4.44711C7.45752 4.55774 7.56874 4.72212 7.61242 4.90889C7.65594 5.09582 7.6291 5.29204 7.53656 5.46039C7.44418 5.62891 7.29278 5.75746 7.11102 5.82198C6.78221 5.94472 6.49941 6.16533 6.30096 6.45378C6.10271 6.74223 5.99866 7.08456 6.00282 7.4339V7.73727C6.00282 8.03733 6.16373 8.3145 6.42502 8.46461C6.68614 8.61455 7.00795 8.61455 7.26906 8.46461C7.53018 8.3145 7.69109 8.03735 7.69109 7.73727L7.67858 7.40371C8.47861 7.12306 9.0769 6.45263 9.26182 5.62907C9.44674 4.80568 9.19229 3.94552 8.58853 3.353C8.12999 2.87946 7.49486 2.61573 6.8339 2.62435C6.18041 2.62916 5.55531 2.8904 5.0946 3.35135C4.63371 3.81215 4.37443 4.43528 4.37311 5.08534C4.37311 5.3854 4.53402 5.66258 4.79514 5.81251C5.05626 5.96245 5.37807 5.96245 5.63918 5.81251C5.90047 5.66257 6.06137 5.38538 6.06137 5.08534L6.06136 5.08536ZM7.70479 10.2883H7.70463C7.70463 10.062 7.61425 9.84506 7.45351 9.68502C7.29277 9.52513 7.0745 9.43522 6.84706 9.43522C6.61963 9.43522 6.4015 9.52513 6.24079 9.68502C6.07988 9.84508 5.98967 10.062 5.98967 10.2883C5.98967 10.5145 6.07988 10.7315 6.24079 10.8914C6.40153 11.0514 6.61963 11.1413 6.84706 11.1413C7.0745 11.1413 7.29275 11.0514 7.45351 10.8914C7.61442 10.7315 7.70463 10.5145 7.70463 10.2883H7.70479Z" fill="#B6C2D0"/>
</svg>
