<svg xmlns="http://www.w3.org/2000/svg" width="22" height="25" viewBox="0 0 22 25" fill="none">
    <path d="M3.82216 19.3004L3.82199 19.3002C2.30784 17.0656 2.10519 15.1158 2.25407 13.7477C2.32927 13.0567 2.49557 12.5037 2.64016 12.1286C2.71235 11.9413 2.77875 11.7994 2.82488 11.7079C2.84792 11.6622 2.86583 11.6292 2.87678 11.6097L2.88772 11.5905C2.88797 11.5901 2.88818 11.5897 2.88834 11.5894C2.88859 11.589 2.88875 11.5887 2.88882 11.5886C2.88887 11.5885 2.88887 11.5885 2.88883 11.5886L3.39707 10.7586L2.46006 10.4812C2.23997 10.416 2.02812 10.4323 1.88145 10.4555C1.81973 10.4652 1.75819 10.4782 1.69763 10.4933C2.3168 9.65283 3.13306 8.86199 3.95881 8.18134C4.64992 7.61168 5.3142 7.14604 5.80606 6.82279C6.05152 6.66147 6.25284 6.5364 6.39157 6.45236C6.46091 6.41036 6.51452 6.37865 6.5501 6.35785L6.58962 6.33492L6.59866 6.32973L6.60028 6.32881L6.60041 6.32873L6.60049 6.32869L6.60058 6.32864L8.01239 5.52946L6.48857 4.97181C6.48267 4.96965 6.47676 4.96753 6.47082 4.96545C7.87523 4.17135 9.275 3.86554 10.4481 3.78155C11.3114 3.71974 12.049 3.77867 12.5676 3.8524C12.8264 3.8892 13.0293 3.92947 13.1642 3.95963C13.2317 3.9747 13.282 3.98721 13.3137 3.99544C13.3296 3.99956 13.3408 4.0026 13.3472 4.00436L13.3521 4.00573L13.3526 4.00587L13.3529 4.00598L13.353 4.006L13.3532 4.00605L14.1559 4.24106L14.299 3.4265C14.3014 3.42068 14.3136 3.39059 14.3512 3.33402C14.4044 3.25393 14.4867 3.15329 14.6008 3.03488C14.7817 2.84725 15.0114 2.64682 15.2589 2.44982L16.1094 2.70419C16.0987 3.06781 16.115 3.43374 16.1417 3.76286C16.1734 4.15397 16.2208 4.50619 16.26 4.76025C16.2797 4.88769 16.2975 4.99145 16.3106 5.06426C16.3172 5.10069 16.3225 5.12944 16.3264 5.1496L16.3309 5.17333L16.3323 5.18016L16.3327 5.18229L16.3328 5.18302L16.3329 5.18331C16.3329 5.18343 16.3329 5.18354 17.0684 5.03654L16.3329 5.18354L16.3774 5.40609L16.5378 5.56663C16.8003 5.82929 17.113 6.30435 17.4439 6.93236C17.7668 7.54527 18.0784 8.24803 18.3523 8.9199C18.6254 9.58997 18.8568 10.2192 19.0201 10.6815C19.1016 10.9123 19.1659 11.1008 19.2096 11.231C19.2314 11.2961 19.2481 11.3466 19.2593 11.3805L19.2718 11.4186L19.2748 11.4279L19.2754 11.43L19.2756 11.4304L19.2756 11.4304L19.2756 11.4304L19.3094 11.5354L19.372 11.6263L19.958 12.4759L19.958 12.476L19.9608 12.4799C20.2069 12.8318 20.304 13.3231 20.2523 13.7834C20.1954 14.2897 19.9998 14.4983 19.9535 14.5233L19.9528 14.5237C19.3426 14.8531 18.963 14.899 18.7513 14.8761C18.5609 14.8556 18.4365 14.7728 18.334 14.6505C18.2188 14.513 18.1369 14.3279 18.0846 14.1507C18.0598 14.0665 18.0445 13.9939 18.0357 13.9447C18.0313 13.9203 18.0287 13.9024 18.0274 13.8925L18.0264 13.8848L18.0263 13.884L17.9676 13.2875L17.3671 13.2177C16.4634 13.1126 15.6136 12.5395 14.9463 11.9095C14.6219 11.6032 14.3613 11.3031 14.1823 11.0798C14.0931 10.9686 14.0251 10.8776 13.9805 10.8161C13.9582 10.7854 13.9418 10.7621 13.9316 10.7474L13.921 10.7319L13.9199 10.7303L13.9197 10.73L13.9195 10.7297L13.9193 10.7294L13.9193 10.7293L13.5476 10.1716L12.9512 10.4801C11.0094 11.4845 10.6502 13.4108 10.8816 15.105C11.1114 16.7875 11.9314 18.4634 12.6671 19.4181L12.6676 19.4188C13.3508 20.3035 13.4768 21.5196 13.3834 22.6225C13.339 23.1466 13.2476 23.6132 13.1653 23.9539C13.0118 23.9375 12.8315 23.916 12.6287 23.8878C11.9208 23.7894 10.9449 23.6108 9.87519 23.2909C7.71469 22.6447 5.28109 21.4553 3.82216 19.3004ZM15.2732 2.43845C15.2732 2.43844 15.2733 2.43842 15.2733 2.43841C15.3574 2.44473 15.5428 2.45861 15.9513 2.48918L15.2732 2.43845ZM2.13596 11.9348C2.1359 11.9348 2.13403 11.935 2.1305 11.9351C2.13425 11.9347 2.13601 11.9347 2.13596 11.9348Z"
          stroke="#B6C2D0" stroke-width="1.5"/>
</svg>