<svg width="17" height="17" viewBox="0 0 17 17" fill="none" xmlns="http://www.w3.org/2000/svg">
<path d="M11.1058 8.77191L7.05317 11.4736C6.70233 11.7017 6.24609 11.4561 6.24609 11.035V5.63151C6.24609 5.21042 6.71981 4.96481 7.05317 5.19291L11.1058 7.8946C11.4215 8.10521 11.4215 8.56142 11.1058 8.77191Z" fill="#B6C2D0"/>
<path d="M8.33331 16.6666C3.73683 16.6666 0 12.9298 0 8.33331C0 3.73683 3.73683 0 8.33331 0C12.9298 0 16.6666 3.73683 16.6666 8.33331C16.6666 12.9298 12.9298 16.6666 8.33331 16.6666ZM8.33331 1.29824C4.45613 1.29824 1.29824 4.45613 1.29824 8.33331C1.29824 12.2105 4.45613 15.3684 8.33331 15.3684C12.2105 15.3684 15.3684 12.2105 15.3684 8.33331C15.3684 4.45613 12.2105 1.29824 8.33331 1.29824Z" fill="#B6C2D0"/>
</svg>
