<svg width="35" height="35" viewBox="0 0 35 35" fill="none" xmlns="http://www.w3.org/2000/svg">
<path d="M33.4619 0H1.53809C1.13027 0.000362041 0.739263 0.162536 0.450895 0.450921C0.162526 0.739307 0.000362019 1.13034 0 1.53818L0 3.58908C0.000362019 3.99692 0.162526 4.38795 0.450895 4.67633C0.739263 4.96472 1.13027 5.12689 1.53809 5.12725H4.10156V12.9549C4.10229 13.6346 4.3726 14.2862 4.85319 14.7668C5.33378 15.2474 5.98538 15.5178 6.66504 15.5185H13.2275C13.2825 16.0433 13.5209 16.5319 13.9009 16.8981L14.9864 17.944L13.7607 20.7011C13.416 21.4743 13.2382 22.3115 13.2392 23.1581V29.7955C12.8127 29.7984 12.4047 29.9697 12.104 30.2722C11.8033 30.5747 11.6344 30.9837 11.6341 31.4102V34.4866C11.6343 34.6225 11.6883 34.7528 11.7844 34.8489C11.8806 34.9451 12.0109 34.9991 12.1468 34.9993C12.2141 34.9993 12.2807 34.9861 12.3429 34.9603C12.405 34.9345 12.4615 34.8967 12.5091 34.8491C12.5566 34.8015 12.5943 34.745 12.62 34.6828C12.6457 34.6206 12.6589 34.5539 12.6588 34.4866V31.4102C12.6587 31.3329 12.6739 31.2562 12.7036 31.1847C12.7333 31.1133 12.7768 31.0484 12.8317 30.9939C12.8869 30.9388 12.9523 30.8952 13.0243 30.8655C13.0964 30.8359 13.1736 30.8207 13.2515 30.8209H20.557H21.363C21.5198 30.8208 21.6703 30.8828 21.7815 30.9933C21.8928 31.1039 21.9556 31.2541 21.9563 31.4109V34.4873C21.9565 34.6232 22.0106 34.7535 22.1067 34.8496C22.2028 34.9457 22.3331 34.9998 22.469 35C22.5363 35 22.603 34.9867 22.6651 34.961C22.7273 34.9352 22.7838 34.8974 22.8313 34.8498C22.8789 34.8022 22.9166 34.7456 22.9423 34.6834C22.968 34.6212 22.9811 34.5546 22.9811 34.4873V31.4109C22.9798 30.9823 22.8087 30.5717 22.5053 30.2691C22.2019 29.9664 21.7909 29.7964 21.3623 29.7962H21.0779V28.4754C21.079 27.721 21.2437 26.9758 21.5605 26.2912L22.7869 23.6537C23.3221 22.5071 23.4923 21.2237 23.2743 19.9771L22.5176 15.5185H28.335C29.0146 15.5178 29.6662 15.2474 30.1468 14.7668C30.6274 14.2862 30.8977 13.6346 30.8984 12.9549V5.12725H33.4619C33.8697 5.12689 34.2607 4.96472 34.5491 4.67633C34.8375 4.38795 34.9996 3.99692 35 3.58908V1.53818C34.9996 1.13034 34.8375 0.739307 34.5491 0.450921C34.2607 0.162536 33.8697 0.000362041 33.4619 0ZM6.66504 14.493C6.25722 14.4927 5.86622 14.3305 5.57785 14.0421C5.28948 13.7537 5.12732 13.3627 5.12695 12.9549V11.4509C5.89364 11.5629 6.60366 11.9195 7.1513 12.4677C7.69894 13.0158 8.05491 13.7262 8.16621 14.493H6.66504ZM9.19912 14.493C9.08149 13.4535 8.61465 12.4846 7.87494 11.7449C7.13523 11.0051 6.16643 10.5383 5.12695 10.4206V7.14876C6.16643 7.03112 7.13523 6.56425 7.87494 5.8245C8.61465 5.08475 9.08149 4.11589 9.19912 3.07635H14.4026C14.0775 3.28978 13.7751 3.53604 13.5003 3.81126C12.7758 4.53581 12.2617 5.44355 12.0129 6.43753C11.7641 7.43151 11.7899 8.47441 12.0875 9.45487C12.3852 10.4353 12.9436 11.3165 13.703 12.0044C14.4624 12.6922 15.3944 13.1608 16.3994 13.3603L16.0877 14.493H9.19912ZM5.12695 6.11579V3.07635H8.16621C8.05436 3.84269 7.69815 4.55245 7.15056 5.10008C6.60297 5.6477 5.89325 6.00393 5.12695 6.11579ZM17.5 3.17958C18.6016 3.18076 19.6668 3.57456 20.5043 4.29031C21.3418 5.00605 21.8968 5.99687 22.0697 7.08494C22.2426 8.173 22.022 9.28706 21.4476 10.2272C20.8732 11.1673 19.9826 11.8719 18.9355 12.2145C18.6293 12.0616 18.2857 11.9997 17.9454 12.036C17.6051 12.0724 17.2824 12.2055 17.0153 12.4196C15.8312 12.3006 14.7383 11.7304 13.9634 10.8272C13.1884 9.92393 12.7909 8.75703 12.8532 7.56852C12.9156 6.38002 13.433 5.26112 14.2982 4.44393C15.1634 3.62674 16.3099 3.17399 17.5 3.17958ZM14.6104 16.1597C14.4301 15.9876 14.3079 15.7634 14.2611 15.5185H15.8047L15.415 16.9336L14.6104 16.1597ZM21.8565 23.221L20.6315 25.8591C20.252 26.6792 20.0547 27.5718 20.0532 28.4754V29.7969H14.2639V23.1581C14.2632 22.455 14.4109 21.7596 14.6973 21.1174L16.3379 17.4258C16.348 17.4025 16.3565 17.3786 16.3632 17.354L17.3947 13.6111C17.4272 13.4926 17.4877 13.3836 17.5711 13.2934C17.6545 13.2031 17.7583 13.1342 17.8739 13.0925C17.9895 13.0507 18.1134 13.0373 18.2352 13.0535C18.3571 13.0696 18.4732 13.1148 18.5739 13.1852L18.5855 13.1934C18.6474 13.238 18.702 13.2917 18.7476 13.3527C18.8096 13.4341 18.8545 13.5271 18.8796 13.6263C18.9048 13.7254 18.9096 13.8287 18.8938 13.9297L18.3285 17.6781C18.3238 17.7102 18.3222 17.7427 18.3237 17.7752L18.4604 21.1516C18.466 21.2876 18.5253 21.4158 18.6254 21.5081C18.7254 21.6003 18.858 21.649 18.994 21.6435C19.13 21.638 19.2582 21.5787 19.3504 21.4786C19.4427 21.3785 19.4914 21.2459 19.4858 21.1099L19.3491 17.7827L19.6875 15.5185H21.4751L22.2612 20.1501C22.4439 21.191 22.3022 22.2628 21.8565 23.221ZM29.873 12.9549C29.8727 13.3627 29.7105 13.7537 29.4222 14.0421C29.1338 14.3305 28.7428 14.4927 28.335 14.493H26.8311C26.943 13.7263 27.2997 13.0162 27.8478 12.4686C28.3959 11.9209 29.1063 11.5649 29.873 11.4536V12.9549ZM29.873 10.4206C28.8336 10.5383 27.8648 11.0051 27.1251 11.7449C26.3853 12.4846 25.9185 13.4535 25.8009 14.493H19.8447L19.9062 14.0829C19.963 13.7152 19.9028 13.339 19.734 13.0075C20.393 12.7229 20.9921 12.316 21.4997 11.8084C22.025 11.2833 22.4416 10.6598 22.7259 9.97359C23.0102 9.28739 23.1565 8.55191 23.1565 7.80915C23.1565 7.06639 23.0102 6.3309 22.7259 5.6447C22.4416 4.9585 22.025 4.33503 21.4997 3.80989C21.2248 3.53515 20.9224 3.28935 20.5974 3.07635H25.8009C25.9185 4.11589 26.3853 5.08475 27.1251 5.8245C27.8648 6.56425 28.8336 7.03112 29.873 7.14876V10.4206ZM29.873 6.11374C29.107 6.00199 28.3975 5.64606 27.85 5.09884C27.3024 4.55162 26.946 3.84232 26.8338 3.07635H29.873V6.11374ZM33.9746 3.58429C33.9746 3.72028 33.9206 3.85069 33.8244 3.94684C33.7283 4.043 33.5979 4.09702 33.4619 4.09702H30.8984V3.07635H31.8397C31.9757 3.07635 32.1061 3.02233 32.2023 2.92618C32.2984 2.83002 32.3524 2.69961 32.3524 2.56363C32.3524 2.42764 32.2984 2.29723 32.2023 2.20108C32.1061 2.10492 31.9757 2.0509 31.8397 2.0509H3.16025C3.02428 2.0509 2.89387 2.10492 2.79772 2.20108C2.70157 2.29723 2.64756 2.42764 2.64756 2.56363C2.64756 2.69961 2.70157 2.83002 2.79772 2.92618C2.89387 3.02233 3.02428 3.07635 3.16025 3.07635H4.10156V4.1018H1.53809C1.40211 4.1018 1.2717 4.04778 1.17556 3.95163C1.07941 3.85547 1.02539 3.72506 1.02539 3.58908V1.53818C1.02539 1.40219 1.07941 1.27178 1.17556 1.17562C1.2717 1.07947 1.40211 1.02545 1.53809 1.02545H33.4619C33.5979 1.02545 33.7283 1.07947 33.8244 1.17562C33.9206 1.27178 33.9746 1.40219 33.9746 1.53818V3.58429ZM7.24609 8.36973C7.14469 8.36973 7.04557 8.3998 6.96126 8.45614C6.87694 8.51248 6.81123 8.59256 6.77242 8.68624C6.73362 8.77993 6.72347 8.88302 6.74325 8.98248C6.76303 9.08194 6.81186 9.1733 6.88356 9.24501C6.95527 9.31671 7.04662 9.36554 7.14607 9.38533C7.24552 9.40511 7.34861 9.39496 7.44229 9.35615C7.53598 9.31734 7.61605 9.25163 7.67238 9.16731C7.72872 9.08299 7.75879 8.98386 7.75879 8.88245C7.75753 8.7473 7.70296 8.61811 7.60694 8.52299C7.51093 8.42787 7.38124 8.37451 7.24609 8.37451V8.36973ZM27.7539 9.39518C27.8553 9.39518 27.9544 9.36511 28.0387 9.30877C28.1231 9.25243 28.1888 9.17235 28.2276 9.07867C28.2664 8.98498 28.2765 8.88189 28.2568 8.78243C28.237 8.68297 28.1881 8.59161 28.1164 8.5199C28.0447 8.4482 27.9534 8.39937 27.8539 8.37958C27.7545 8.3598 27.6514 8.36995 27.5577 8.40876C27.464 8.44757 27.384 8.51328 27.3276 8.5976C27.2713 8.68192 27.2412 8.78105 27.2412 8.88245C27.2406 8.95019 27.2534 9.01737 27.2789 9.08014C27.3043 9.1429 27.342 9.19998 27.3897 9.2481C27.4373 9.29622 27.4941 9.33442 27.5566 9.36048C27.6191 9.38655 27.6862 9.39997 27.7539 9.39997V9.39518ZM16.9354 7.7695H15.6714C15.5654 7.75824 15.4585 7.78035 15.3657 7.83275C15.2729 7.88514 15.1987 7.9652 15.1535 8.06177C15.1084 8.15833 15.0945 8.26658 15.1138 8.37142C15.1331 8.47626 15.1846 8.57246 15.2612 8.6466L18.105 11.4092C18.2034 11.4988 18.3328 11.5467 18.4658 11.5427C18.5989 11.5386 18.7251 11.483 18.8179 11.3875C18.9107 11.2921 18.9627 11.1643 18.963 11.0312C18.9632 10.8981 18.9117 10.7701 18.8193 10.6743L16.8848 8.79495H16.9333C17.4056 8.79401 17.8639 8.63396 18.2341 8.34062C18.6043 8.04729 18.8649 7.63778 18.9738 7.17816H19.3936C19.5295 7.17816 19.6599 7.12414 19.7561 7.02798C19.8522 6.93183 19.9062 6.80141 19.9062 6.66543C19.9062 6.52945 19.8522 6.39903 19.7561 6.30288C19.6599 6.20672 19.5295 6.1527 19.3936 6.1527H18.9608C18.9107 5.96395 18.8346 5.7831 18.7346 5.61537H19.3936C19.5295 5.61537 19.6599 5.56135 19.7561 5.46519C19.8522 5.36904 19.9062 5.23863 19.9062 5.10264C19.9062 4.96666 19.8522 4.83625 19.7561 4.74009C19.6599 4.64394 19.5295 4.58992 19.3936 4.58992H15.642C15.506 4.58992 15.3756 4.64394 15.2795 4.74009C15.1833 4.83625 15.1293 4.96666 15.1293 5.10264C15.1293 5.23863 15.1833 5.36904 15.2795 5.46519C15.3756 5.56135 15.506 5.61537 15.642 5.61537H16.9354C17.1231 5.61575 17.3075 5.66562 17.4699 5.75996C17.6323 5.85429 17.7669 5.98976 17.8603 6.1527H15.642C15.506 6.1527 15.3756 6.20672 15.2795 6.30288C15.1833 6.39903 15.1293 6.52945 15.1293 6.66543C15.1293 6.80141 15.1833 6.93183 15.2795 7.02798C15.3756 7.12414 15.506 7.17816 15.642 7.17816H17.8883C17.7998 7.35531 17.6638 7.5044 17.4956 7.60881C17.3273 7.71322 17.1334 7.76885 16.9354 7.7695Z" fill="#B6C2D0"/>
</svg>
