<svg width="17" height="18" viewBox="0 0 17 18" fill="none" xmlns="http://www.w3.org/2000/svg">
<path d="M8.40229 0.213495C8.17373 0.077035 7.91336 0.0034754 7.6473 0.000120227C7.38124 -0.00323655 7.11895 0.0637526 6.88704 0.194231L0.784598 3.58549C0.546848 3.71758 0.348799 3.91081 0.210893 4.14518C0.0729728 4.37957 0.000145714 4.64652 0 4.91855V12.6112V12.611C0.000145939 12.8831 0.0729728 13.15 0.210893 13.3844C0.348814 13.6188 0.546866 13.812 0.784598 13.9441L6.88704 17.3353C7.1191 17.4654 7.38124 17.5321 7.6473 17.5287C7.91322 17.5254 8.17359 17.4521 8.40229 17.3161C8.63215 17.1822 8.82262 16.9902 8.95454 16.7593C9.08648 16.5283 9.15522 16.2666 9.15376 16.0006V14.6493H15.4744C15.8788 14.6489 16.2666 14.4879 16.5527 14.202C16.8386 13.9159 16.9996 13.5281 17 13.1237V11.3801C17 11.1464 16.8754 10.9306 16.6731 10.8138C16.4708 10.697 16.2215 10.697 16.0192 10.8138C15.8169 10.9306 15.6923 11.1464 15.6923 11.3801V13.1237C15.6923 13.1815 15.6694 13.237 15.6285 13.2778C15.5877 13.3187 15.5322 13.3416 15.4744 13.3416H9.15376V4.18776H15.4744C15.5322 4.18776 15.5877 4.21067 15.6285 4.25154C15.6694 4.2924 15.6923 4.34786 15.6923 4.40566V6.1493C15.6923 6.38296 15.8169 6.59881 16.0192 6.71557C16.2215 6.83233 16.4708 6.83233 16.6731 6.71557C16.8754 6.59881 17 6.38295 17 6.1493V4.40566C16.9996 4.00124 16.8386 3.61346 16.5527 3.32741C16.2666 3.0415 15.8788 2.88051 15.4744 2.88006H9.15376V1.52873C9.15522 1.26281 9.08648 1.00113 8.95454 0.770083C8.82261 0.539192 8.63215 0.347137 8.40229 0.213304V0.213495Z" fill="#B6C2D0"/>
<path d="M13.4215 11.0847C13.5258 11.1407 13.6435 11.1673 13.7617 11.1616C13.8799 11.1559 13.9943 11.1181 14.0928 11.0524L16.7082 9.30877C16.8901 9.18749 16.9994 8.98346 16.9994 8.76481C16.9994 8.54616 16.8901 8.34216 16.7082 8.22085L14.0928 6.47721C13.9609 6.3892 13.8015 6.35227 13.6443 6.373C13.4871 6.39387 13.343 6.47107 13.2385 6.59031C13.134 6.70955 13.0763 6.86265 13.0763 7.02114V8.11094H11.1148C10.8811 8.11094 10.6653 8.23558 10.5485 8.43786C10.4317 8.64015 10.4317 8.88943 10.5485 9.09171C10.6653 9.29399 10.8811 9.41863 11.1148 9.41863H13.0763V10.5084C13.0763 10.6266 13.1083 10.7428 13.1691 10.8443C13.23 10.9458 13.3171 11.0289 13.4215 11.0846L13.4215 11.0847Z" fill="#B6C2D0"/>
</svg>
