<svg width="19" height="15" viewBox="0 0 19 15" fill="none" xmlns="http://www.w3.org/2000/svg">
<path d="M18.7565 8.44488C17.5051 7.95068 14.4132 9.17038 13.1796 9.70019C13.2236 9.81525 13.2481 9.93512 13.2554 10.0526C13.3624 11.3725 11.9717 11.6463 10.6493 11.6039C11.1261 11.5023 12.3131 11.2839 12.6315 10.8062C12.8168 10.6494 12.9286 10.1005 12.7123 9.77591C11.4538 8.78739 7.69145 9.74422 6.08832 8.85334C3.96858 7.6972 1.8323 8.3934 0 9.94218C0.00240334 9.94714 0.00240319 9.95195 0.00495688 9.9569C0.433212 11.6233 1.24569 13.138 2.33935 14.4033C3.44292 14.2589 4.56364 14.3053 4.60283 14.3103C6.33773 14.5599 10.5539 13.9139 11.8509 12.9937C14.8827 10.8453 18.2815 9.58983 18.2815 9.58983C19.5465 9.11547 18.7561 8.44496 18.7561 8.44496L18.7565 8.44488Z" fill="#B6C2D0"/>
<path d="M4.97919 7.9016C6.31514 8.21133 6.57697 8.83018 7.67827 8.67729C9.10828 8.47991 12.2227 8.12994 13.2402 9.14219C14.0879 8.78439 14.9665 8.45768 15.998 8.16824L16.7591 7.40713C18.4524 5.71384 18.4524 2.96577 16.7591 1.26997C15.0632 -0.423324 12.3154 -0.423324 10.622 1.26997C8.92608 -0.423324 6.17828 -0.423324 4.48479 1.26997C2.78892 2.96584 2.78892 5.71364 4.48479 7.40713L4.97919 7.9016ZM14.5191 3.57906C14.5191 4.11979 14.9571 4.55781 15.4978 4.55781C14.9571 4.55781 14.5191 4.99583 14.5191 5.53657C14.5191 4.99583 14.0811 4.55781 13.5403 4.55781C14.0811 4.55781 14.5191 4.11964 14.5191 3.57906ZM6.88686 4.55781C6.88686 4.82819 6.99591 5.07347 7.17406 5.24951C7.35011 5.42766 7.5954 5.53671 7.86576 5.53671C7.32503 5.53671 6.88701 5.97473 6.88701 6.51547C6.88701 5.97473 6.44899 5.53671 5.90825 5.53671C6.44887 5.53656 6.88685 5.09854 6.88685 4.55781L6.88686 4.55781Z" fill="#B6C2D0"/>
</svg>
