<svg width="19" height="15" viewBox="0 0 19 15" fill="none" xmlns="http://www.w3.org/2000/svg">
<path d="M17.2919 0.359934C17.2227 0.145331 17.0192 -0.000574646 16.7895 1.70683e-06H2.2107C1.98098 -0.00057557 1.77748 0.145331 1.70827 0.359934L0.019376 5.53233C0.00465058 5.58357 -0.00168164 5.63653 0.000379667 5.68964C0.00538629 5.95403 0.0877026 6.21135 0.237317 6.43144C0.386931 6.65138 0.597801 6.82472 0.844739 6.93105C1.11113 7.05906 1.39592 7.14638 1.68924 7.18967V14.4828C1.68924 14.62 1.74476 14.7515 1.84386 14.8485C1.94282 14.9454 2.07697 15 2.21701 15H16.9353C17.0753 15 17.2096 14.9454 17.3086 14.8485C17.4076 14.7515 17.4631 14.62 17.4631 14.4828V7.1627C18.3962 6.96614 19 6.41585 19 5.68964C19 5.63624 18.9915 5.58313 18.9747 5.53233L17.2919 0.359934ZM4.11662 6.7242H4.10396H4.11662ZM7.7054 6.7242H7.69273H7.7054ZM11.2943 6.7242H11.2816H11.2943ZM13.4371 1.03456L14.2942 5.42482L14.3554 5.72486C14.309 5.98969 13.7496 6.20689 13.0887 6.20689C12.428 6.20689 11.822 5.96891 11.822 5.68965V5.6566L11.5203 1.03433L13.4371 1.03456ZM10.4627 1.03456L10.7667 5.70228C10.7497 5.9775 10.1776 6.20711 9.49994 6.20711C8.82225 6.20711 8.25019 5.9775 8.23322 5.70228L8.53731 1.03456H10.4627ZM5.09834 3.41379L5.56278 1.03035H7.47963L7.17775 5.65669V5.68974C7.17775 5.969 6.59728 6.20698 5.91104 6.20698C5.22498 6.20698 4.69295 6.00003 4.64432 5.72495L5.09834 3.41379ZM1.05565 5.74555L2.59669 1.0346H4.49657L3.58889 5.59259C3.58683 5.62506 3.58683 5.65754 3.58889 5.68986C3.58889 5.96912 3.00842 6.2071 2.32217 6.2071C1.68897 6.2071 1.13368 6.00015 1.05561 5.74573L1.05565 5.74555ZM6.33332 9.82768H8.97215V13.9656H6.33332V9.82768ZM12.6665 13.9656H10.0277V9.82768H12.6665V13.9656ZM16.6775 6.207C15.9915 6.207 15.4108 5.96902 15.4108 5.68976H15.411C15.413 5.65743 15.413 5.62496 15.411 5.59249L14.5201 1.04078H16.42L17.9442 5.74544C17.8662 5.99988 17.3109 6.20682 16.6775 6.20682L16.6775 6.207Z" fill="#B6C2D0"/>
</svg>
