<svg width="22" height="23" viewBox="0 0 22 23" fill="none" xmlns="http://www.w3.org/2000/svg">
<path d="M10.5 7C8.01866 7 6 9.01883 6 11.5C6 13.9812 8.01883 16 10.5 16C12.9812 16 15 13.9812 15 11.5C15 9.01883 12.9812 7 10.5 7ZM10.5 14.9368C8.6048 14.9368 7.06308 13.3951 7.06308 11.5001C7.06308 9.60505 8.60497 8.06334 10.5 8.06334C12.3952 8.06334 13.9369 9.60505 13.9369 11.5001C13.9369 13.3951 12.3952 14.9368 10.5 14.9368Z" fill="#5E7085"/>
<path d="M20.3146 13.9403C20.314 13.94 20.3135 13.9395 20.313 13.9392L18.7307 12.765C18.7919 12.3438 18.8229 11.9197 18.8229 11.5C18.8229 11.0804 18.7919 10.6563 18.7307 10.2351L20.3146 9.05971C21.0081 8.54074 21.2074 7.57642 20.779 6.81868L19.5823 4.6805C19.1521 3.91938 18.2406 3.61658 17.4602 3.97628L15.6817 4.80224C15.0345 4.27043 14.3206 3.84571 13.5525 3.53482L13.3554 1.53547C13.2666 0.660169 12.556 0 11.7022 0H9.30558C8.45185 0 7.74103 0.660169 7.6521 1.53681L7.45503 3.53465C6.68695 3.84556 5.97302 4.27048 5.32583 4.80207L3.54616 3.97576C2.76758 3.61672 1.85525 3.91935 1.42418 4.68236L0.229614 6.81647C-0.199646 7.57642 -0.000272819 8.54091 0.694957 9.0607L2.27707 10.2347C2.21587 10.6563 2.18486 11.0803 2.18486 11.5C2.18486 11.9197 2.21587 12.3437 2.27707 12.7651L0.693654 13.9402C-0.000285718 14.4591 -0.199646 15.4234 0.228816 16.1814L1.42548 18.3195C1.85554 19.0807 2.7672 19.3833 3.54746 19.0236L5.326 18.1978C5.97314 18.7296 6.68708 19.1543 7.4552 19.4652L7.65259 21.4644C7.7412 22.3398 8.45184 23 9.30562 23H11.7021C12.5558 23 13.2667 22.3398 13.3556 21.4632L13.5527 19.4653C14.3207 19.1544 15.0347 18.7295 15.6819 18.1979L17.4615 19.0242C18.2406 19.3838 19.1524 19.0808 19.5835 18.3176L20.7781 16.1835C21.2075 15.4234 21.0081 14.4591 20.3147 13.9403L20.3146 13.9403ZM19.8668 15.6406L18.6724 17.7747C18.5138 18.0554 18.178 18.1675 17.8934 18.0358L15.815 17.0707C15.6281 16.9839 15.4092 17.0165 15.2539 17.1551C14.5547 17.7785 13.7594 18.252 12.8897 18.5626C12.6963 18.6317 12.5593 18.81 12.5386 19.0196L12.3085 21.3521C12.2759 21.6737 12.0153 21.9162 11.7024 21.9162L9.30556 21.9163C8.99265 21.9163 8.73209 21.6738 8.69975 21.3536L8.46937 19.0197C8.44853 18.8101 8.31152 18.6318 8.11823 18.5627C7.24858 18.2522 6.45323 17.7786 5.75408 17.1553C5.65629 17.0683 5.53372 17.0229 5.40934 17.0229C5.33583 17.0229 5.26216 17.0386 5.19275 17.0709L3.11559 18.0355C2.82893 18.1679 2.49403 18.0552 2.33651 17.7769L1.14017 15.6387C0.983306 15.3611 1.05747 15.0078 1.31115 14.8182L3.15908 13.4467C3.32497 13.3236 3.40652 13.1125 3.36813 12.9056C3.28149 12.4388 3.23751 11.966 3.23751 11.5C3.23751 11.034 3.28149 10.5612 3.36813 10.0946C3.40652 9.88769 3.32497 9.67659 3.15908 9.55347L1.31245 8.18302C1.0573 7.99235 0.983133 7.63906 1.14098 7.35939L2.33538 5.22527C2.49405 4.94443 2.82979 4.83229 3.11447 4.96418L5.1928 5.92932C5.37921 6.01595 5.59826 5.98336 5.75396 5.84488C6.45315 5.22155 7.24845 4.74801 8.1181 4.43743C8.31156 4.36835 8.44858 4.19002 8.46925 3.98045L8.69946 1.6479C8.73212 1.32635 8.99269 1.08384 9.30561 1.08384H11.7021C12.015 1.08384 12.2756 1.32635 12.3079 1.64656L12.5383 3.98045C12.5591 4.19004 12.6961 4.36837 12.8894 4.43743C13.7591 4.748 14.5544 5.22155 15.2536 5.84488C15.4091 5.98336 15.6282 6.01612 15.8147 5.92932L17.8919 4.9647C18.1787 4.8323 18.5135 4.94494 18.671 5.22326L19.8673 7.36144C20.0242 7.63908 19.9502 7.99238 19.6965 8.182L17.8482 9.55348C17.6823 9.6766 17.6008 9.8877 17.6392 10.0946C17.7263 10.5612 17.7701 11.034 17.7701 11.5C17.7701 11.966 17.7263 12.4388 17.6395 12.9053C17.6011 13.1121 17.6827 13.3232 17.8486 13.4464L19.6959 14.8172C19.9507 15.0083 20.0247 15.3613 19.8668 15.6406L19.8668 15.6406Z" fill="#5E7085"/>
</svg>
