<svg width="17" height="14" viewBox="0 0 17 14" fill="none" xmlns="http://www.w3.org/2000/svg">
<path d="M3.84528 3.90409e-05V12.3594C3.84528 12.9848 3.62562 13.5577 3.26972 14H15.3809C16.3339 14 17 13.2801 17 12.25V0L3.84528 3.90409e-05ZM11.5358 2.18753H14.774C14.9982 2.18753 15.1788 2.38269 15.1788 2.62499C15.1788 2.86729 14.9982 3.06245 14.774 3.06245H11.5358C11.3117 3.06245 11.1311 2.86729 11.1311 2.62499C11.1311 2.38269 11.3117 2.18753 11.5358 2.18753ZM0 2.62499V12.3593C0 13.2683 0.676899 14 1.51787 14C2.3587 14 3.03575 13.2683 3.03575 12.3593V2.62499H0ZM6.07149 2.62499H9.30955V5.68741H6.07149V2.62499ZM11.5358 5.24995H14.774C14.9982 5.24995 15.1788 5.44511 15.1788 5.68741C15.1788 5.92987 14.9982 6.12502 14.774 6.12502H11.5358C11.3117 6.12502 11.1311 5.92986 11.1311 5.68741C11.1311 5.4451 11.3117 5.24995 11.5358 5.24995ZM6.07149 8.09373H14.774C14.9981 8.09373 15.1787 8.28889 15.1787 8.53119C15.1787 8.77365 14.9981 8.96865 14.774 8.96865H6.07149C5.84717 8.96865 5.66676 8.77364 5.66676 8.53119C5.66676 8.28888 5.84718 8.09373 6.07149 8.09373ZM6.07149 10.9375H14.774C14.9981 10.9375 15.1787 11.1327 15.1787 11.375C15.1787 11.6173 14.9981 11.8124 14.774 11.8124H6.07149C5.84717 11.8124 5.66676 11.6173 5.66676 11.375C5.66676 11.1327 5.84718 10.9375 6.07149 10.9375Z" fill="#B6C2D0"/>
</svg>
