<svg width="13" height="14" viewBox="0 0 13 14" fill="none" xmlns="http://www.w3.org/2000/svg">
<path fillRule="evenodd" clip-rule="evenodd" d="M11.9161 9.14293H11.6433C12.3949 9.14293 13 9.78226 13 10.5711V10.8577C13 11.1754 12.7574 11.4286 12.458 11.4286H0.542017C0.242387 11.4286 0 11.1729 0 10.8577V10.5711C0 9.78267 0.607405 9.14293 1.35666 9.14293H1.08386C1.3816 9.14293 1.62496 8.88683 1.62496 8.57094V5.14284C1.62496 2.30127 3.80759 0 6.50007 0C9.19318 0 11.3752 2.30249 11.3752 5.14284V8.57094C11.3752 8.88882 11.6174 9.14293 11.9163 9.14293H11.9161ZM4.60396 12.0001H8.39561C8.39561 13.1045 7.54677 14 6.49979 14C5.4528 14 4.60396 13.1045 4.60396 12.0001Z" fill="#B6C2D0"/>
</svg>
