<svg width="27" height="25" viewBox="0 0 27 25" fill="none" xmlns="http://www.w3.org/2000/svg">
<path d="M25.9388 17.7378C25.8114 17.7059 25.684 17.7059 25.5884 17.7697C25.1424 17.8654 23.6773 17.9291 23.1676 17.5787C22.4351 16.4958 21.0972 15.0623 18.8357 14.3617C15.6504 13.3425 12.8792 13.2151 12.7839 13.2151C12.2105 13.1832 11.1913 13.3425 10.8092 14.1707C10.5862 14.6804 10.6181 15.2855 10.8729 15.7633C11.1276 16.2093 11.5417 16.5278 12.0194 16.6234C12.8795 16.7827 13.6121 17.0375 14.2172 17.3242L10.5542 17.1012L6.6364 15.2538L5.26677 14.2663C5.0757 14.139 4.08819 13.4382 3.32375 13.7886C2.75035 14.0433 2.55925 14.5531 2.49559 15.0308C2.4319 15.0308 2.33626 14.9989 2.27257 14.9989C1.69917 14.8715 0.616249 14.9352 0.202168 15.827V15.859C-0.402959 17.0693 0.488873 17.8337 1.06227 18.1841C2.55927 19.0759 12.8796 22.8026 13.3253 22.962C13.3572 22.962 13.389 22.962 13.389 22.9939L21.5433 24.6816H21.6069L25.2063 25H25.2382C25.5249 25 25.748 24.777 25.7797 24.5222C25.8116 24.2355 25.5886 23.9808 25.3019 23.9488L21.7345 23.6621L13.6123 21.9739C10.6181 20.8595 2.75046 17.929 1.57188 17.2601C0.8711 16.8461 1.03042 16.5594 1.12585 16.3363L1.1578 16.2726C1.31712 15.9223 2.04963 16.0496 2.04963 16.0496H2.08157C3.19643 16.209 6.54081 17.4829 7.75137 17.9607C7.81507 17.9927 7.84701 17.9927 7.9107 17.9927L10.2995 18.152H10.4269H10.4589L16.2881 18.5024C16.5111 18.5024 16.7341 18.375 16.8295 18.1839C16.9252 17.9609 16.8615 17.7379 16.7022 17.5788C16.6385 17.5151 15.0139 16.0818 12.2109 15.5721C12.0516 15.5401 11.8925 15.4128 11.7969 15.2536C11.7012 15.0626 11.6695 14.8076 11.7649 14.5848C11.8923 14.33 12.4338 14.2664 12.6887 14.2664C12.7207 14.2664 15.428 14.3937 18.4859 15.3493C20.4606 15.9864 21.6392 17.2286 22.2445 18.1522C22.2765 18.1841 22.2765 18.2158 22.3082 18.2478C22.6904 18.8212 22.8497 19.267 22.8816 19.3307C22.9773 19.6174 23.2957 19.7448 23.5505 19.6491C23.8372 19.5535 23.9645 19.2351 23.8689 18.9803C23.8689 18.9803 23.837 18.9166 23.8052 18.821C24.06 18.8529 24.283 18.8529 24.506 18.8529C25.2385 18.8529 25.8756 18.7573 25.9713 18.6936C26.1623 18.598 26.2897 18.3752 26.258 18.1522C26.3213 17.9926 26.1302 17.8016 25.9391 17.7379L25.9388 17.7378ZM3.7694 14.7756C3.89678 14.7437 4.31087 14.903 4.6295 15.126L6.03106 16.1452C5.2029 15.8585 4.31107 15.5081 3.51464 15.2851C3.51464 15.126 3.54638 14.8712 3.7694 14.7756L3.7694 14.7756Z" fill="#5E7085"/>
<path d="M3.60938 5.87873C3.60938 9.13076 6.23607 11.7575 9.4881 11.7575C12.7401 11.7575 15.3668 9.13076 15.3668 5.87873C15.3666 2.62669 12.7399 0 9.4879 0C6.23587 0 3.60944 2.62669 3.60944 5.87873H3.60938ZM13.9908 5.87873C13.9908 8.33869 11.9895 10.3815 9.48804 10.3815C7.02808 10.3815 4.98526 8.38022 4.98526 5.87873C4.98526 3.37724 6.98654 1.37595 9.48804 1.37595C11.9895 1.4175 13.9908 3.41877 13.9908 5.87873Z" fill="#5E7085"/>
<path d="M11.5297 4.38297L11.3302 5.11187H7.51953L7.71902 4.38297H11.5297ZM9.68542 8.89227L7.6376 6.45025L7.63353 5.83665H8.60655C8.85896 5.83665 9.0666 5.79135 9.22945 5.70076C9.39501 5.60741 9.5185 5.4825 9.59993 5.32601C9.68135 5.16678 9.72206 4.9897 9.72206 4.79478C9.72206 4.58338 9.68407 4.3967 9.60807 4.23472C9.53207 4.07274 9.41129 3.94645 9.24573 3.85585C9.08017 3.76526 8.86168 3.71996 8.59026 3.71996H7.5236L7.74345 2.89634H8.59026C9.07067 2.89634 9.46965 2.96909 9.7872 3.1146C10.1048 3.2601 10.3422 3.4715 10.4997 3.74878C10.6598 4.02607 10.7399 4.36101 10.7399 4.7536C10.7399 5.09677 10.6815 5.40014 10.5648 5.66369C10.4481 5.92451 10.2595 6.1359 9.99891 6.29788C9.73835 6.45711 9.39229 6.55595 8.96074 6.59438L10.8335 8.83874V8.89227H9.68542ZM11.5338 2.89634L11.3302 3.62524H8.21571L8.4152 2.89634H11.5338Z" fill="#5E7085"/>
</svg>
