<svg width="42" height="28" viewBox="0 0 42 28" fill="none" xmlns="http://www.w3.org/2000/svg">
<path d="M37.738 0H8.6072C7.72934 0 6.88734 0.348768 6.26629 0.969413C5.6456 1.59039 5.29688 2.43246 5.29688 3.31032V3.97238H32.4415C33.6708 3.97238 34.8495 4.46066 35.7185 5.32988C36.5877 6.19881 37.076 7.37751 37.076 8.60683V22.5102H37.738C38.6159 22.5102 39.4579 22.1614 40.0789 21.5408C40.6996 20.9198 41.0483 20.0777 41.0483 19.1999V3.31032C41.0483 2.43246 40.6996 1.59047 40.0789 0.969413C39.4579 0.34873 38.6159 0 37.738 0Z" fill="#b6c2d0"/>
<path d="M7.2832 11.9172C7.28616 12.4787 7.52675 13.0125 7.94527 13.387C8.35936 13.0105 8.59551 12.477 8.59551 11.9172C8.59551 11.3573 8.35936 10.8239 7.94527 10.4473C7.52675 10.8218 7.28616 11.3556 7.2832 11.9172Z" fill="#b6c2d0"/>
<path d="M9.26953 9.93097C9.70963 10.4993 9.94874 11.198 9.94874 11.9172C9.94874 12.6363 9.70963 13.335 9.26953 13.9034C9.97918 13.9034 10.6347 13.5247 10.9897 12.9103C11.3444 12.2958 11.3444 11.5385 10.9897 10.9241C10.6347 10.3096 9.97919 9.93097 9.26953 9.93097Z" fill="#b6c2d0"/>
<path d="M6.61898 9.93097C5.90933 9.93097 5.25376 10.3096 4.89882 10.9241C4.54414 11.5385 4.54414 12.2958 4.89882 12.9103C5.25379 13.5247 5.90932 13.9034 6.61898 13.9034C6.17888 13.335 5.93977 12.6363 5.93977 11.9172C5.93977 11.198 6.17888 10.4994 6.61898 9.93097Z" fill="#b6c2d0"/>
<path d="M0 24.4964C0 25.3742 0.348768 26.2162 0.969413 26.8373C1.59039 27.458 2.43246 27.8067 3.31032 27.8067H32.4411C33.319 27.8067 34.161 27.4579 34.7821 26.8373C35.4027 26.2163 35.7515 25.3742 35.7515 24.4964V23.8343H0V24.4964Z" fill="#b6c2d0"/>
<path d="M0 19.8619H35.7515V22.5102H0V19.8619Z" fill="#b6c2d0"/>
<path d="M32.4411 5.29651H3.31032C2.43246 5.29651 1.59047 5.64528 0.969413 6.26592C0.34873 6.8869 0 7.72897 0 8.60683V18.5378H35.7515V8.60683C35.7515 7.72897 35.4027 6.88698 34.7821 6.26592C34.1611 5.64524 33.319 5.29651 32.4411 5.29651ZM9.2689 15.2275C8.81314 15.2269 8.36244 15.1323 7.94477 14.9493C6.92095 15.4007 5.7387 15.3046 4.80144 14.6934C3.86388 14.0825 3.29882 13.0394 3.29882 11.9204C3.29882 10.8017 3.86394 9.7584 4.80144 9.14748C5.7387 8.53655 6.92095 8.44019 7.94477 8.89152C8.85895 8.48601 9.90736 8.51527 10.7972 8.97133C11.6871 9.42739 12.3235 10.2612 12.5281 11.2401C12.7326 12.2189 12.4837 13.2377 11.8506 14.0122C11.2178 14.7865 10.2688 15.2332 9.26889 15.2275L9.2689 15.2275ZM15.8895 14.5654H14.5654C14.1998 14.5654 13.9033 14.269 13.9033 13.9033C13.9033 13.5377 14.1998 13.2413 14.5654 13.2413H15.8895C16.2551 13.2413 16.5516 13.5377 16.5516 13.9033C16.5516 14.269 16.2551 14.5654 15.8895 14.5654ZM19.8619 14.5654H18.5378C18.1722 14.5654 17.8757 14.269 17.8757 13.9033C17.8757 13.5377 18.1722 13.2413 18.5378 13.2413H19.8619C20.2275 13.2413 20.524 13.5377 20.524 13.9033C20.524 14.269 20.2275 14.5654 19.8619 14.5654ZM23.8343 14.5654H22.5102C22.1446 14.5654 21.8481 14.269 21.8481 13.9033C21.8481 13.5377 22.1446 13.2413 22.5102 13.2413H23.8343C24.1999 13.2413 24.4964 13.5377 24.4964 13.9033C24.4964 14.269 24.1999 14.5654 23.8343 14.5654ZM27.8067 14.5654H26.4826C26.117 14.5654 25.8205 14.269 25.8205 13.9033C25.8205 13.5377 26.117 13.2413 26.4826 13.2413H27.8067C28.1723 13.2413 28.4688 13.5377 28.4688 13.9033C28.4688 14.269 28.1723 14.5654 27.8067 14.5654ZM31.7791 14.5654H30.455C30.0893 14.5654 29.7929 14.269 29.7929 13.9033C29.7929 13.5377 30.0893 13.2413 30.455 13.2413H31.7791C32.1447 13.2413 32.4411 13.5377 32.4411 13.9033C32.4411 14.269 32.1447 14.5654 31.7791 14.5654Z" fill="#b6c2d0"/>
</svg>
