<svg width="17" height="21" viewBox="0 0 17 21" fill="none" xmlns="http://www.w3.org/2000/svg">
<path d="M14.0552 12.6579L15.5186 11.5045L15.5103 9.64014L16.3247 7.9618L15.5144 6.28346L15.5227 4.4191L14.0593 3.26162L13.2573 1.57912L11.4384 1.16988L9.98329 0L8.16439 0.425802L6.34962 0L4.8945 1.16988L3.0756 1.57912L2.27362 3.26162L0.806107 4.4191L0.814375 6.28346L0 7.9618L0.814375 9.64014L0.806107 11.5045L2.2695 12.662L2.8565 13.898L0.479518 18.9951L3.29466 18.5652L4.77457 21L7.23837 15.7128L8.16024 15.4979L8.88779 15.6673L11.3764 20.9999L12.8563 18.565L15.6714 18.995L13.3772 14.0755L14.0552 12.6579ZM4.6963 19.5657L3.63803 17.8253L1.62899 18.1313L3.36523 14.4025L4.89476 14.7456L6.34988 15.9155L4.6963 19.5657ZM6.5152 15.1879L5.19648 14.1255L3.54294 13.7534L2.81538 12.2239L1.48427 11.1739L1.49254 9.47902L0.75258 7.95776L1.49254 6.43239L1.48427 4.73749L2.81538 3.6875L3.54294 2.15797L5.19648 1.78592L6.5152 0.72353L8.16462 1.10798L9.81404 0.72353L11.1328 1.78592L12.7863 2.15797L13.5139 3.6875L14.845 4.73749L14.8367 6.43239L15.5767 7.95365L14.8367 9.47491L14.845 11.1698L13.5139 12.2198L12.7863 13.7493L11.1328 14.1214L9.81404 15.1838L8.16462 14.7993L6.5152 15.1879ZM12.5133 17.8294L11.455 19.5657L9.72708 15.8617L9.97924 15.9196L11.4344 14.7497L12.8027 14.4438L14.5223 18.1354L12.5133 17.8294Z" fill="#B6C2D0"/>
<path d="M14.0219 7.96179C14.0219 4.73324 11.3928 2.10428 8.1644 2.10428C4.936 2.10428 2.30688 4.73339 2.30688 7.96179C2.30688 11.1902 4.936 13.8193 8.1644 13.8193C11.3929 13.8152 14.0219 11.1902 14.0219 7.96179ZM8.1644 13.1416C5.3079 13.1416 2.98455 10.8184 2.98455 7.96179C2.98455 5.10519 5.30779 2.78195 8.1644 2.78195C11.021 2.78195 13.3442 5.10519 13.3442 7.96179C13.3442 10.8184 11.021 13.1416 8.1644 13.1416Z" fill="#B6C2D0"/>
<path d="M9.20186 6.53163L8.16426 3.33203L7.12667 6.53163H3.76172L6.48181 8.5076L5.44421 11.7072L8.1643 9.73123L10.8844 11.7072L9.8468 8.5076L12.5669 6.53163H9.20186ZM9.59871 9.93381L8.16426 8.89209L6.72982 9.93381L7.27551 8.24719L5.84106 7.20548H7.61034L8.15602 5.51887L8.70171 7.20548H10.471L9.03654 8.24719L9.59871 9.93381Z" fill="#B6C2D0"/>
</svg>
