<svg width="17" height="19" viewBox="0 0 17 19" fill="none" xmlns="http://www.w3.org/2000/svg">
<path d="M16.9963 7.88416C16.9415 5.15659 16.5434 3.14499 16.5488 3.14295C16.3832 2.83455 16.0929 2.57665 15.7374 2.4449C13.405 1.58145 11.1114 0.757216 8.87498 0.0539747C8.64644 -0.0179916 8.40541 -0.0179916 8.17714 0.0539747C5.94136 0.75535 3.64814 1.57812 1.31574 2.44052C1.00196 2.55663 0.738864 2.77159 0.567364 3.03282C0.580554 3.03428 0.0880898 4.50197 0.00406395 7.74349C-0.0456407 10.9854 0.377275 11.9564 0.363235 11.9578C0.592188 12.6703 1.02066 13.395 1.6345 14.132C2.32068 14.9551 3.24787 15.8052 4.3679 16.641C6.22187 18.03 7.95713 18.8601 8.02964 18.8895C8.18709 18.9629 8.35384 19.0004 8.52572 19C8.69789 19 8.86478 18.9625 9.02181 18.8887C9.09484 18.8594 10.8319 18.0267 12.685 16.638C13.8054 15.8016 14.7326 14.9513 15.4191 14.1286C16.0769 13.3392 16.5217 12.5648 16.7366 11.804C16.7279 11.803 17.0389 10.6124 16.9959 7.88459L16.9963 7.88416ZM9.44894 10.0116V11.7399C9.44894 12.2268 9.03574 12.6212 8.52562 12.6216C8.01549 12.6216 7.6019 12.2272 7.6019 11.7402V10.0361C6.93627 9.72026 6.47839 9.06488 6.47839 8.30759C6.47839 7.24175 7.38338 6.37748 8.49995 6.37748C9.61653 6.37748 10.5215 7.24134 10.5219 8.30718C10.5219 9.04568 10.0873 9.68727 9.44894 10.0116V10.0116Z" fill="#B6C2D0"/>
</svg>
