<svg width="19" height="15" viewBox="0 0 19 15" fill="none" xmlns="http://www.w3.org/2000/svg">
<path d="M19 7.49996C19 7.87634 18.696 8.1818 18.3214 8.1818H16.2857C15.9111 8.1818 15.6071 7.87634 15.6071 7.49996C15.6071 7.12358 15.9111 6.81813 16.2857 6.81813H18.3214C18.696 6.81813 19 7.12358 19 7.49996ZM16.6833 11.1225C16.4179 10.8559 15.9891 10.8559 15.7238 11.1225C15.4584 11.3884 15.4584 11.82 15.7238 12.0867L17.163 13.5336C17.2954 13.6666 17.469 13.7334 17.6427 13.7334C17.8164 13.7334 17.9902 13.6666 18.1224 13.5336C18.3878 13.2677 18.3878 12.8361 18.1224 12.5695L16.6833 11.1225ZM16.2036 4.27067C16.3773 4.27067 16.5511 4.20386 16.6833 4.07084L18.1225 2.62391C18.3879 2.35726 18.3879 1.92563 18.1225 1.65976C17.8572 1.39311 17.4284 1.39311 17.163 1.65976L15.7238 3.10669C15.4584 3.37333 15.4584 3.80496 15.7238 4.07084C15.8561 4.20386 16.0299 4.27067 16.2036 4.27067ZM0 5.4543V9.54531C0 9.92169 0.303994 10.2271 0.678576 10.2271H2.7143V4.77246H0.678576C0.303994 4.77246 0 5.07792 0 5.4543ZM6.10718 3.40879H4.07145V11.5908H6.10718V3.40879ZM14.4773 0.0392052C14.2086 -0.0569842 13.9052 0.0276381 13.7241 0.251213C11.3171 3.22191 8.60682 3.49951 7.4641 3.46741V11.275C8.66312 11.3847 11.3471 11.9513 13.7334 14.7612C13.865 14.9154 14.0549 15 14.2497 15C14.3285 15 14.4078 14.9863 14.4845 14.9577C14.7512 14.8589 14.9283 14.6038 14.9283 14.3182V0.68147C14.9283 0.393062 14.7477 0.136002 14.477 0.0392206L14.4773 0.0392052ZM4.20717 12.2725L4.75003 14.9998H6.4424L6.1743 12.2725H4.20717Z" fill="#B6C2D0"/>
</svg>
