<svg width="14" height="14" viewBox="0 0 14 14" fill="none" xmlns="http://www.w3.org/2000/svg">
<path d="M7.76028 11.7783V10.7805H0V11.7783C0 12.681 0.728496 13.4094 1.63118 13.4094H8.64703C8.10852 13.0611 7.76014 12.4593 7.76014 11.7783H7.76028Z" fill="#B6C2D0"/>
<path d="M12.8282 0.581543C12.1788 0.581543 11.6562 1.10411 11.6562 1.75348V3.71725H14.0001V1.75348C14.0001 1.10423 13.4776 0.581543 12.8282 0.581543Z" fill="#B6C2D0"/>
<path d="M11.9088 0.581443H3.27741C2.65978 0.581443 2.1688 1.07242 2.1688 1.67426L2.10547 10.4639H7.91764C8.01269 10.4639 8.07603 10.5272 8.07603 10.6223V11.7784C8.07603 12.6811 8.80452 13.4096 9.70721 13.4096C10.6099 13.4096 11.3384 12.6811 11.3384 11.7784V1.75324C11.3384 1.27817 11.5601 0.850553 11.9086 0.581299L11.9088 0.581443ZM3.97418 2.90953H6.42892C6.52397 2.90953 6.58731 2.97286 6.58731 3.06791C6.58731 3.16297 6.52397 3.2263 6.42892 3.2263H3.97418C3.87912 3.2263 3.81579 3.16297 3.81579 3.06791C3.8159 2.97286 3.87923 2.90953 3.97418 2.90953ZM9.27971 8.92762H3.97418C3.87912 8.92762 3.81579 8.86429 3.81579 8.76923C3.81579 8.67418 3.87912 8.61085 3.97418 8.61085H9.27971C9.37477 8.61085 9.4381 8.67418 9.4381 8.76923C9.4381 8.86429 9.37476 8.92762 9.27971 8.92762ZM9.27971 7.02718H3.97418C3.87912 7.02718 3.81579 6.96385 3.81579 6.8688C3.81579 6.77374 3.87912 6.71041 3.97418 6.71041H9.27971C9.37477 6.71041 9.4381 6.77375 9.4381 6.8688C9.4381 6.96374 9.37476 7.02718 9.27971 7.02718ZM9.27971 5.12664H3.97418C3.87912 5.12664 3.81579 5.0633 3.81579 4.96825C3.81579 4.8732 3.87912 4.80986 3.97418 4.80986H9.27971C9.37477 4.80986 9.4381 4.8732 9.4381 4.96825C9.4381 5.0633 9.37476 5.12664 9.27971 5.12664Z" fill="#B6C2D0"/>
</svg>
