<svg width="14" height="14" viewBox="0 0 14 14" fill="none" xmlns="http://www.w3.org/2000/svg">
<path fillRule="evenodd" clip-rule="evenodd" d="M13.0491 5.25684H12.0941C12.0211 5.04295 11.9343 4.83417 11.8344 4.63156L12.5095 3.95723C12.6877 3.7783 12.7878 3.53618 12.7878 3.28362C12.7878 3.03115 12.6877 2.78894 12.5095 2.61009L11.3902 1.4908C11.2113 1.31298 10.9693 1.21322 10.7169 1.21332C10.4646 1.21352 10.2226 1.31358 10.0439 1.4916L9.36843 2.16562C9.16559 2.06626 8.95662 1.97976 8.74284 1.90673V0.952503C8.74264 0.700035 8.64238 0.457927 8.46395 0.279386C8.28542 0.100759 8.0435 0.000282909 7.79104 0H6.20832C5.95595 0.000502318 5.71413 0.101068 5.53572 0.279591C5.35739 0.458117 5.25713 0.700148 5.25682 0.952503V1.90673C5.04313 1.97977 4.83426 2.06627 4.63154 2.16562L3.95642 1.49049C3.77749 1.31257 3.53538 1.21281 3.2831 1.21301C3.03073 1.21311 2.78881 1.31317 2.61009 1.49129L1.4908 2.60976C1.31247 2.78859 1.21242 3.0308 1.21242 3.28329C1.21242 3.53586 1.31248 3.77807 1.4908 3.95689L2.16561 4.6315C2.06615 4.83444 1.97935 5.04332 1.9059 5.25709H0.952501C0.699933 5.25729 0.457823 5.35766 0.279282 5.5362C0.100656 5.71482 0.000180033 5.95693 0 6.20942V7.79134C0.000200942 8.04391 0.100566 8.28612 0.279179 8.46477C0.457704 8.64349 0.699812 8.74395 0.952501 8.74426L1.9059 8.74345V8.74355C1.97924 8.95754 2.06594 9.16671 2.16561 9.36986L1.49049 10.0442V10.0443C1.31277 10.2232 1.21301 10.4651 1.21301 10.7174C1.21301 10.9697 1.31277 11.2116 1.49049 11.3905L2.60978 12.5098C2.7884 12.688 3.03051 12.7881 3.28289 12.7881C3.53527 12.7881 3.77739 12.688 3.95611 12.5098L4.63154 11.8344C4.83428 11.9343 5.04325 12.0211 5.25713 12.0941V13.0475C5.25733 13.3 5.35759 13.5421 5.53603 13.7206C5.71455 13.8992 5.95648 13.9997 6.20894 14H7.79166C8.04382 13.9996 8.28554 13.8993 8.46387 13.7211C8.6422 13.5429 8.74267 13.3013 8.74315 13.0491V12.0941C8.95704 12.0211 9.16582 11.9343 9.36843 11.8344L10.0436 12.5095C10.2223 12.6877 10.4644 12.7878 10.7168 12.7878C10.9692 12.7878 11.2112 12.6877 11.3899 12.5095L12.5092 11.3902C12.6874 11.2116 12.7875 10.9695 12.7875 10.7171C12.7875 10.4647 12.6874 10.2226 12.5092 10.0439L11.8344 9.36842C11.9343 9.16618 12.021 8.95771 12.0941 8.74422L13.0483 8.74341V8.74352C13.3007 8.74321 13.5427 8.64285 13.7211 8.46441C13.8995 8.28598 13.9998 8.04396 14 7.7916V6.20937C13.9999 5.9571 13.8997 5.71508 13.7215 5.53656C13.5432 5.35794 13.3015 5.25738 13.0491 5.25676V5.25684ZM7 4.00887C6.20662 4.00917 5.44581 4.32452 4.88503 4.88574C4.32412 5.44693 4.00917 6.20795 4.00938 7.00133C4.00958 7.79471 4.32495 8.55553 4.88614 9.11641C5.44722 9.67732 6.20824 9.99227 7.00162 9.99207C7.795 9.99196 8.55582 9.6766 9.1167 9.11551C9.6776 8.55432 9.99266 7.7934 9.99255 7.00002C9.99155 6.20674 9.6759 5.44633 9.11489 4.88563C8.55381 4.32483 7.79328 4.00959 7.00003 4.00887H7ZM7 4.94983V4.94993C6.45617 4.94993 5.93457 5.16613 5.5501 5.5507C5.16562 5.93538 4.94961 6.45698 4.94971 7.00081C4.94981 7.54472 5.16591 8.06625 5.55058 8.45082C5.93526 8.8353 6.45687 9.05121 7.0007 9.05111C7.5446 9.05101 8.06613 8.83481 8.4506 8.45023C8.83507 8.06555 9.05109 7.54384 9.05088 7.00002C9.05018 6.45639 8.83378 5.9353 8.44929 5.5509C8.06482 5.16653 7.5436 4.95042 6.99997 4.94993L7 4.94983Z" fill="#B6C2D0"/>
</svg>
