<svg width="20" height="20" viewBox="0 0 20 20" fill="none" xmlns="http://www.w3.org/2000/svg">
<path d="M9.99768 0C4.50166 0 0 4.47226 0 10.0023C0 15.5436 4.52488 20 9.99768 20C15.5007 20 20 15.5223 20 10.0023C20 4.47574 15.4987 0 9.99768 0ZM18.0782 5.67399C18.603 6.64958 18.9381 7.71721 19.0778 8.74085C19.0784 8.74478 19.0788 8.74871 19.0794 8.75249L17.5521 7.54704L18.0782 5.67399ZM17.4819 4.7152L16.7318 7.38575L14.2162 8.32852L10.4144 5.79142V2.78472L12.7217 1.24646C14.6645 1.85205 16.3299 3.08941 17.4818 4.71516L17.4819 4.7152ZM12.3488 13.077H7.64668L6.21725 9.03811L9.99776 6.51505L13.7783 9.03811L12.3488 13.077ZM11.5546 0.96839C11.5762 0.972168 11.5976 0.976098 11.6192 0.980027L9.99802 2.06097L8.37905 0.979756C9.442 0.790083 10.5226 0.790837 11.5545 0.968421L11.5546 0.96839ZM7.2773 1.24603L9.58121 2.7846V5.79176L5.77923 8.32886L3.26813 7.38624L2.51788 4.71476C3.6697 3.08887 5.33491 1.85134 7.27722 1.24607L7.2773 1.24603ZM2.44792 7.5472L0.920839 8.75233C0.921897 8.74523 0.922652 8.73782 0.923559 8.73072C1.07061 7.6581 1.42441 6.59852 1.92151 5.67369L2.44792 7.5472ZM0.836648 9.88071L2.99803 8.17484L5.33897 9.05354L6.91546 13.5084L5.41832 15.5937L2.6589 15.4852C1.513 13.9551 0.83363 12.0567 0.83363 10.0024C0.83363 9.96156 0.836199 9.9212 0.836653 9.88055L0.836648 9.88071ZM3.39507 16.3479L5.33173 16.4242L6.00611 18.2503C5.09568 17.8075 4.18401 17.1685 3.39511 16.3478L3.39507 16.3479ZM7.0527 18.6785L6.09359 16.0819L7.6524 13.9105H12.3479L13.9066 16.0817L12.9432 18.6791C12.0183 18.9936 11.0284 19.1668 9.99806 19.1668C8.96777 19.1668 7.97783 18.9935 7.05274 18.6785H7.0527ZM13.9907 18.2508L14.6681 16.424L16.6038 16.3478C15.8453 17.1366 14.9683 17.7756 13.9907 18.2508V18.2508ZM17.3406 15.485L14.5818 15.5935L13.0818 13.5041L14.6567 9.05349L17.002 8.17448L19.1636 9.88066C19.1642 9.92132 19.1668 9.96151 19.1668 10.0023C19.1668 12.0566 18.4871 13.955 17.3406 15.4848L17.3406 15.485Z" fill="#B6C2D0"/>
</svg>
