<svg width="14" height="14" viewBox="0 0 14 14" fill="none" xmlns="http://www.w3.org/2000/svg">
<path d="M2.42495 13.1745C2.39635 13.3484 2.43106 13.5272 2.52226 13.6756C2.61346 13.8241 2.75443 13.9314 2.91752 13.9766C3.08062 14.0216 3.25395 14.0012 3.40339 13.9192L6.99991 11.9393L10.5949 13.9157C10.744 13.9979 10.9171 14.0187 11.0802 13.9741C11.2432 13.9296 11.3844 13.8229 11.4759 13.6749C11.5676 13.5268 11.6029 13.3483 11.575 13.1745L10.88 8.98338L13.7968 6.01691C13.9174 5.89369 13.9895 5.72752 13.9989 5.55138C14.0084 5.37525 13.9545 5.20179 13.8477 5.06515C13.7409 4.92864 13.5892 4.83878 13.4222 4.81342L9.40217 4.20287L7.60566 0.392723C7.53082 0.23467 7.4022 0.111697 7.2451 0.0478214C7.08801 -0.0159405 6.91374 -0.0159405 6.75652 0.0478214C6.59943 0.111706 6.47081 0.23468 6.39609 0.392723L4.59783 4.20287L0.577765 4.81342C0.410788 4.83878 0.259112 4.92863 0.152262 5.06515C0.0455325 5.20178 -0.00835955 5.37522 0.00105424 5.55138C0.010468 5.72754 0.0826004 5.8937 0.203214 6.01691L3.11995 8.98338L2.42495 13.1745Z" fill="#B6C2D0"/>
</svg>
