<svg width="14" height="15" viewBox="0 0 14 15" fill="none" xmlns="http://www.w3.org/2000/svg">
<path d="M1.8447 4.21897C0.661974 5.40497 -0.00155136 7.01199 2.72378e-06 8.68695C0.00158633 10.3618 0.668021 11.9676 1.85287 13.1512C3.03769 14.335 4.64417 15 6.31916 15C7.99412 15 9.60047 14.335 10.7855 13.1512C11.9703 11.9674 12.6367 10.3616 12.6383 8.68695C12.6398 7.01199 11.9764 5.40497 10.7936 4.21897L10.7369 4.16223L11.8342 3.06491L12.6477 3.87837V3.8785C12.7947 3.9887 12.9859 4.02103 13.1609 3.96507C13.3359 3.90925 13.473 3.77213 13.529 3.59713C13.5848 3.422 13.5526 3.23077 13.4423 3.08391L11.0206 0.662248C10.8737 0.551921 10.6825 0.519718 10.5074 0.575543C10.3324 0.631497 10.1953 0.768614 10.1394 0.943624C10.0835 1.11862 10.1158 1.30985 10.226 1.45684L11.0395 2.2703L9.8665 3.44326V3.44339C8.98111 2.84926 7.95873 2.49108 6.89625 2.4028V1.13521H8.03147H8.03134C8.23418 1.13521 8.42158 1.027 8.52293 0.851346C8.62429 0.675826 8.62429 0.459379 8.52293 0.283735C8.42158 0.108215 8.23418 0 8.03134 0H4.62587H4.62601C4.42317 0 4.23576 0.108215 4.13441 0.283735C4.03306 0.459386 4.03306 0.675802 4.13441 0.851346C4.23576 1.027 4.42316 1.13521 4.62601 1.13521H5.76123L5.7611 2.4028C4.28212 2.52646 2.8947 3.16994 1.84481 4.21898L1.8447 4.21897ZM11.5124 8.70283C11.5094 10.3142 10.7572 11.8327 9.47706 12.8113C8.1968 13.79 6.53437 14.1177 4.97833 13.6981C3.42253 13.2784 2.15034 12.1591 1.53604 10.6694C0.921708 9.17967 1.03509 7.48886 1.84287 6.09461C2.65066 4.70033 4.06102 3.76086 5.65881 3.55288C7.25685 3.34476 8.86066 3.8915 9.99875 5.03253C10.972 6.00542 11.517 7.32656 11.5123 8.70287L11.5124 8.70283Z" fill="#7E91A6"/>
<path d="M6.89574 7.54876V5.27848C6.89574 5.07565 6.78753 4.88824 6.61188 4.78689C6.43636 4.68553 6.21991 4.68553 6.0444 4.78689C5.86875 4.88824 5.76054 5.07564 5.76054 5.27848V7.54876C5.41769 7.72045 5.17103 8.03809 5.08948 8.41276C5.00805 8.78756 5.10056 9.17899 5.34114 9.47751C5.58186 9.77615 5.94463 9.94971 6.32815 9.94971C6.71167 9.94971 7.07445 9.77617 7.31516 9.47751C7.55575 9.17899 7.64826 8.78756 7.56683 8.41276C7.48527 8.03809 7.23862 7.72045 6.89577 7.54876H6.89574ZM6.42276 8.79733C6.39782 8.8228 6.36377 8.83718 6.32814 8.83718C6.29251 8.83718 6.25846 8.8228 6.23352 8.79733C6.18126 8.7452 6.18126 8.66047 6.23352 8.60821C6.28578 8.55595 6.3705 8.55595 6.42276 8.60821C6.4481 8.63316 6.46249 8.6672 6.46249 8.70284C6.46249 8.73834 6.4481 8.77252 6.42276 8.79733Z" fill="#7E91A6"/>
</svg>
