<svg width="20" height="12" viewBox="0 0 20 12" fill="none" xmlns="http://www.w3.org/2000/svg">
<path d="M12.9273 5.83644C12.9273 5.09235 12.6318 4.37874 12.1056 3.8527C11.5796 3.32651 10.8659 3.03099 10.1219 3.03099C9.37776 3.03099 8.66416 3.32652 8.13812 3.8527C7.61193 4.37874 7.31641 5.09235 7.31641 5.83644C7.31641 6.58053 7.61194 7.29414 8.13812 7.82018C8.66416 8.34636 9.37776 8.64189 10.1219 8.64189C10.8656 8.64102 11.5787 8.3452 12.1046 7.81918C12.6306 7.29329 12.9265 6.58027 12.9273 5.83644Z" fill="#B6C2D0"/>
<path d="M17.5359 0.258983C17.3971 0.074005 17.1701 -0.0229643 16.9404 0.00463804C16.7108 0.0323847 16.5134 0.180512 16.4225 0.393092C16.3316 0.605816 16.3612 0.850912 16.5 1.03589C17.5468 2.41686 18.1112 4.10349 18.1064 5.83643C18.1052 7.70023 17.4531 9.50506 16.2625 10.9389C16.1202 11.1172 16.0822 11.3574 16.1627 11.571C16.243 11.7846 16.43 11.9401 16.6546 11.9801C16.8793 12.0203 17.1085 11.9392 17.258 11.7668C18.6418 10.1003 19.4001 8.0025 19.4013 5.83641C19.4073 3.82319 18.752 1.86346 17.5359 0.25896L17.5359 0.258983Z" fill="#B6C2D0"/>
<path d="M14.0468 9.9126C14.1801 10.0208 14.3507 10.0717 14.5214 10.0542C14.6921 10.0367 14.8489 9.95234 14.9575 9.81938C15.8513 8.73134 16.3525 7.37379 16.3798 5.96592C16.4073 4.55806 15.9594 3.18201 15.1085 2.05993C14.9682 1.87596 14.7405 1.78073 14.511 1.81036C14.2815 1.83984 14.0852 1.98956 13.9961 2.20314C13.9069 2.41659 13.9384 2.6614 14.0788 2.84535C14.7357 3.70375 15.0901 4.75554 15.0861 5.83651C15.0882 6.99133 14.6877 8.11059 13.9536 9.00192C13.8454 9.13517 13.7945 9.30584 13.812 9.4765C13.8295 9.64732 13.9139 9.80412 14.0468 9.91264V9.9126Z" fill="#B6C2D0"/>
<path d="M3.48417 12C3.64906 11.9999 3.80774 11.9368 3.92782 11.8238C4.04777 11.7108 4.12017 11.5562 4.13014 11.3916C4.14012 11.227 4.08693 11.0648 3.98144 10.9381C2.83184 9.55653 2.18268 7.82713 2.13888 6.03026C2.09523 4.23353 2.65955 2.47465 3.74053 1.03845C3.87926 0.853468 3.90889 0.608372 3.81799 0.395647C3.72709 0.182923 3.52968 0.0349405 3.30005 0.00719379C3.07042 -0.0204082 2.84338 0.0765608 2.70464 0.261539C1.49 1.86563 0.835516 3.82425 0.841842 5.8364C0.842854 8.00268 1.6011 10.1005 2.98514 11.7668C3.10856 11.9148 3.29151 12.0002 3.48414 11.9999L3.48417 12Z" fill="#B6C2D0"/>
<path d="M6.04213 1.93709C5.90557 1.83304 5.73316 1.78752 5.56293 1.81064C5.39269 1.83376 5.23864 1.92365 5.13489 2.06065C4.30597 3.14436 3.85884 4.47187 3.86331 5.83641C3.86071 7.28923 4.36435 8.69765 5.28764 9.81936C5.43375 9.99884 5.66441 10.0869 5.89285 10.05C6.12133 10.0133 6.31283 9.85751 6.39518 9.64131C6.4777 9.42512 6.43853 9.18131 6.29243 9.00184C5.55789 8.11062 5.15685 6.99136 5.15815 5.83643C5.15439 4.75516 5.5086 3.70312 6.16554 2.84441C6.2693 2.7077 6.31453 2.53544 6.29141 2.36536C6.26829 2.19526 6.17854 2.04136 6.04212 1.93717L6.04213 1.93709Z" fill="#B6C2D0"/>
</svg>
