<svg width="29" height="26" viewBox="0 0 29 26" fill="none" xmlns="http://www.w3.org/2000/svg">
<path d="M25.7931 7.20437C23.8848 2.962 19.6215 0 14.6766 0C9.74125 0 5.48538 2.95075 3.57206 7.17912C1.09646 7.50494 1.17022 9.36052 0.990595 11.6585C0.980056 11.7661 0.972881 11.8801 0.972656 12.0063V12.0088V12.0095V12.0108C0.972656 12.1626 0.98028 12.3124 0.99508 12.4599C0.995753 12.466 0.997098 12.4712 0.997546 12.477C1.01257 12.6194 1.03365 12.7604 1.06146 12.899C1.0637 12.9087 1.06684 12.9183 1.06863 12.9279C1.09689 13.0623 1.13007 13.195 1.16999 13.3253C1.17245 13.3334 1.17604 13.341 1.17828 13.3488C1.21954 13.4807 1.3191 13.7372 1.3191 13.7372L1.32404 13.7471C1.85324 15.25 1.51687 16.5075 3.38679 16.8145C4.95201 20.2945 8.10345 22.9098 11.9144 23.7387C12.1314 25.0216 13.245 26 14.5893 26C16.0897 26 17.3058 24.7839 17.3058 23.284C17.3058 21.7836 16.0897 20.5676 14.5893 20.5676C13.3825 20.5676 12.3606 21.3556 12.007 22.4447C8.49719 21.6188 5.63788 19.0905 4.34741 15.7828V15.3906L4.34719 10.9854V8.71453C5.80023 4.40172 9.87963 1.2857 14.6761 1.2857C19.2935 1.2857 23.2468 4.17348 24.8317 8.23692V16.8942C27.8002 16.8942 28.7063 14.7077 28.7063 12.0094C28.7065 9.60913 28.3023 7.61694 25.7928 7.20483L25.7931 7.20437Z" fill="#5E7085"/>
<path d="M14.756 4.5C10.8049 4.5 7.60156 7.70351 7.60156 11.6544C7.60156 15.606 10.8051 18.8094 14.756 18.8094C18.7069 18.8094 21.911 15.6059 21.911 11.6544C21.9108 7.70333 18.7071 4.5 14.756 4.5ZM14.756 17.5236C11.52 17.5236 8.88744 14.8908 8.88744 11.6544C8.88744 8.41809 11.52 5.78588 14.756 5.78588C17.992 5.78588 20.6251 8.41843 20.6251 11.6544C20.6251 14.8904 17.9919 17.5236 14.756 17.5236Z" fill="#5E7085"/>
<path d="M14.1019 11.0408H11.2891V12.3265H15.3855L15.3877 7.78456H14.1019L14.1019 11.0408Z" fill="#5E7085"/>
</svg>
