<svg width="16" height="20" viewBox="0 0 16 20" fill="none" xmlns="http://www.w3.org/2000/svg">
<path d="M12.8983 3.23247L9.83054 0.164691C9.78932 0.123472 9.74825 0.102935 9.70703 0.0823975V3.35599H12.9806C12.9601 3.31478 12.9394 3.27356 12.8983 3.23248L12.8983 3.23247Z" fill="#B6C2D0"/>
<path d="M12.4045 11.6121C12.6309 11.6121 12.8574 11.6326 13.0634 11.6533V4.50897H9.13089C8.82212 4.50897 8.5544 4.26194 8.5544 3.93248V0H0.771802C0.463027 0 0.195312 0.2677 0.195312 0.576489V15.9564C0.195312 16.2652 0.442335 16.5329 0.771802 16.5329H7.87497C7.85443 16.4094 7.85443 16.2859 7.85443 16.1624C7.85429 13.6505 9.89266 11.6122 12.4046 11.6122L12.4045 11.6121ZM3.38652 3.35595H6.18661C6.49538 3.35595 6.76309 3.62365 6.76309 3.93244C6.76309 4.24121 6.51607 4.50893 6.18661 4.50893H3.38652C3.07774 4.50893 2.81003 4.2619 2.81003 3.93244C2.81003 3.62352 3.07773 3.35595 3.38652 3.35595ZM3.38652 6.42362H9.87202C10.1808 6.42362 10.4485 6.67064 10.4485 7.00011C10.4485 7.30888 10.2015 7.5766 9.87202 7.5766H3.38652C3.07774 7.5766 2.81003 7.32957 2.81003 7.00011C2.81003 6.6708 3.07773 6.42362 3.38652 6.42362ZM3.38652 9.47089H9.87202C10.1808 9.47089 10.4485 9.71791 10.4485 10.0474C10.4485 10.3561 10.2015 10.6239 9.87202 10.6239H3.38652C3.07774 10.6239 2.81003 10.3768 2.81003 10.0474C2.81003 9.73846 3.07773 9.47089 3.38652 9.47089ZM6.43378 13.6916H3.38652C3.07774 13.6916 2.81003 13.4239 2.81003 13.1151C2.81003 12.8063 3.05705 12.5386 3.38652 12.5386H6.43364C6.74241 12.5386 7.01012 12.7857 7.01012 13.1151C7.01027 13.424 6.74257 13.6916 6.43378 13.6916Z" fill="#B6C2D0"/>
<path d="M12.4049 12.765C10.5313 12.765 9.00781 14.2886 9.00781 16.1621C9.00781 18.0357 10.5314 19.5592 12.4049 19.5592C14.2785 19.5592 15.802 18.0356 15.802 16.1621C15.802 14.2886 14.2785 12.765 12.4049 12.765ZM13.9903 15.8533L12.3431 17.5005C12.2402 17.6035 12.0754 17.6652 11.9314 17.6652C11.7872 17.6652 11.6432 17.6035 11.5197 17.5005L10.6962 16.677C10.4697 16.4505 10.4697 16.08 10.6962 15.874C10.9227 15.6476 11.2932 15.6476 11.4991 15.874L11.9109 16.2858L13.1463 15.0504C13.3728 14.8239 13.7433 14.8239 13.9493 15.0504C14.2168 15.2769 14.2168 15.6269 13.9903 15.8533H13.9903Z" fill="#B6C2D0"/>
</svg>
