<svg width="20" height="20" viewBox="0 0 20 20" fill="none" xmlns="http://www.w3.org/2000/svg">
<path d="M9.9998 0C4.48483 0 0 4.48469 0 9.99949C0 14.6973 3.23343 18.6895 7.6181 19.7561C7.79372 19.8121 7.98485 19.7927 8.14575 19.7026C8.3068 19.6126 8.42321 19.4599 8.46754 19.2809C8.51188 19.1019 8.47994 18.9124 8.3795 18.7577C8.27906 18.603 8.11909 18.4969 7.9374 18.4645C6.59969 18.1391 5.3821 17.4982 4.36807 16.6243C5.93225 14.8605 6.88893 12.54 6.88893 9.99963C6.88893 7.47 5.94153 5.15068 4.38898 3.38886C5.9003 2.105 7.85709 1.33353 9.99998 1.33353C12.1429 1.33353 14.0995 2.10496 15.611 3.38886C14.0584 5.15075 13.111 7.47 13.111 9.99963C13.111 12.5327 14.0615 14.8486 15.618 16.6104C14.1561 17.854 12.2724 18.62 10.2085 18.6657C9.9703 18.6583 9.74634 18.7786 9.62078 18.981C9.49523 19.1836 9.48732 19.4378 9.60001 19.6477C9.71255 19.8577 9.92878 19.9916 10.1669 19.9991C10.19 20.0003 10.2132 20.0003 10.2363 19.9991C15.6485 19.8789 20 15.4378 20 9.99958C20 4.48479 15.5152 9.92224e-05 10.0002 9.92224e-05L9.9998 0ZM3.43723 4.33311C4.75419 5.85351 5.55524 7.82825 5.55524 9.99949C5.55524 12.1777 4.74796 14.1584 3.42326 15.6797C2.11809 14.152 1.33315 12.1631 1.33315 9.99949C1.33315 7.83055 2.12492 5.85168 3.43719 4.33311H3.43723ZM16.562 4.33311C17.8742 5.8518 18.666 7.83059 18.666 9.99949C18.666 12.1706 17.8733 14.1532 16.562 15.673C15.243 14.153 14.444 12.1727 14.444 9.99949C14.444 7.82821 15.245 5.85367 16.562 4.33311Z" fill="#B6C2D0"/>
</svg>
