<svg width="13" height="18" viewBox="0 0 13 18" fill="none" xmlns="http://www.w3.org/2000/svg">
<path d="M7.03073 4.51526C5.83326 4.51526 4.68488 4.99095 3.83806 5.8377C2.99134 6.6845 2.51562 7.83302 2.51562 9.03036C2.51562 10.2277 2.99132 11.3762 3.83806 12.223C4.68486 13.0698 5.83339 13.5455 7.03073 13.5455C8.22807 13.5455 9.37657 13.0698 10.2234 12.223C11.0701 11.3762 11.5458 10.2277 11.5458 9.03036C11.5445 7.83326 11.0685 6.68562 10.222 5.83917C9.37551 4.99265 8.22774 4.51659 7.03077 4.5153L7.03073 4.51526ZM8.64328 8.06287C8.75853 8.06287 8.865 8.12435 8.92259 8.22412C8.98018 8.3239 8.98018 8.44686 8.92259 8.54663C8.865 8.64641 8.75853 8.70789 8.64328 8.70789H7.96601C7.8964 9.0471 7.71959 9.35492 7.46173 9.586C7.20387 9.81701 6.87854 9.95904 6.53373 9.99115L8.17075 11.0145H8.17083C8.26873 11.0755 8.32668 11.1842 8.32272 11.2995C8.31884 11.4149 8.25369 11.5194 8.15182 11.5737C8.04996 11.628 7.92686 11.6238 7.82895 11.5627L5.24886 9.95018C5.16845 9.9008 5.11374 9.81866 5.09913 9.72544C5.08444 9.63222 5.11137 9.53726 5.17277 9.46563C5.23411 9.39393 5.32381 9.35275 5.41818 9.35289H6.38571C6.58511 9.3521 6.77933 9.28969 6.94197 9.17422C7.10452 9.05875 7.2274 8.89584 7.29393 8.70787H5.41821C5.30296 8.70787 5.19649 8.64639 5.1389 8.54661C5.08131 8.44683 5.08131 8.32388 5.1389 8.2241C5.19649 8.12433 5.30296 8.06285 5.41821 8.06285H7.29393C7.22741 7.87489 7.10453 7.71197 6.94197 7.5965C6.77935 7.48103 6.58513 7.41861 6.38571 7.41782H5.41818C5.30292 7.41782 5.19645 7.35634 5.13886 7.25657C5.08127 7.15679 5.08127 7.03383 5.13886 6.93406C5.19645 6.83428 5.30292 6.7728 5.41818 6.7728H8.64328C8.75853 6.7728 8.865 6.83428 8.92259 6.93406C8.98018 7.03383 8.98018 7.15679 8.92259 7.25657C8.865 7.35634 8.75853 7.41782 8.64328 7.41782H7.6674C7.81397 7.60773 7.91589 7.82816 7.96573 8.06284L8.64328 8.06287Z" fill="#B6C2D0"/>
<path d="M0.56641 13.7165C0.56641 15.0517 1.61552 16.1006 2.95057 16.1006H11.3429L10.7236 16.7209C10.5328 16.9117 10.5328 17.197 10.7236 17.3878C10.9144 17.5786 11.1997 17.5786 11.3905 17.3878L12.821 15.9573C12.9163 15.8619 12.9644 15.7669 12.9644 15.6239C12.9644 15.4808 12.9163 15.3858 12.821 15.2905L11.3905 13.86C11.1997 13.6692 10.9144 13.6692 10.7236 13.86C10.5328 14.0508 10.5328 14.3361 10.7236 14.5269L11.3429 15.1472H2.95057C2.13999 15.1472 1.52004 14.5272 1.52004 13.7166L1.5202 11.809C1.5202 11.5229 1.32941 11.3321 1.0433 11.3321C0.757198 11.3321 0.566406 11.5229 0.566406 11.809L0.56641 13.7165ZM0.56641 1.907C0.56641 2.02627 0.614468 2.14505 0.709782 2.24037L2.14031 3.6709C2.3311 3.86169 2.61639 3.86169 2.80719 3.6709C2.99798 3.4801 2.99798 3.19482 2.80719 3.00402L2.18789 2.38391L10.5802 2.38391C11.3908 2.38391 12.0107 3.00386 12.0107 3.81444V5.72187C12.0107 6.00798 12.2015 6.19877 12.4876 6.19877C12.7737 6.19877 12.9645 6.00798 12.9645 5.72187V3.81444C12.9645 2.47922 11.9154 1.43028 10.5804 1.43028H2.18805L2.80735 0.809996C2.90266 0.714521 2.95072 0.571951 2.95072 0.476473C2.95072 0.381159 2.90266 0.238424 2.80735 0.143108C2.61656 -0.0476818 2.33127 -0.0476818 2.14048 0.143108L0.709945 1.57364C0.614472 1.66895 0.56641 1.7879 0.56641 1.907Z" fill="#B6C2D0"/>
</svg>
