<svg width="15" height="15" viewBox="0 0 15 15" fill="none" xmlns="http://www.w3.org/2000/svg">
<path d="M10.5168 8.27637C10.5168 8.27637 10.1921 8.28087 9.87525 8.44401C9.55854 8.60715 9.25977 8.92753 9.25977 9.57039V10.6055C9.25977 10.6055 9.26268 10.9379 9.42109 11.2641C9.57951 11.5903 9.88243 11.898 10.5169 11.898H14.2838V8.27639L10.5168 8.27637ZM11.0171 9.05315C11.5689 9.05315 12.0222 9.51994 12.0222 10.0882C12.0222 10.6565 11.5689 11.1206 11.0171 11.1206C10.4653 11.1206 10.0146 10.6565 10.0146 10.0882C10.0146 9.51994 10.4653 9.05315 11.0171 9.05315ZM11.0171 9.57039C10.7367 9.57039 10.5168 9.79946 10.5168 10.0882C10.5168 10.377 10.7367 10.6055 11.0171 10.6055C11.2975 10.6055 11.5194 10.377 11.5194 10.0882C11.5194 9.79947 11.2975 9.57039 11.0171 9.57039Z" fill="#B6C2D0"/>
<path d="M4.61573 5.17358C5.25196 6.11133 6.30748 6.72635 7.49984 6.72635C8.6922 6.72635 9.74723 6.1113 10.3828 5.17358L13.024 5.17405C13.6565 5.17416 13.9594 5.47966 14.1178 5.80594C14.2763 6.13222 14.2812 6.46668 14.2812 6.46668V7.75875H10.5143C10.5143 7.75875 10.0851 7.75564 9.64857 7.98055C9.212 8.20534 8.75492 8.67271 8.75492 9.57061V10.6056C8.75492 10.6056 8.75144 11.0475 8.96972 11.4971C9.18801 11.9467 9.64183 12.4154 10.5143 12.4154H14.2812V13.7075C14.2812 14.3561 13.9824 14.6708 13.6656 14.8339C13.3488 14.997 13.0241 15 13.0241 15L1.97528 15.0002C1.33994 15.0002 1.03993 14.6945 0.881536 14.3683C0.723124 14.042 0.71875 13.7076 0.71875 13.7076V6.4668C0.71875 5.82453 1.01752 5.50354 1.33435 5.34042C1.65117 5.17728 1.9754 5.17428 1.9754 5.17428L4.61573 5.17358Z" fill="#B6C2D0"/>
<path d="M7.4985 0C5.83117 0 4.48438 1.38742 4.48438 3.10464C4.48438 4.82186 5.83106 6.20928 7.4985 6.20928C9.16593 6.20928 10.5132 4.82186 10.5132 3.10464C10.5132 1.38742 9.16596 0 7.4985 0ZM6.74611 0.517834H8.25142C8.39089 0.517257 8.50401 0.633753 8.50345 0.777378V3.36209H9.25594C9.4814 3.36047 9.59464 3.64218 9.43398 3.80508L7.67653 5.61496C7.57844 5.71645 7.41857 5.71645 7.32048 5.61496L5.56303 3.80508C5.40238 3.64218 5.51561 3.36046 5.74106 3.36209H6.49399V0.777378C6.49343 0.63375 6.60666 0.517255 6.74613 0.517834H6.74611ZM6.99623 1.03508V3.62177C6.99578 3.76389 6.88412 3.87889 6.74611 3.87935H6.34531L7.4985 5.06543L8.64964 3.87935H8.25142C8.11341 3.87889 8.00175 3.76389 8.00119 3.62177V1.03508H6.99623Z" fill="#B6C2D0"/>
</svg>
