<svg width="17" height="17" viewBox="0 0 17 17" fill="none" xmlns="http://www.w3.org/2000/svg">
<path fillRule="evenodd" clip-rule="evenodd" d="M8.5 0C13.1944 0 17 3.80557 17 8.5C17 13.1944 13.1944 17 8.5 17C3.80557 17 0 13.1944 0 8.5C0 3.80557 3.80557 0 8.5 0ZM8.43348 3.11039C10.1949 3.11039 11.8077 4.43566 11.8077 6.26116C11.8077 7.50699 11.0351 8.57708 9.91806 9.08829C9.42961 9.31194 9.14514 9.76064 9.14514 10.297V11.0505H7.72178V10.297C7.72178 9.20271 8.33415 8.25359 9.32822 7.79799C9.93536 7.51991 10.3844 6.94514 10.3844 6.26116C10.3844 5.21739 9.41289 4.5339 8.43351 4.5339C7.51201 4.5339 6.85257 5.00929 6.52529 5.85872L5.19182 5.3863C5.67765 3.97636 6.94804 3.11058 8.43366 3.11058L8.43348 3.11039ZM8.43348 11.8435C8.99827 11.8435 9.45648 12.3017 9.45648 12.8665C9.45648 13.4313 8.99827 13.8895 8.43348 13.8895C7.86868 13.8895 7.41047 13.4313 7.41047 12.8665C7.41047 12.3017 7.86868 11.8435 8.43348 11.8435Z" fill="#B6C2D0"/>
</svg>
