<svg width="25" height="25" viewBox="0 0 25 25" fill="none" xmlns="http://www.w3.org/2000/svg">
<path d="M5.62509 9.4942e-05C4.25617 9.4942e-05 3.12502 1.13124 3.12502 2.50016V3.1251H2.18746C0.991803 3.1251 0 4.1169 0 5.31255V19.0626C0 20.2582 0.991803 21.25 2.18746 21.25H14.0821C14.8585 23.4288 16.937 25 19.375 25C22.4706 25 25 22.4705 25 19.375C25 16.2796 22.4705 13.75 19.375 13.75C16.2796 13.75 13.7499 16.2797 13.7499 19.375H2.18735C1.99814 19.375 1.87497 19.2518 1.87497 19.0626V10.3126H19.3751V11.5625C19.3716 11.8134 19.4688 12.0553 19.645 12.2341C19.8211 12.4128 20.0617 12.5133 20.3126 12.5133C20.5636 12.5133 20.8042 12.4128 20.9803 12.2341C21.1565 12.0553 21.2537 11.8134 21.2502 11.5625V5.31246C21.2502 4.11681 20.2584 3.12501 19.0627 3.12501H18.1252V2.50006C18.1252 1.13114 16.9939 0 15.6251 0C14.2564 0 13.125 1.13114 13.125 2.50006V3.12501H8.12512V2.50006C8.12512 1.13114 6.9938 0 5.62504 0L5.62509 9.4942e-05ZM5.62509 1.87521C5.9876 1.87521 6.25004 2.13766 6.25004 2.50016V5.00022C6.25004 5.36251 5.98759 5.62517 5.62509 5.62517C5.26259 5.62517 5.00014 5.3625 5.00014 5.00022V2.50016C5.00014 2.13765 5.2626 1.87521 5.62509 1.87521ZM15.6252 1.87521C15.9877 1.87521 16.2501 2.13766 16.2501 2.50016V5.00022C16.2501 5.36251 15.9877 5.62517 15.6252 5.62517C15.2627 5.62517 15.0002 5.3625 15.0002 5.00022V2.50016C15.0002 2.13765 15.2627 1.87521 15.6252 1.87521ZM2.18757 5.00022H3.12513C3.12513 6.36892 4.25628 7.50006 5.62521 7.50006C6.99391 7.50006 8.12528 6.36892 8.12528 5.00022H13.1252C13.1252 6.36892 14.2565 7.50006 15.6253 7.50006C16.994 7.50006 18.1253 6.36892 18.1253 5.00022H19.0629C19.2521 5.00022 19.3753 5.12338 19.3753 5.31259V8.4376H1.87516V5.31259C1.87516 5.12339 1.99832 5.00022 2.18754 5.00022H2.18757ZM19.3752 15.6253C21.4573 15.6253 23.1252 17.2931 23.1252 19.3752C23.1252 21.4574 21.4573 23.1252 19.3752 23.1252C17.293 23.1252 15.6252 21.4574 15.6252 19.3752C15.6252 17.2931 17.293 15.6253 19.3752 15.6253ZM20.8597 17.1779C20.616 17.2028 20.3917 17.322 20.2347 17.5099L18.6234 19.3558L18.0667 18.9357C17.8672 18.7856 17.6163 18.7206 17.3691 18.7555C17.1217 18.7901 16.8985 18.9218 16.7483 19.1212C16.5979 19.3207 16.5331 19.5716 16.568 19.819C16.6027 20.0662 16.7343 20.2894 16.9338 20.4396L18.1839 21.3772C18.3736 21.5191 18.6099 21.5838 18.8455 21.5583C19.0809 21.533 19.2982 21.4195 19.4535 21.2405L21.6409 18.7404C21.8107 18.5527 21.8973 18.3042 21.8811 18.0516C21.865 17.799 21.7473 17.5635 21.5548 17.3992C21.3625 17.2346 21.1117 17.1548 20.8597 17.1779L20.8597 17.1779Z" fill="#5E7085"/>
</svg>
