<svg width="17" height="13" viewBox="0 0 17 13" fill="none" xmlns="http://www.w3.org/2000/svg">
<path d="M11.641 4.59805C11.641 6.21263 10.3638 7.52155 8.78832 7.52155C7.2128 7.52155 5.93555 6.21263 5.93555 4.59805C5.93555 2.98348 7.21283 1.67456 8.78832 1.67456C10.3638 1.67456 11.641 2.98348 11.641 4.59805Z" fill="#B6C2D0"/>
<path d="M13.3925 10.5253C13.3925 11.7485 11.3319 12.7402 8.79002 12.7402C6.24809 12.7402 4.1875 11.7485 4.1875 10.5253C4.1875 9.30205 6.24809 8.31042 8.79002 8.31042C11.3319 8.31042 13.3925 9.30205 13.3925 10.5253Z" fill="#B6C2D0"/>
<path d="M5.18074 5.84719C5.1916 5.84719 5.20233 5.84547 5.21345 5.84547C5.08274 5.45387 5.0103 5.03487 5.0103 4.59839C5.0103 2.98751 5.97573 1.60417 7.34424 1.0214C6.821 0.397268 6.04682 0.000244141 5.1809 0.000244141C3.60538 0.000244141 2.32813 1.3093 2.32813 2.92374C2.32799 4.53831 3.60528 5.84723 5.1808 5.84723L5.18074 5.84719Z" fill="#B6C2D0"/>
<path d="M12.5682 4.59819C12.5682 5.03481 12.4957 5.45366 12.365 5.84526C12.3759 5.84553 12.3866 5.84699 12.3977 5.84699C13.9732 5.84699 15.2505 4.53793 15.2505 2.92349C15.2505 1.30878 13.9732 0 12.3977 0C11.5318 0 10.7574 0.396754 10.2344 1.02116C11.6028 1.60396 12.5682 2.98733 12.5682 4.59814L12.5682 4.59819Z" fill="#B6C2D0"/>
<path d="M12.3984 6.63577C12.2617 6.63577 12.1272 6.64001 11.9933 6.64544C11.7631 7.02114 11.4726 7.35446 11.1348 7.62951C13.0663 8.10651 14.3184 9.18011 14.3184 10.5252C14.3184 10.6415 14.3088 10.7559 14.2904 10.8679C15.8875 10.5206 17.0007 9.74875 17.0007 8.85048C17.0008 7.62751 14.9402 6.63574 12.3985 6.63574L12.3984 6.63577Z" fill="#B6C2D0"/>
<path d="M6.44427 7.62948C6.1063 7.35442 5.8159 7.02125 5.58574 6.64541C5.45212 6.63972 5.3173 6.63574 5.18064 6.63574C2.63878 6.63574 0.578125 7.62751 0.578125 8.85062C0.578125 9.74888 1.69133 10.5206 3.28841 10.8681C3.27013 10.756 3.26047 10.6416 3.26047 10.5253C3.2606 9.18038 4.51297 8.10651 6.44419 7.62951L6.44427 7.62948Z" fill="#B6C2D0"/>
</svg>
