<svg width="14" height="15" viewBox="0 0 14 15" fill="none" xmlns="http://www.w3.org/2000/svg">
<path d="M4.73302 7.43463C5.74333 8.11416 7.00509 8.30474 8.17102 7.95395C9.33694 7.60334 10.2841 6.74822 10.7519 5.62411C11.2196 4.50002 11.1586 3.22544 10.5857 2.15114C10.0127 1.07671 8.98821 0.316087 7.79406 0.0782796C6.60004 -0.159521 5.36219 0.150755 4.42153 0.923545C3.48073 1.69646 2.93616 2.8505 2.9375 4.06801C2.93912 5.41898 3.61216 6.68071 4.73303 7.43459L4.73302 7.43463Z" fill="#B6C2D0"/>
<path d="M10.2562 7.80225C9.35524 8.59164 8.19809 9.02687 7.00004 9.02687C5.80198 9.02687 4.64483 8.59161 3.74384 7.80225C1.51889 8.82189 0 10.898 0 13.4826V14.6667H14V13.4826C14 10.8919 12.4811 8.82182 10.2562 7.80225H10.2562Z" fill="#B6C2D0"/>
</svg>
