<svg width="15" height="11" viewBox="0 0 15 11" fill="none" xmlns="http://www.w3.org/2000/svg">
<path d="M13.8123 0H1.43745C1.02496 0 0.75 0.275072 0.75 0.68757V10.3125C0.75 10.725 1.02496 11 1.43745 11H13.8123C14.2248 11 14.4997 10.725 14.4997 10.3125V6.87499H9.68741C8.93113 6.87499 8.31239 6.25625 8.31239 5.49997C8.31239 4.74369 8.93113 4.12495 9.68741 4.12495H14.4997V0.687688C14.4997 0.275193 14.2248 0.000117791 13.8123 0.000117791V0Z" fill="#B6C2D0"/>
<path d="M10.3769 5.49995C10.3769 5.87965 10.0691 6.1874 9.68941 6.1874C9.3097 6.1874 9.00195 5.87965 9.00195 5.49995C9.00195 5.12025 9.3097 4.8125 9.68941 4.8125C10.0691 4.8125 10.3769 5.12025 10.3769 5.49995Z" fill="#B6C2D0"/>
</svg>
