<svg width="18" height="18" viewBox="0 0 18 18" fill="none" xmlns="http://www.w3.org/2000/svg">
<path d="M2.29868 17.5707H15.6749C16.2847 17.5713 16.8697 17.3291 17.3011 16.8979C17.7323 16.4666 17.9744 15.8816 17.9738 15.2718V13.8087H15.0478H15.0479C14.1518 13.8087 13.3239 13.3307 12.8758 12.5547C12.4278 11.7788 12.4278 10.8227 12.8758 10.0467C13.3239 9.2708 14.1518 8.7927 15.0479 8.7927H17.974L17.9738 6.9117C17.9734 6.36001 17.7737 5.82692 17.4115 5.41067C17.0493 4.99441 16.5489 4.72294 16.0026 4.64623L13.4043 1.39407C13.1441 1.06938 12.7581 0.870652 12.3426 0.8474C11.9268 0.822627 11.5205 0.977977 11.2274 1.27369L10.475 2.02609L9.21513 0.520464C8.94879 0.205847 8.5628 0.0173239 8.15092 0.000520293C7.7463 -0.0101165 7.35455 0.142717 7.06402 0.4243L2.87495 4.61266H2.2989C2.02192 4.61224 1.75642 4.50195 1.56051 4.30601C1.36471 4.11022 1.25442 3.84458 1.254 3.56762C1.25288 3.28771 1.36681 3.01956 1.56918 2.82615C1.76106 2.63007 2.0246 2.52049 2.2989 2.52259H3.97095C4.19502 2.52259 4.402 2.40307 4.51397 2.20909C4.62593 2.01511 4.62593 1.77606 4.51397 1.58209C4.402 1.38811 4.19501 1.26859 3.97095 1.26859H2.2989C1.6901 1.27167 1.10717 1.51491 0.676694 1.94543C0.246179 2.37594 0.00308222 2.95884 9.68629e-07 3.56764V15.2717C-0.000558852 15.8815 0.241564 16.4666 0.672754 16.8979C1.10409 17.3291 1.6891 17.5712 2.2989 17.5706L2.29868 17.5707ZM12.1132 2.16335C12.1569 2.1236 12.214 2.10205 12.2729 2.10316C12.3322 2.10582 12.3875 2.13424 12.4242 2.18084L14.3696 4.61285H9.66455L12.1132 2.16335ZM7.94992 1.31059C7.98953 1.2707 8.04425 1.24971 8.10037 1.25293C8.16013 1.25559 8.21611 1.28274 8.25502 1.32809L9.58433 2.91644L7.89061 4.61285H4.64855L7.94992 1.31059Z" fill="#5E7085"/>
</svg>
