<svg width="18" height="19" viewBox="0 0 18 19" fill="none" xmlns="http://www.w3.org/2000/svg">
<path d="M2.29868 18.1876H15.6749C16.2847 18.1882 16.8697 17.9426 17.3011 17.5051C17.7323 17.0676 17.9744 16.4741 17.9738 15.8554V14.3711H15.0478H15.0479C14.1518 14.3711 13.3239 13.8862 12.8758 13.099C12.4278 12.3118 12.4278 11.3419 12.8758 10.5546C13.3239 9.76746 14.1518 9.28244 15.0479 9.28244H17.974L17.9738 7.37418C17.9734 6.81449 17.7737 6.27367 17.4115 5.85139C17.0493 5.4291 16.5489 5.15369 16.0026 5.07587L13.4043 1.77658C13.1441 1.44718 12.7581 1.24558 12.3426 1.22199C11.9268 1.19685 11.5205 1.35446 11.2274 1.65445L10.475 2.41776L9.21513 0.890312C8.94879 0.571135 8.5628 0.37988 8.15092 0.362833C7.7463 0.352042 7.35455 0.50709 7.06402 0.792754L2.87495 5.04181H2.2989C2.02192 5.04139 1.75642 4.9295 1.56051 4.73073C1.36471 4.53209 1.25442 4.2626 1.254 3.98163C1.25288 3.69767 1.36681 3.42562 1.56918 3.22942C1.76106 3.0305 2.0246 2.91933 2.2989 2.92145H3.97095C4.19502 2.92145 4.402 2.8002 4.51397 2.60341C4.62593 2.40662 4.62593 2.16411 4.51397 1.96732C4.402 1.77053 4.19501 1.64928 3.97095 1.64928H2.2989C1.6901 1.6524 1.10717 1.89917 0.676694 2.33593C0.246179 2.77268 0.00308222 3.36402 9.68629e-07 3.98164V15.8554C-0.000558852 16.474 0.241564 17.0675 0.672754 17.5051C1.10409 17.9425 1.6891 18.1882 2.2989 18.1876L2.29868 18.1876ZM12.1132 2.557C12.1569 2.51668 12.214 2.49482 12.2729 2.49595C12.3322 2.49865 12.3875 2.52747 12.4242 2.57475L14.3696 5.042H9.66455L12.1132 2.557ZM7.94992 1.69189C7.98953 1.65142 8.04425 1.63013 8.10037 1.63339C8.16013 1.63609 8.21611 1.66363 8.25502 1.70964L9.58433 3.32101L7.89061 5.042H4.64855L7.94992 1.69189Z" fill="#5E7085"/>
</svg>
