<svg width="15" height="15" viewBox="0 0 15 15" fill="none" xmlns="http://www.w3.org/2000/svg">
<path d="M10.4176 8.27637C10.4176 8.27637 10.0832 8.28087 9.75689 8.44401C9.43073 8.60715 9.12305 8.9183 9.12305 9.57038V10.6054C9.12305 10.6054 9.12605 10.9378 9.28919 11.2641C9.45233 11.5903 9.76487 11.898 10.4177 11.898H14.297V8.27639L10.4176 8.27637ZM10.9328 9.05314C11.5011 9.05314 11.9679 9.51993 11.9679 10.0882C11.9679 10.6565 11.5011 11.1206 10.9328 11.1206C10.3645 11.1206 9.90038 10.6565 9.90038 10.0882C9.90038 9.51993 10.3645 9.05314 10.9328 9.05314ZM10.9328 9.57038C10.644 9.57038 10.4176 9.79944 10.4176 10.0882C10.4176 10.377 10.644 10.6055 10.9328 10.6055C11.2215 10.6055 11.45 10.377 11.45 10.0882C11.45 9.79946 11.2215 9.57038 10.9328 9.57038Z" fill="#B6C2D0"/>
<path d="M1.62226 5.17395H4.34135C4.99668 6.11145 6.08368 6.72626 7.31148 6.72626C8.53929 6.72626 9.62579 6.11157 10.2804 5.17407H13.0004C13.6585 5.17407 13.9637 5.47968 14.1268 5.80596C14.2901 6.13211 14.2951 6.46661 14.2951 6.46661V7.75867H10.4158C10.4158 7.75867 9.97389 7.75555 9.5243 7.98046C9.07472 8.20525 8.604 8.67111 8.604 9.57051V10.6055C8.604 10.6055 8.60042 11.0474 8.82521 11.497C9.05001 11.9466 9.51678 12.4153 10.4158 12.4153H14.2951V13.7074C14.2951 14.3579 13.9874 14.6706 13.6612 14.8338C13.3349 14.9969 13.0005 14.9999 13.0005 14.9999L1.62214 15C0.968435 15 0.658889 14.6944 0.495767 14.3681C0.332629 14.0419 0.328125 13.7075 0.328125 13.7075V6.46672C0.328125 5.81914 0.635809 5.50347 0.962083 5.34035C1.28836 5.17721 1.62226 5.17421 1.62226 5.17421L1.62226 5.17395Z" fill="#B6C2D0"/>
<path d="M7.30911 2.98786e-06C5.59205 2.98786e-06 4.20508 1.38742 4.20508 3.10462C4.20508 3.71121 4.37815 4.27672 4.67787 4.75435C4.68964 4.76913 4.70026 4.78506 4.70869 4.80226C5.26229 5.64983 6.21897 6.2091 7.30899 6.2091C8.39936 6.2091 9.35681 5.64935 9.91032 4.80135C9.91863 4.78461 9.92868 4.76925 9.94011 4.75482C10.24 4.27707 10.4135 3.71144 10.4135 3.10462C10.4135 1.38756 9.02607 0 7.30886 0L7.30911 2.98786e-06ZM7.28036 0.519311C7.35875 0.510537 7.4368 0.538015 7.49245 0.59401L9.30231 2.40388C9.37736 2.47777 9.40011 2.58976 9.35981 2.68709C9.31952 2.78442 9.22427 2.84768 9.11897 2.84687H8.34403V5.43156C8.34438 5.50049 8.31701 5.56665 8.26829 5.61537C8.21957 5.66409 8.15341 5.69145 8.08448 5.69111H6.53427C6.46535 5.69146 6.39908 5.66409 6.35035 5.61537C6.30163 5.56665 6.27438 5.50049 6.27461 5.43156V2.84687H5.49923C5.39393 2.84768 5.29868 2.78441 5.25839 2.68709C5.21809 2.58976 5.24084 2.47777 5.31589 2.40388L7.12575 0.59401C7.1672 0.552214 7.22181 0.525891 7.28035 0.519311H7.28036ZM7.30911 1.14358L6.12152 2.32965H6.53428C6.67629 2.33023 6.79128 2.44522 6.79186 2.58723V5.1739H7.82681V2.58723C7.82739 2.44522 7.94238 2.33023 8.08451 2.32965H8.49461L7.30911 1.14358Z" fill="#B6C2D0"/>
</svg>
